<svg width="61" height="66" viewBox="0 0 61 66" fill="none" xmlns="http://www.w3.org/2000/svg">
<path d="M42.2757 13.74L38.5862 14.0329C38.4415 14.0444 38.2982 13.9978 38.1877 13.9034C38.0773 13.809 38.0088 13.6745 37.9973 13.5295L37.8781 12.0283L35.6961 12.2015C35.1496 13.5272 34.2479 14.6755 33.0908 15.5194C31.9336 16.3632 30.566 16.8698 29.1392 16.9831C27.7125 17.0964 26.2821 16.8119 25.0063 16.1613C23.7304 15.5106 22.6588 14.519 21.91 13.2962L19.7181 13.4702L19.8373 14.9714C19.8487 15.1147 19.8035 15.2567 19.7115 15.3669C19.6194 15.4771 19.4879 15.5467 19.3451 15.5607L15.6457 15.8544C15.5026 15.8632 15.3617 15.8152 15.2534 15.7209C15.1451 15.6266 15.0781 15.4935 15.0667 15.3502L14.9475 13.849C14.4541 13.8854 13.9807 14.0592 13.5807 14.3508C13.1806 14.6424 12.8698 15.0402 12.6832 15.4994L6.25211 31.1663L13.8283 33.5659L15.5359 29.1786L15.3062 26.2856C15.2949 26.1433 15.3405 26.0022 15.4329 25.8936C15.5254 25.7849 15.6571 25.7176 15.7992 25.7063C15.9412 25.695 16.0819 25.7408 16.1904 25.8335C16.2988 25.9262 16.366 26.0582 16.3774 26.2006L16.6142 29.183L18.915 60.4232L46.1401 58.2615L43.4822 27.0497L43.2454 24.0672C43.2341 23.9249 43.2797 23.7838 43.3721 23.6752C43.4646 23.5665 43.5963 23.4991 43.7384 23.4879C43.8813 23.4765 44.023 23.5218 44.133 23.6141C44.243 23.7064 44.3125 23.8383 44.3265 23.9814L44.5562 26.8744L46.9348 30.9372L54.0274 27.3728L45.2046 12.9172C44.9478 12.4932 44.5781 12.1494 44.1371 11.9246C43.696 11.6998 43.2011 11.6029 42.7082 11.6448L42.8274 13.1459C42.8337 13.2221 42.8241 13.2988 42.7992 13.371C42.7743 13.4432 42.7346 13.5094 42.6827 13.5653C42.6307 13.6212 42.5677 13.6657 42.4976 13.6957C42.4275 13.7258 42.352 13.7409 42.2757 13.74ZM13.8666 19.4671L10.9224 26.6337C10.8839 26.7245 10.8213 26.8029 10.7414 26.8604C10.6615 26.9179 10.5674 26.9523 10.4693 26.9598C10.3841 26.9705 10.2976 26.9602 10.2174 26.9298C10.0858 26.8739 9.98121 26.7687 9.92596 26.6367C9.87072 26.5046 9.86918 26.3561 9.92168 26.223L12.8658 19.0564C12.8924 18.9902 12.9317 18.93 12.9816 18.8793C13.0315 18.8285 13.091 18.7882 13.1566 18.7606C13.2222 18.7331 13.2926 18.7189 13.3637 18.7188C13.4348 18.7188 13.5052 18.7329 13.5709 18.7603C13.6369 18.7869 13.697 18.8264 13.7476 18.8764C13.7983 18.9265 13.8386 18.9861 13.8661 19.0518C13.8936 19.1176 13.9078 19.1882 13.9079 19.2594C13.9079 19.3307 13.8939 19.4013 13.8666 19.4671ZM26.9036 42.7519C26.695 43.0151 26.5168 43.301 26.3725 43.6044C26.3346 43.6963 26.2725 43.7761 26.1928 43.8353C26.1131 43.8945 26.0189 43.9308 25.9201 43.9405C25.8326 43.9491 25.7444 43.9318 25.6666 43.8905C25.6001 43.8631 25.5398 43.8227 25.4892 43.7715C25.4386 43.7203 25.3987 43.6594 25.372 43.5925C25.3453 43.5255 25.3323 43.454 25.3336 43.3819C25.335 43.3099 25.3508 43.2388 25.3801 43.173C25.5615 42.8004 25.781 42.4477 26.0351 42.1206C26.2802 41.863 26.4687 41.5568 26.5882 41.2216C26.7077 40.8864 26.7556 40.5297 26.729 40.1747C26.6981 39.8187 26.594 39.4731 26.423 39.1595C26.2521 38.8458 26.0181 38.5712 25.7359 38.3528C25.3627 38.0458 25.0554 37.666 24.8326 37.2367C24.6098 36.8073 24.4762 36.3372 24.4397 35.8546C24.401 35.371 24.4593 34.8846 24.6113 34.4241C24.7633 33.9635 25.0059 33.5382 25.3247 33.1733C25.4068 33.0768 25.4783 32.971 25.5597 32.8645C25.5987 32.8051 25.6492 32.7541 25.7083 32.7147C25.7675 32.6753 25.8339 32.6483 25.9037 32.6353C25.9735 32.6223 26.0452 32.6236 26.1146 32.639C26.1839 32.6544 26.2494 32.6837 26.3071 32.7252C26.3654 32.7652 26.4152 32.8163 26.4538 32.8756C26.4923 32.935 26.5188 33.0013 26.5317 33.0709C26.5447 33.1405 26.5438 33.2119 26.5292 33.2812C26.5146 33.3504 26.4864 33.4161 26.4465 33.4744L26.2039 33.8138C25.9611 34.0743 25.7749 34.3827 25.6573 34.7193C25.5397 35.0558 25.4933 35.4132 25.5208 35.7688C25.5485 36.1231 25.6503 36.4675 25.8196 36.7799C25.9888 37.0922 26.2217 37.3653 26.5031 37.5816C26.8755 37.8916 27.1821 38.2733 27.4049 38.7041C27.6277 39.1349 27.7621 39.606 27.8001 40.0897C27.8376 40.5711 27.7775 41.0552 27.6234 41.5127C27.4693 41.9702 27.2245 42.3918 26.9036 42.7519ZM31.1539 37.2023C31.528 37.5108 31.8358 37.8921 32.0587 38.3232C32.2817 38.7543 32.4151 39.2262 32.4509 39.7104C32.4934 40.1928 32.4367 40.6787 32.2844 41.1382C32.132 41.5977 31.8872 42.021 31.5651 42.3818C31.3223 42.6424 31.1362 42.9507 31.0186 43.2872C30.901 43.6238 30.8545 43.9812 30.882 44.3368C30.8908 44.4803 30.843 44.6215 30.7489 44.73C30.6549 44.8385 30.5221 44.9056 30.3791 44.917C30.2371 44.9282 30.0964 44.8825 29.9879 44.7898C29.8795 44.6971 29.8122 44.565 29.8009 44.4226C29.7611 43.938 29.8199 43.4505 29.9737 42.9894C30.1275 42.5284 30.3732 42.1035 30.6958 41.7405C30.9396 41.4826 31.1264 41.1761 31.2443 40.841C31.3621 40.5059 31.4082 40.1496 31.3797 39.7954C31.3508 39.4399 31.2485 39.0944 31.0793 38.7806C30.91 38.4668 30.6776 38.1917 30.3966 37.9727C30.0204 37.6679 29.7103 37.289 29.4857 36.8595C29.2611 36.4299 29.1265 35.9589 29.0905 35.4753C29.0507 34.9908 29.1094 34.5032 29.2633 34.0422C29.4171 33.5811 29.6628 33.1562 29.9854 32.7932C30.2291 32.5353 30.416 32.2288 30.5339 31.8937C30.6517 31.5586 30.6978 31.2024 30.6693 30.8482C30.658 30.7058 30.7036 30.5648 30.796 30.4561C30.8885 30.3475 31.0202 30.2801 31.1623 30.2688C31.3043 30.2575 31.445 30.3033 31.5535 30.396C31.6619 30.4887 31.7291 30.6207 31.7404 30.7631C31.783 31.2455 31.7263 31.7315 31.574 32.1909C31.4216 32.6504 31.1768 33.0737 30.8547 33.4345C30.6119 33.6951 30.4257 34.0034 30.3081 34.34C30.1905 34.6765 30.144 35.0339 30.1716 35.3895C30.1993 35.7438 30.3011 36.0883 30.4703 36.4006C30.6396 36.7129 30.8725 36.9861 31.1539 37.2023ZM37.8195 57.4215L36.5004 57.5263C36.3583 57.5375 36.2176 57.4918 36.1092 57.3991C36.0007 57.3064 35.9335 57.1744 35.9222 57.032C35.9108 56.8887 35.956 56.7466 36.048 56.6364C36.1401 56.5262 36.2716 56.4566 36.4143 56.4427L37.7731 56.3348C37.9163 56.3261 38.0571 56.374 38.1654 56.4683C38.2737 56.5626 38.3407 56.6957 38.3521 56.839C38.3581 56.913 38.3489 56.9874 38.325 57.0576C38.301 57.1278 38.2628 57.1923 38.2128 57.247C38.1628 57.3017 38.102 57.3454 38.0343 57.3755C37.9667 57.4055 37.8935 57.4212 37.8195 57.4215ZM36.4151 41.9967C36.2065 42.2598 36.0282 42.5458 35.8839 42.8492C35.846 42.9411 35.7839 43.0209 35.7042 43.0801C35.6245 43.1393 35.5303 43.1756 35.4315 43.1852C35.344 43.1939 35.2558 43.1766 35.1781 43.1353C35.1121 43.1087 35.052 43.0693 35.0013 43.0192C34.9507 42.9692 34.9104 42.9096 34.8829 42.8438C34.8554 42.7781 34.8412 42.7075 34.8411 42.6362C34.841 42.5649 34.8551 42.4943 34.8824 42.4285C35.0638 42.0559 35.2833 41.7032 35.5374 41.3761C35.7825 41.1186 35.971 40.8122 36.0905 40.477C36.21 40.1418 36.2579 39.7852 36.2312 39.4302C36.2004 39.0743 36.0963 38.7286 35.9253 38.415C35.7544 38.1014 35.5205 37.8266 35.2382 37.6083C34.865 37.3012 34.5577 36.9216 34.3349 36.4922C34.1121 36.0628 33.9784 35.5927 33.942 35.1102C33.9032 34.6266 33.9616 34.1401 34.1136 33.6796C34.2656 33.219 34.5082 32.7937 34.827 32.4288C34.9091 32.3323 34.9806 32.2265 35.062 32.12C35.101 32.0606 35.1515 32.0096 35.2107 31.9702C35.2698 31.9309 35.3362 31.9038 35.406 31.8908C35.4758 31.8778 35.5475 31.879 35.6169 31.8945C35.6862 31.9099 35.7517 31.9393 35.8094 31.9807C35.8677 32.0207 35.9175 32.0718 35.9561 32.1311C35.9946 32.1904 36.0211 32.2568 36.034 32.3264C36.047 32.396 36.0461 32.4674 36.0315 32.5367C36.0168 32.6059 35.9887 32.6716 35.9487 32.7299L35.7062 33.0693C35.462 33.3295 35.2743 33.6376 35.155 33.9743C35.0358 34.3109 34.9874 34.6687 35.0132 35.0251C35.0428 35.3799 35.1465 35.7245 35.3174 36.0366C35.4883 36.3487 35.7227 36.6215 36.0054 36.8371C36.3778 37.1471 36.6845 37.5288 36.9072 37.9596C37.13 38.3904 37.2644 38.8615 37.3024 39.3452C37.3396 39.8243 37.2803 40.3059 37.1278 40.7615C36.9754 41.217 36.733 41.6371 36.4151 41.9967ZM44.2734 56.749C44.181 56.857 44.0504 56.9247 43.9091 56.938L40.3882 57.2176C40.2453 57.2289 40.1036 57.1836 39.9936 57.0913C39.8836 56.999 39.8141 56.8671 39.8001 56.7241C39.7886 56.579 39.835 56.4354 39.9292 56.3247C40.0233 56.2141 40.1575 56.1455 40.3022 56.134L43.2776 55.8977L42.4177 45.8218C42.4063 45.6785 42.4515 45.5365 42.5435 45.4263C42.6356 45.316 42.7672 45.2465 42.9099 45.2325C42.981 45.2256 43.0527 45.2329 43.1209 45.254C43.1891 45.2752 43.2525 45.3097 43.3072 45.3556C43.362 45.4016 43.407 45.458 43.4398 45.5216C43.4726 45.5852 43.4923 45.6547 43.498 45.7261L44.4005 56.3388C44.408 56.4122 44.4005 56.4864 44.3787 56.5569C44.3569 56.6274 44.321 56.6928 44.2734 56.749Z" fill="#002F98"/>
<path d="M18.7227 14.5186L18.3935 10.373L18.0651 6.23741L15.4468 6.44531L15.7752 10.5809L16.1043 14.7265L18.7227 14.5186Z" fill="#002F98"/>
<path d="M41.6541 12.6988L40.9965 4.41759L38.3782 4.62549L38.7065 8.76112L39.0357 12.9067L41.6541 12.6988Z" fill="#002F98"/>
<path d="M23.1877 13.3335C23.8796 14.2091 24.7759 14.9006 25.7974 15.3469C26.8189 15.7932 27.9343 15.9805 29.0449 15.8923C30.1556 15.8041 31.2274 15.4431 32.1657 14.8412C33.104 14.2394 33.8799 13.4151 34.4249 12.4412C30.7481 13.3201 26.9572 13.6211 23.1877 13.3335Z" fill="#002F98"/>
<path d="M14.4281 8.1767L7.20776 8.75L7.31196 10.0623L14.5323 9.48896L14.4281 8.1767Z" fill="#002F98"/>
<path d="M49.6137 5.38324L42.3933 5.95654L42.4975 7.26881L49.7179 6.69551L49.6137 5.38324Z" fill="#002F98"/>
<path d="M37.4289 6.35123L19.259 7.79395L19.3632 9.10621L37.5331 7.6635L37.4289 6.35123Z" fill="#002F98"/>
</svg>
