<svg width="118" height="127" viewBox="0 0 118 127" fill="none" xmlns="http://www.w3.org/2000/svg">
<path d="M82.2205 26.4302L75.0449 27C74.7636 27.0223 74.4848 26.9317 74.27 26.748C74.0552 26.5644 73.922 26.3028 73.8996 26.0208L73.6678 23.1013L69.4242 23.4382C68.3614 26.0165 66.6079 28.2496 64.3574 29.8908C62.1069 31.5319 59.4472 32.5172 56.6723 32.7375C53.8975 32.9578 51.1157 32.4046 48.6344 31.1392C46.1532 29.8738 44.0691 27.9453 42.6127 25.5671L38.3498 25.9056L38.5817 28.8251C38.6038 29.1038 38.516 29.38 38.337 29.5943C38.1579 29.8087 37.9021 29.944 37.6245 29.9712L30.4297 30.5425C30.1513 30.5595 29.8773 30.4662 29.6667 30.2828C29.4561 30.0994 29.3258 29.8404 29.3037 29.5617L29.0719 26.6422C28.1123 26.713 27.1917 27.0511 26.4136 27.6182C25.6356 28.1853 25.0311 28.9589 24.6682 29.852L12.1608 60.3213L26.8952 64.9882L30.2162 56.4556L29.7695 50.8293C29.7475 50.5524 29.8362 50.2782 30.016 50.0669C30.1958 49.8556 30.452 49.7245 30.7282 49.7026C31.0045 49.6806 31.2781 49.7696 31.489 49.9499C31.6999 50.1302 31.8307 50.387 31.8527 50.6639L32.3132 56.4642L36.788 117.221L89.736 113.017L84.5669 52.3152L84.1063 46.5149C84.0843 46.238 84.1731 45.9638 84.3528 45.7525C84.5326 45.5411 84.7888 45.4101 85.0651 45.3882C85.3431 45.366 85.6187 45.4542 85.8326 45.6337C86.0465 45.8132 86.1817 46.0697 86.2089 46.348L86.6556 51.9743L91.2816 59.8759L105.076 52.9438L87.9166 24.83C87.4173 24.0053 86.6983 23.3368 85.8405 22.8996C84.9827 22.4624 84.0202 22.2739 83.0615 22.3554L83.2933 25.2749C83.3057 25.423 83.2871 25.5721 83.2386 25.7126C83.1902 25.853 83.1129 25.9817 83.0119 26.0905C82.9109 26.1993 82.7883 26.2857 82.652 26.3442C82.5157 26.4027 82.3688 26.432 82.2205 26.4302ZM26.9696 37.5685L21.2438 51.5063C21.1689 51.6828 21.0471 51.8353 20.8917 51.9471C20.7363 52.0589 20.5533 52.1258 20.3625 52.1405C20.1969 52.1612 20.0287 52.1412 19.8726 52.0821C19.6167 51.9735 19.4133 51.7689 19.3058 51.512C19.1984 51.2552 19.1954 50.9664 19.2975 50.7074L25.0234 36.7696C25.075 36.641 25.1515 36.524 25.2486 36.4253C25.3456 36.3265 25.4613 36.2481 25.5889 36.1945C25.7164 36.141 25.8533 36.1133 25.9917 36.1132C26.13 36.1131 26.2669 36.1405 26.3946 36.1938C26.5229 36.2456 26.6398 36.3223 26.7383 36.4197C26.8369 36.517 26.9152 36.633 26.9686 36.7608C27.0221 36.8887 27.0498 37.026 27.0499 37.1646C27.0501 37.3032 27.0228 37.4405 26.9696 37.5685ZM52.3245 82.8534C51.9187 83.3651 51.5722 83.9213 51.2915 84.5114C51.2177 84.69 51.0969 84.8452 50.942 84.9603C50.787 85.0754 50.6037 85.1461 50.4117 85.1649C50.2415 85.1818 50.07 85.148 49.9187 85.0678C49.7894 85.0145 49.672 84.9358 49.5736 84.8362C49.4752 84.7366 49.3977 84.6182 49.3457 84.4881C49.2938 84.358 49.2684 84.2187 49.2711 84.0786C49.2738 83.9385 49.3045 83.8003 49.3615 83.6723C49.7142 82.9476 50.1411 82.2617 50.6353 81.6256C51.112 81.1247 51.4785 80.5291 51.7109 79.8772C51.9434 79.2253 52.0367 78.5316 51.9847 77.8412C51.9248 77.1489 51.7222 76.4766 51.3898 75.8667C51.0574 75.2567 50.6023 74.7226 50.0535 74.2979C49.3276 73.7007 48.73 72.9622 48.2967 72.1272C47.8634 71.2921 47.6035 70.3778 47.5326 69.4394C47.4572 68.4988 47.5707 67.5529 47.8663 66.6572C48.1619 65.7615 48.6336 64.9344 49.2537 64.2247C49.4134 64.0369 49.5524 63.8312 49.7107 63.6241C49.7865 63.5085 49.8849 63.4094 49.9998 63.3328C50.1148 63.2562 50.2441 63.2036 50.3798 63.1783C50.5156 63.153 50.655 63.1555 50.7898 63.1855C50.9247 63.2155 51.052 63.2725 51.1644 63.3531C51.2777 63.4309 51.3746 63.5303 51.4495 63.6457C51.5245 63.7611 51.576 63.8901 51.6012 64.0254C51.6264 64.1608 51.6247 64.2997 51.5962 64.4344C51.5678 64.569 51.5131 64.6968 51.4353 64.8102L50.9637 65.4703C50.4914 65.977 50.1294 66.5767 49.9006 67.2312C49.6719 67.8858 49.5815 68.5809 49.6351 69.2724C49.689 69.9614 49.887 70.6314 50.2161 71.2388C50.5453 71.8462 50.9982 72.3774 51.5455 72.798C52.2698 73.4009 52.8661 74.1432 53.2994 74.981C53.7326 75.8188 53.994 76.7351 54.068 77.6757C54.1408 78.6121 54.0239 79.5535 53.7243 80.4433C53.4246 81.3331 52.9485 82.153 52.3245 82.8534ZM60.5905 72.0603C61.3181 72.6603 61.9167 73.4019 62.3503 74.2403C62.7838 75.0787 63.0432 75.9965 63.1129 76.9381C63.1956 77.8763 63.0854 78.8214 62.7891 79.715C62.4928 80.6087 62.0167 81.4318 61.3903 82.1336C60.918 82.6403 60.556 83.24 60.3273 83.8945C60.0985 84.549 60.0081 85.2441 60.0617 85.9357C60.0788 86.2147 59.9858 86.4894 59.8029 86.7004C59.62 86.9114 59.3617 87.042 59.0837 87.064C58.8074 87.086 58.5338 86.9969 58.3229 86.8166C58.112 86.6363 57.9812 86.3795 57.9592 86.1026C57.8817 85.1602 57.996 84.212 58.2952 83.3153C58.5944 82.4187 59.0722 81.5923 59.6996 80.8864C60.1737 80.3847 60.5371 79.7887 60.7663 79.137C60.9954 78.4853 61.0852 77.7924 61.0297 77.1035C60.9735 76.4122 60.7745 75.7401 60.4454 75.1298C60.1162 74.5196 59.6641 73.9846 59.1178 73.5587C58.386 72.9658 57.783 72.2289 57.3461 71.3936C56.9092 70.5582 56.6476 69.6421 56.5775 68.7017C56.5001 67.7593 56.6144 66.8111 56.9135 65.9144C57.2127 65.0178 57.6905 64.1914 58.3179 63.4855C58.792 62.9838 59.1554 62.3878 59.3846 61.7361C59.6138 61.0843 59.7035 60.3915 59.648 59.7027C59.6261 59.4258 59.7147 59.1515 59.8945 58.9402C60.0743 58.7289 60.3305 58.5978 60.6068 58.5759C60.883 58.5539 61.1567 58.6429 61.3676 58.8232C61.5785 59.0035 61.7092 59.2603 61.7312 59.5372C61.8139 60.4754 61.7038 61.4205 61.4075 62.3141C61.1112 63.2078 60.6351 64.0309 60.0086 64.7327C59.5363 65.2394 59.1743 65.8391 58.9456 66.4936C58.7169 67.1481 58.6265 67.8432 58.6801 68.5348C58.734 69.2238 58.932 69.8938 59.2611 70.5012C59.5902 71.1086 60.0432 71.6398 60.5905 72.0603ZM73.5539 111.383L70.9884 111.587C70.7122 111.609 70.4385 111.52 70.2276 111.34C70.0168 111.159 69.886 110.903 69.864 110.626C69.8418 110.347 69.9297 110.071 70.1087 109.856C70.2877 109.642 70.5435 109.507 70.8211 109.48L73.4637 109.27C73.7421 109.253 74.016 109.346 74.2266 109.529C74.4372 109.713 74.5676 109.972 74.5897 110.25C74.6015 110.394 74.5836 110.539 74.5369 110.675C74.4903 110.812 74.4161 110.937 74.3188 111.044C74.2216 111.15 74.1034 111.235 73.9717 111.294C73.8401 111.352 73.6979 111.383 73.5539 111.383ZM70.8226 81.3846C70.4169 81.8964 70.0702 82.4526 69.7895 83.0426C69.7158 83.2213 69.595 83.3764 69.44 83.4916C69.2851 83.6067 69.1018 83.6774 68.9098 83.6961C68.7395 83.713 68.5681 83.6792 68.4168 83.5991C68.2885 83.5473 68.1716 83.4706 68.0731 83.3733C67.9745 83.276 67.8963 83.16 67.8428 83.0321C67.7893 82.9042 67.7616 82.7669 67.7615 82.6283C67.7613 82.4896 67.7886 82.3524 67.8418 82.2244C68.1945 81.4998 68.6214 80.8138 69.1157 80.1777C69.5924 79.6768 69.9588 79.081 70.1913 78.4292C70.4237 77.7773 70.5169 77.0837 70.465 76.3933C70.4051 75.701 70.2025 75.0287 69.8701 74.4188C69.5377 73.8089 69.0827 73.2746 68.5338 72.8499C67.8079 72.2527 67.2103 71.5144 66.777 70.6793C66.3437 69.8443 66.0837 68.9299 66.0128 67.9915C65.9374 67.051 66.051 66.1049 66.3466 65.2092C66.6422 64.3136 67.114 63.4865 67.734 62.7768C67.8938 62.589 68.0328 62.3834 68.191 62.1762C68.2668 62.0606 68.3652 61.9615 68.4802 61.8849C68.5952 61.8083 68.7244 61.7558 68.8602 61.7304C68.9959 61.7051 69.1354 61.7075 69.2702 61.7376C69.405 61.7676 69.5324 61.8246 69.6447 61.9052C69.758 61.983 69.8549 62.0824 69.9299 62.1978C70.0048 62.3131 70.0563 62.4422 70.0815 62.5775C70.1066 62.7129 70.105 62.8518 70.0765 62.9865C70.048 63.1212 69.9934 63.2489 69.9156 63.3623L69.444 64.0224C68.9691 64.5284 68.604 65.1276 68.372 65.7824C68.14 66.4371 68.046 67.133 68.0961 67.8261C68.1538 68.516 68.3554 69.1862 68.6878 69.7932C69.0202 70.4003 69.4761 70.9307 70.0258 71.3501C70.7501 71.9531 71.3465 72.6953 71.7797 73.5331C72.213 74.3709 72.4743 75.2872 72.5483 76.2279C72.6206 77.1596 72.5052 78.0964 72.2087 78.9823C71.9122 79.8682 71.4408 80.6853 70.8226 81.3846ZM86.1056 110.075C85.926 110.285 85.672 110.417 85.3972 110.443L78.5497 110.987C78.2716 111.009 77.996 110.921 77.7821 110.741C77.5682 110.561 77.4331 110.305 77.4059 110.027C77.3835 109.745 77.4738 109.465 77.6569 109.25C77.84 109.035 78.101 108.902 78.3823 108.879L84.169 108.42L82.4966 88.8238C82.4744 88.5451 82.5623 88.2688 82.7413 88.0545C82.9203 87.8402 83.1762 87.7049 83.4539 87.6778C83.592 87.6642 83.7316 87.6784 83.8642 87.7195C83.9969 87.7606 84.1201 87.8277 84.2266 87.9171C84.3331 88.0065 84.4207 88.1162 84.4844 88.2399C84.5481 88.3636 84.5866 88.4988 84.5976 88.6375L86.3529 109.277C86.3674 109.42 86.3529 109.565 86.3104 109.702C86.2679 109.839 86.1983 109.966 86.1056 110.075Z" fill="white"/>
<path d="M36.4101 27.9443L35.77 19.8819L35.1313 11.8388L30.0391 12.2432L30.6777 20.2862L31.3179 28.3487L36.4101 27.9443Z" fill="white"/>
<path d="M81.0117 24.4053L79.7329 8.29977L74.6406 8.7041L75.2793 16.7472L75.9194 24.8096L81.0117 24.4053Z" fill="white"/>
<path d="M45.0938 25.6396C46.4393 27.3426 48.1823 28.6874 50.169 29.5554C52.1557 30.4233 54.3249 30.7876 56.485 30.616C58.645 30.4445 60.7295 29.7425 62.5544 28.5719C64.3792 27.4014 65.8882 25.7983 66.9481 23.9044C59.7973 25.6135 52.4246 26.1989 45.0938 25.6396Z" fill="white"/>
<path d="M28.0579 15.6106L14.0156 16.7256L14.2183 19.2777L28.2606 18.1627L28.0579 15.6106Z" fill="white"/>
<path d="M96.4876 10.178L82.4453 11.293L82.648 13.8451L96.6903 12.7301L96.4876 10.178Z" fill="white"/>
<path d="M72.7904 12.0604L37.4531 14.8662L37.6558 17.4183L72.993 14.6125L72.7904 12.0604Z" fill="white"/>
<path d="M90.1138 113.794C85.3327 92.9329 84.4081 59.848 84.5434 45.9132L97.1351 99.9153L90.1138 113.794Z" fill="#01B2FE"/>
<path d="M36.9626 119.684C38.3481 97.8251 34.0004 64.245 31.6533 50.1874L27.8556 106.81L36.9626 119.684Z" fill="#01B2FE"/>
</svg>
