<svg width="60" height="58" viewBox="0 0 60 58" fill="none" xmlns="http://www.w3.org/2000/svg">
<path d="M25.7879 39.8524C26.4249 39.8395 27.0438 39.6376 27.5663 39.2721C28.0888 38.9066 28.4915 38.394 28.7234 37.799C28.9552 37.2041 29.0059 36.5536 28.869 35.9297C28.732 35.3059 28.4137 34.7367 27.9541 34.2942C27.4946 33.8517 26.9145 33.5558 26.2872 33.4438C25.6599 33.3318 25.0136 33.4088 24.43 33.6651C23.8464 33.9214 23.3517 34.3454 23.0085 34.8836C22.6653 35.4217 22.4891 36.0498 22.5019 36.6884C22.5192 37.5448 22.8751 38.3592 23.4914 38.9526C24.1076 39.5459 24.9337 39.8696 25.7879 39.8524ZM25.6858 34.7937C25.8139 34.7911 25.9379 34.8396 26.0303 34.9286C26.1227 35.0176 26.1762 35.1398 26.1787 35.2683C26.1813 35.3967 26.1329 35.5209 26.0441 35.6136C25.9553 35.7063 25.8335 35.7598 25.7054 35.7623C25.4681 35.7671 25.2424 35.8662 25.0781 36.0378C24.9137 36.2094 24.824 36.4395 24.8288 36.6773C24.8314 36.8058 24.783 36.93 24.6942 37.0227C24.6055 37.1153 24.4836 37.1689 24.3555 37.1714C24.2273 37.174 24.1034 37.1255 24.011 37.0365C23.9186 36.9475 23.8652 36.8253 23.8626 36.6968C23.8475 36.4493 23.8837 36.2014 23.969 35.9687C24.0543 35.7359 24.1868 35.5234 24.3581 35.3446C24.5294 35.1658 24.7358 35.0245 24.9643 34.9297C25.1929 34.8348 25.4385 34.7885 25.6858 34.7937Z" fill="#002F98"/>
<path d="M36.4469 26.9319C36.9573 26.9233 37.4537 26.763 37.8731 26.4713C38.2925 26.1796 38.6159 25.7695 38.8025 25.2932C38.9891 24.8169 39.0304 24.2957 38.9212 23.7957C38.8119 23.2958 38.557 22.8397 38.1888 22.4852C37.8206 22.1307 37.3557 21.8937 36.853 21.8045C36.3504 21.7152 35.8326 21.7776 35.3654 21.9837C34.8982 22.1898 34.5026 22.5304 34.2287 22.9623C33.9549 23.3942 33.8151 23.8979 33.8272 24.4095C33.8434 25.0914 34.1278 25.7393 34.6186 26.2119C35.1094 26.6844 35.7666 26.9432 36.4469 26.9319ZM36.3654 22.8957C36.4936 22.8931 36.6175 22.9416 36.7099 23.0306C36.8024 23.1196 36.8557 23.2418 36.8583 23.3703C36.8609 23.4987 36.8125 23.6229 36.7237 23.7156C36.635 23.8082 36.5131 23.8618 36.385 23.8644C36.2545 23.867 36.1304 23.9215 36.04 24.0159C35.9495 24.1103 35.9002 24.2368 35.9029 24.3676C35.9055 24.496 35.8571 24.6203 35.7683 24.7129C35.6795 24.8056 35.5577 24.8591 35.4296 24.8617C35.3006 24.8643 35.1757 24.8161 35.0819 24.7274C34.988 24.6386 34.9326 24.5165 34.9277 24.3873C34.9222 23.9987 35.0703 23.6237 35.3397 23.3442C35.6091 23.0647 35.9778 22.9035 36.3654 22.8957Z" fill="#002F98"/>
<path d="M44.2053 37.0664C44.233 38.4387 44.3262 39.9533 44.4488 41.5928C46.0634 40.8783 47.5611 40.1392 48.96 39.3841C47.4182 38.5257 45.831 37.752 44.2053 37.0664Z" fill="#002F98"/>
<path d="M57.3283 30.9608C56.3941 29.0236 51.3943 28.308 44.294 29.0615C44.1941 31.208 44.1355 33.6229 44.1745 36C46.1647 36.8129 48.0976 37.7602 49.96 38.8353C53.9066 36.5931 56.5028 34.4052 57.2637 32.6401C57.4001 32.3832 57.4768 32.0987 57.488 31.8079C57.4992 31.5171 57.4446 31.2275 57.3283 30.9608Z" fill="#002F98"/>
<path d="M17.3173 43.236C17.3808 43.2369 17.4435 43.2508 17.5015 43.2769C17.5595 43.3031 17.6116 43.3408 17.6545 43.3879C17.6974 43.4349 17.7302 43.4903 17.7509 43.5506C17.7716 43.6108 17.7798 43.6747 17.7749 43.7383C17.702 45.4446 17.5861 47.2415 17.453 49.0747C21.891 48.5442 26.2811 47.6696 30.5841 46.4587C29.6847 46.2436 28.6955 46.0123 27.7507 45.7622C21.9942 44.3663 16.4425 42.2283 11.2342 39.4017C7.21688 41.6902 4.54181 43.9605 3.87105 45.7597C3.76967 45.9988 3.71998 46.2566 3.72522 46.5164C3.73046 46.7761 3.79052 47.0318 3.90146 47.2665C4.83398 49.1231 9.51296 49.908 16.4716 49.2291C16.6123 47.333 16.7273 45.4912 16.8083 43.7398C16.8041 43.672 16.8144 43.604 16.8386 43.5406C16.8628 43.4771 16.9002 43.4195 16.9484 43.3718C16.9967 43.3241 17.0545 43.2872 17.1182 43.2638C17.1818 43.2404 17.2497 43.2309 17.3173 43.236Z" fill="#002F98"/>
<path d="M6.79946 32.8952C6.70739 33.1267 6.6694 33.3762 6.68838 33.6247C6.70736 33.8732 6.78282 34.114 6.90898 34.3287C7.46932 35.4839 8.98237 36.8352 11.248 38.2251C12.9239 37.3 14.803 36.3857 16.8851 35.4823C16.8521 33.8498 16.7299 32.2282 16.6096 30.7052C11.1461 30.5194 7.48388 31.3291 6.79946 32.8952Z" fill="#002F98"/>
<path d="M21.6803 19.8897C21.9351 19.8845 22.1827 19.8038 22.3917 19.6576C22.6007 19.5114 22.7617 19.3063 22.8545 19.0684C22.9472 18.8304 22.9675 18.5702 22.9127 18.3206C22.8579 18.0711 22.7306 17.8434 22.5468 17.6664C22.3629 17.4894 22.1309 17.371 21.88 17.3263C21.6291 17.2815 21.3706 17.3123 21.1371 17.4148C20.9037 17.5173 20.7058 17.6869 20.5685 17.9022C20.4313 18.1174 20.3608 18.3686 20.3659 18.6241C20.3752 18.9659 20.5182 19.2903 20.7642 19.5271C21.0102 19.764 21.3393 19.8942 21.6803 19.8897Z" fill="#002F98"/>
<path d="M15.7264 21.9935C15.76 21.8882 15.8278 21.7972 15.919 21.7351C16.0103 21.6731 16.1197 21.6436 16.2297 21.6513C16.3393 21.6623 16.442 21.7099 16.5214 21.7864C16.6008 21.8629 16.6524 21.9638 16.6678 22.0732C16.6693 22.1449 17.6482 28.9626 17.8395 35.7782C17.8464 36.119 17.8533 36.4599 17.8602 36.8007C17.8882 38.1909 17.9199 39.7606 17.8289 41.4583C21.1323 42.8028 24.5184 43.9334 27.9663 44.8429C29.526 45.254 31.0429 45.6122 32.5169 45.9175L33.7982 45.5417C36.3777 44.7448 38.8484 43.8784 41.1749 42.9611C40.9969 40.7932 40.8518 38.4811 40.8092 36.3733C40.8066 36.2425 40.8559 36.116 40.9463 36.0216C41.0367 35.9272 41.1608 35.8727 41.2913 35.8701C41.4203 35.8698 41.5443 35.9203 41.6365 36.0108C41.7287 36.1012 41.7818 36.2243 41.7844 36.3536C41.8253 38.3807 41.9582 40.5315 42.1169 42.628L43.4749 42.0622C43.4662 41.6317 43.404 41.2112 43.3778 40.799L43.3651 40.1711L43.3497 39.4088C43.3459 39.2204 43.3419 39.0231 43.3383 38.8437C43.3347 38.6643 43.3273 38.2965 43.3218 38.0275C43.3164 37.7584 43.3159 37.7315 43.3128 37.579C43.3048 37.1843 43.2969 36.7897 43.2893 36.413L43.2883 36.3681C43.2815 36.0273 43.2746 35.6865 43.2677 35.3456C43.2106 28.5273 43.8868 21.6762 43.8854 21.6045C43.8964 21.4946 43.9438 21.3917 44.0201 21.3121C44.0963 21.2324 44.1971 21.1808 44.3061 21.1653C44.3809 21.1588 44.4562 21.1691 44.5264 21.1957C44.5967 21.2222 44.6601 21.2642 44.712 21.3186C44.7475 21.356 44.7784 21.3975 44.804 21.4424C44.804 21.4424 44.804 21.4424 44.8049 21.4872L46.3895 25.9417C49.343 25.6691 52.155 24.5466 54.487 22.7095C54.3352 22.2819 54.1558 21.8189 53.9674 21.3561L53.8823 21.1335C52.4973 17.6979 50.4081 13.5228 48.8535 10.5572L48.7791 10.4151C48.2859 9.48289 47.8482 8.63928 47.514 8.04484C47.1801 7.43249 46.6222 6.97405 45.9577 6.76621L44.7691 6.41332L36.7434 3.89242C36.1143 5.15915 35.1514 6.22902 33.9589 6.98602C32.7664 7.74303 31.3899 8.1583 29.9786 8.18679C28.5674 8.21528 27.1752 7.8559 25.9531 7.14763C24.7311 6.43937 23.7257 5.40923 23.046 4.16893L13.927 7.341C13.2681 7.57354 12.7255 8.05447 12.4146 8.68161C10.9789 11.6089 7.52683 18.839 6.03904 23.6157C8.45907 25.3671 11.3334 26.3781 14.3143 26.5264L15.7264 21.9935ZM36.2883 20.8067C36.9961 20.7924 37.6923 20.9889 38.2887 21.3712C38.8852 21.7536 39.3552 22.3046 39.6393 22.9547C39.9234 23.6048 40.0088 24.3248 39.8848 25.0235C39.7607 25.7223 39.4328 26.3684 38.9425 26.8803C38.4521 27.3921 37.8213 27.7467 37.1299 27.8992C36.4385 28.0516 35.7175 27.9951 35.0581 27.7367C34.3987 27.4784 33.8306 27.0298 33.4254 26.4478C33.0203 25.8657 32.7964 25.1763 32.7821 24.4667C32.7725 23.9925 32.8567 23.5211 33.0299 23.0798C33.2032 22.6385 33.462 22.236 33.7914 21.8956C34.1207 21.5552 34.5142 21.2836 34.9489 21.0966C35.3836 20.9096 35.851 20.8108 36.3241 20.806L36.2883 20.8067ZM25.6034 32.4271C26.4316 32.4103 27.246 32.6402 27.9439 33.0875C28.6418 33.5349 29.1917 34.1797 29.5241 34.9403C29.8565 35.7009 29.9564 36.5432 29.8113 37.3608C29.6662 38.1783 29.2825 38.9343 28.7088 39.5331C28.1351 40.132 27.3971 40.5469 26.5881 40.7252C25.7792 40.9036 24.9356 40.8374 24.1641 40.5352C23.3926 40.2329 22.7278 39.7081 22.2538 39.0271C21.7798 38.3461 21.5179 37.5395 21.5011 36.7093C21.4911 36.1553 21.5903 35.6048 21.7931 35.0894C21.9958 34.574 22.2981 34.1038 22.6826 33.7059C23.0671 33.308 23.5262 32.9901 24.0336 32.7705C24.5409 32.5509 25.0866 32.434 25.6392 32.4263L25.6034 32.4271ZM21.5736 16.357C22.0195 16.348 22.458 16.4718 22.8338 16.7127C23.2096 16.9536 23.5057 17.3007 23.6847 17.7103C23.8637 18.1199 23.9175 18.5734 23.8394 19.0136C23.7612 19.4538 23.5546 19.8609 23.2457 20.1834C22.9368 20.5059 22.5394 20.7292 22.1038 20.8253C21.6682 20.9213 21.214 20.8857 20.7986 20.7229C20.3831 20.5602 20.0252 20.2776 19.77 19.9109C19.5147 19.5442 19.3736 19.1099 19.3646 18.6628C19.3561 18.3615 19.4078 18.0615 19.5166 17.7805C19.6255 17.4996 19.7893 17.2432 19.9984 17.0266C20.2076 16.8101 20.4578 16.6376 20.7344 16.5194C21.011 16.4012 21.3083 16.3397 21.609 16.3384L21.5736 16.357ZM12.2326 13.8537C12.1576 13.8556 12.0834 13.8386 12.0168 13.8042C11.9007 13.7504 11.8107 13.6528 11.7663 13.5326C11.722 13.4124 11.7269 13.2795 11.7801 13.1629C12.5262 11.5507 13.1964 10.1643 13.6263 9.29422C13.7741 8.99606 14.0332 8.76836 14.3474 8.66052L17.8226 7.45081C17.8837 7.41258 17.9525 7.3885 18.0241 7.38037C18.0956 7.37224 18.1681 7.38027 18.2362 7.40383C18.3043 7.42739 18.3663 7.46589 18.4176 7.51654C18.4689 7.5672 18.5083 7.62872 18.5328 7.69659C18.5574 7.76447 18.5665 7.83699 18.5595 7.90885C18.5525 7.98071 18.5295 8.05008 18.4924 8.11191C18.4552 8.17374 18.4047 8.22645 18.3446 8.26619C18.2845 8.30593 18.2163 8.3317 18.1449 8.34161L14.7322 9.54108C14.6595 9.56637 14.5996 9.61909 14.5651 9.68802C14.1448 10.5938 13.4825 11.9262 12.7364 13.5385C12.6943 13.626 12.6274 13.6992 12.544 13.7488C12.4606 13.7984 12.3645 13.8221 12.2677 13.8171L12.2326 13.8537Z" fill="#002F98"/>
<path d="M16.8988 41.0819C16.9393 39.5377 16.9463 38.1109 16.9206 36.8372L16.9144 36.5323C15.2288 37.2752 13.6599 38.0337 12.2433 38.798C12.7324 39.0843 13.2482 39.361 13.8002 39.6639C14.7673 40.1289 15.8063 40.6104 16.8988 41.0819Z" fill="#002F98"/>
<path d="M44.308 49.6716C44.303 49.6359 44.3022 49.5998 44.3058 49.5639C44.3031 49.4294 44.3006 49.3038 44.2981 49.1783C44.2955 49.0527 44.2941 48.9809 44.2921 48.8823C44.2901 48.7836 44.2426 48.65 44.2134 48.5339C44.2082 48.4983 44.2075 48.4621 44.2113 48.4263L42.7776 48.3475C42.8763 49.2428 42.973 50.0485 43.0582 50.7197C43.0725 50.836 43.0443 50.9535 42.9788 51.0505C42.9132 51.1476 42.8149 51.2175 42.7019 51.2473C41.3666 51.6063 39.9588 51.9218 38.5231 52.1841L38.4515 52.1856C38.3323 52.1852 38.2175 52.1406 38.1291 52.0605C38.0406 51.9804 37.9849 51.8703 37.9725 51.7515C37.9601 51.6326 37.9919 51.5134 38.0619 51.4166C38.1319 51.3199 38.2351 51.2526 38.3516 51.2275C39.6179 50.9956 40.8564 50.7193 42.0407 50.4172C41.9654 49.7906 41.8792 49.0656 41.7916 48.2777C38.7152 47.9973 35.6577 47.5377 32.6345 46.9013C27.6338 48.3806 22.5171 49.4325 17.3391 50.0455C17.354 50.1103 17.3553 50.1775 17.3431 50.2428C17.342 50.4955 17.3232 50.7477 17.2867 50.9977C17.2805 51.1233 17.283 51.2492 17.2944 51.3744C17.2944 51.3744 17.2956 51.4372 17.2963 51.4731C17.2439 51.9766 17.2071 52.3722 17.1861 52.6597C26.2018 55.0739 35.7147 54.8819 44.6256 52.1058C44.6164 51.6484 44.4571 50.853 44.3377 49.8145C44.3215 49.7684 44.3115 49.7203 44.308 49.6716ZM36.3103 52.5249C35.8909 52.5872 35.48 52.6314 35.0692 52.6756C34.9497 52.6683 34.8369 52.6175 34.752 52.5328C34.6672 52.4482 34.6159 52.3354 34.608 52.2156C34.6001 52.0958 34.6361 51.9773 34.7091 51.8822C34.7821 51.787 34.8872 51.7218 35.0048 51.6988C35.4074 51.6907 35.8174 51.6106 36.2279 51.5485C36.3555 51.5333 36.4839 51.5686 36.5859 51.6471C36.6878 51.7255 36.7551 51.8407 36.7734 51.9682C36.7835 52.0345 36.7797 52.1021 36.7624 52.1669C36.745 52.2316 36.7144 52.2921 36.6726 52.3444C36.6307 52.3967 36.5785 52.4397 36.5192 52.4707C36.4599 52.5017 36.3949 52.5201 36.3281 52.5246L36.3103 52.5249Z" fill="#002F98"/>
<path d="M34.565 46.3058C37.1076 46.7838 39.468 47.1041 41.629 47.3027C41.5186 46.2641 41.3974 45.1359 41.2929 43.9536C39.1617 44.7863 36.94 45.5759 34.565 46.3058Z" fill="#002F98"/>
<path d="M49.9466 39.9574C48.2201 40.8895 46.3057 41.8255 44.2481 42.7643C43.6005 43.0466 42.9437 43.32 42.269 43.5939C42.3858 44.9464 42.5103 46.236 42.6412 47.3999L44.048 47.4792C43.9277 46.3959 43.8165 45.3214 43.7239 44.2824C43.7118 44.1541 43.751 44.0263 43.833 43.927C43.9149 43.8278 44.0328 43.7652 44.1607 43.7531C44.2887 43.741 44.4162 43.7803 44.5152 43.8625C44.6142 43.9446 44.6766 44.0628 44.6887 44.1911C44.7909 45.2658 44.903 46.3851 45.0334 47.5221C50.3077 47.6489 53.7726 46.8163 54.4402 45.3043C54.5224 45.1045 54.5626 44.8899 54.5583 44.6738C54.5539 44.4577 54.5051 44.2449 54.4149 44.0486C53.8889 42.8209 52.3208 41.4079 49.9466 39.9574Z" fill="#002F98"/>
</svg>
