<svg width="118" height="127" viewBox="0 0 118 127" fill="none" xmlns="http://www.w3.org/2000/svg">
<path d="M82.219 26.4303L75.0435 27.0001C74.7621 27.0224 74.4834 26.9318 74.2686 26.7481C74.0538 26.5645 73.9206 26.3029 73.8982 26.0209L73.6664 23.1014L69.4228 23.4383C68.3599 26.0166 66.6064 28.2497 64.3559 29.8909C62.1054 31.532 59.4457 32.5173 56.6709 32.7376C53.8961 32.9579 51.1143 32.4048 48.633 31.1393C46.1517 29.8739 44.0676 27.9454 42.6112 25.5672L38.3484 25.9057L38.5802 28.8252C38.6024 29.1039 38.5145 29.3801 38.3355 29.5944C38.1565 29.8088 37.9006 29.9441 37.623 29.9713L30.4283 30.5426C30.1499 30.5596 29.8759 30.4663 29.6653 30.2829C29.4547 30.0995 29.3243 29.8406 29.3022 29.5618L29.0704 26.6423C28.1109 26.7132 27.1902 27.0512 26.4121 27.6183C25.6341 28.1854 25.0296 28.959 24.6668 29.8521L12.1594 60.3214L26.8937 64.9884L30.2148 56.4558L29.768 50.8295C29.746 50.5526 29.8347 50.2783 30.0145 50.067C30.1943 49.8557 30.4505 49.7246 30.7267 49.7027C31.003 49.6807 31.2767 49.7697 31.4876 49.95C31.6984 50.1303 31.8292 50.3871 31.8512 50.664L32.3118 56.4643L36.7865 117.221L89.7346 113.017L84.5654 52.3153L84.1048 46.515C84.0829 46.2381 84.1716 45.9639 84.3514 45.7526C84.5312 45.5412 84.7874 45.4102 85.0636 45.3883C85.3417 45.3661 85.6172 45.4543 85.8312 45.6338C86.0451 45.8133 86.1802 46.0698 86.2074 46.3481L86.6541 51.9744L91.2801 59.876L105.074 52.9439L87.9151 24.8301C87.4158 24.0055 86.6968 23.3369 85.839 22.8997C84.9812 22.4625 84.0188 22.274 83.06 22.3555L83.2919 25.275C83.3042 25.4231 83.2856 25.5722 83.2372 25.7127C83.1887 25.8531 83.1115 25.9818 83.0104 26.0906C82.9094 26.1994 82.7868 26.2858 82.6505 26.3443C82.5142 26.4028 82.3673 26.4321 82.219 26.4303ZM26.9682 37.5686L21.2423 51.5064C21.1675 51.6829 21.0457 51.8354 20.8903 51.9472C20.7348 52.059 20.5518 52.1259 20.361 52.1406C20.1954 52.1614 20.0272 52.1413 19.8711 52.0822C19.6152 51.9736 19.4118 51.769 19.3044 51.5121C19.1969 51.2553 19.1939 50.9665 19.2961 50.7075L25.0219 36.7698C25.0735 36.6411 25.15 36.5241 25.2471 36.4254C25.3442 36.3266 25.4598 36.2482 25.5874 36.1946C25.7149 36.1411 25.8519 36.1134 25.9902 36.1133C26.1285 36.1132 26.2654 36.1406 26.3931 36.1939C26.5215 36.2457 26.6383 36.3224 26.7369 36.4198C26.8354 36.5171 26.9137 36.6331 26.9672 36.7609C27.0207 36.8888 27.0483 37.0261 27.0485 37.1647C27.0486 37.3034 27.0213 37.4406 26.9682 37.5686ZM52.323 82.8535C51.9173 83.3652 51.5707 83.9214 51.29 84.5115C51.2163 84.6901 51.0955 84.8453 50.9405 84.9604C50.7855 85.0756 50.6023 85.1462 50.4102 85.165C50.24 85.1819 50.0685 85.1481 49.9173 85.0679C49.7879 85.0146 49.6706 84.9359 49.5721 84.8363C49.4737 84.7367 49.3962 84.6183 49.3443 84.4882C49.2923 84.3581 49.2669 84.2189 49.2696 84.0787C49.2724 83.9386 49.3031 83.8004 49.36 83.6724C49.7127 82.9478 50.1396 82.2618 50.6339 81.6257C51.1106 81.1248 51.477 80.5292 51.7095 79.8773C51.9419 79.2254 52.0352 78.5317 51.9833 77.8413C51.9233 77.149 51.7207 76.4767 51.3883 75.8668C51.0559 75.2569 50.6009 74.7227 50.052 74.298C49.3261 73.7008 48.7285 72.9623 48.2952 72.1273C47.8619 71.2922 47.602 70.3779 47.5311 69.4395C47.4558 68.4989 47.5692 67.553 47.8648 66.6573C48.1604 65.7616 48.6322 64.9345 49.2522 64.2248C49.412 64.037 49.551 63.8314 49.7092 63.6242C49.785 63.5086 49.8834 63.4095 49.9984 63.3329C50.1133 63.2563 50.2426 63.2038 50.3784 63.1784C50.5141 63.1531 50.6536 63.1556 50.7884 63.1856C50.9232 63.2156 51.0506 63.2726 51.1629 63.3532C51.2762 63.431 51.3731 63.5304 51.4481 63.6458C51.523 63.7612 51.5746 63.8902 51.5997 64.0255C51.6249 64.1609 51.6232 64.2998 51.5948 64.4345C51.5663 64.5692 51.5116 64.6969 51.4339 64.8104L50.9622 65.4704C50.4899 65.9771 50.1279 66.5768 49.8992 67.2314C49.6705 67.8859 49.58 68.581 49.6336 69.2725C49.6876 69.9615 49.8855 70.6315 50.2147 71.2389C50.5438 71.8463 50.9967 72.3775 51.544 72.7981C52.2683 73.4011 52.8647 74.1433 53.2979 74.9811C53.7312 75.8189 53.9925 76.7352 54.0665 77.6759C54.1394 78.6122 54.0224 79.5537 53.7228 80.4434C53.4232 81.3332 52.947 82.1531 52.323 82.8535ZM60.589 72.0604C61.3166 72.6604 61.9152 73.402 62.3488 74.2404C62.7824 75.0788 63.0418 75.9966 63.1114 76.9382C63.1941 77.8764 63.0839 78.8215 62.7876 79.7151C62.4913 80.6088 62.0152 81.4319 61.3888 82.1337C60.9165 82.6404 60.5545 83.2401 60.3258 83.8946C60.0971 84.5491 60.0067 85.2442 60.0602 85.9358C60.0773 86.2148 59.9844 86.4895 59.8014 86.7005C59.6185 86.9115 59.3603 87.0421 59.0822 87.0641C58.806 87.0861 58.5323 86.997 58.3214 86.8167C58.1105 86.6365 57.9797 86.3796 57.9577 86.1027C57.8802 85.1603 57.9946 84.2121 58.2937 83.3154C58.5929 82.4188 59.0707 81.5924 59.6981 80.8865C60.1722 80.3848 60.5356 79.7888 60.7648 79.1371C60.994 78.4854 61.0837 77.7925 61.0282 77.1036C60.972 76.4123 60.773 75.7402 60.4439 75.1299C60.1148 74.5197 59.6626 73.9847 59.1163 73.5588C58.3845 72.9659 57.7815 72.229 57.3447 71.3937C56.9078 70.5584 56.6462 69.6422 56.576 68.7018C56.4986 67.7594 56.6129 66.8112 56.9121 65.9145C57.2113 65.0179 57.6891 64.1915 58.3165 63.4856C58.7905 62.9839 59.154 62.3879 59.3831 61.7362C59.6123 61.0844 59.702 60.3916 59.6466 59.7028C59.6246 59.4259 59.7133 59.1516 59.8931 58.9403C60.0729 58.729 60.3291 58.5979 60.6053 58.576C60.8816 58.5541 61.1552 58.643 61.3661 58.8233C61.577 59.0036 61.7078 59.2605 61.7298 59.5374C61.8124 60.4755 61.7023 61.4206 61.406 62.3142C61.1097 63.2079 60.6336 64.031 60.0072 64.7328C59.5349 65.2395 59.1729 65.8392 58.9441 66.4937C58.7154 67.1482 58.625 67.8433 58.6786 68.5349C58.7325 69.2239 58.9305 69.8939 59.2596 70.5013C59.5888 71.1087 60.0417 71.6399 60.589 72.0604ZM73.5524 111.383L70.987 111.587C70.7107 111.609 70.4371 111.52 70.2262 111.34C70.0153 111.159 69.8845 110.903 69.8625 110.626C69.8403 110.347 69.9282 110.071 70.1072 109.856C70.2862 109.642 70.542 109.507 70.8196 109.48L73.4622 109.27C73.7406 109.253 74.0146 109.346 74.2252 109.529C74.4358 109.713 74.5661 109.972 74.5882 110.25C74.6 110.394 74.5821 110.539 74.5355 110.676C74.4889 110.812 74.4146 110.938 74.3174 111.044C74.2201 111.15 74.1019 111.235 73.9703 111.294C73.8386 111.352 73.6964 111.383 73.5524 111.383ZM70.8211 81.3847C70.4154 81.8965 70.0688 82.4527 69.7881 83.0427C69.7143 83.2214 69.5935 83.3766 69.4386 83.4917C69.2836 83.6068 69.1003 83.6775 68.9083 83.6962C68.7381 83.7131 68.5666 83.6793 68.4153 83.5992C68.287 83.5474 68.1701 83.4707 68.0716 83.3734C67.9731 83.2761 67.8948 83.1601 67.8413 83.0322C67.7878 82.9043 67.7602 82.767 67.76 82.6284C67.7598 82.4897 67.7872 82.3525 67.8403 82.2245C68.1931 81.4999 68.6199 80.8139 69.1142 80.1778C69.5909 79.6769 69.9574 79.0812 70.1898 78.4293C70.4223 77.7774 70.5155 77.0838 70.4636 76.3934C70.4036 75.7011 70.2011 75.0288 69.8687 74.4189C69.5362 73.809 69.0812 73.2747 68.5324 72.85C67.8065 72.2528 67.2088 71.5145 66.7756 70.6794C66.3423 69.8444 66.0822 68.93 66.0114 67.9916C65.936 67.0511 66.0495 66.105 66.3451 65.2093C66.6408 64.3137 67.1125 63.4866 67.7325 62.7769C67.8923 62.5891 68.0313 62.3835 68.1895 62.1763C68.2654 62.0607 68.3637 61.9616 68.4787 61.885C68.5937 61.8084 68.723 61.7559 68.8587 61.7306C68.9945 61.7052 69.1339 61.7076 69.2687 61.7377C69.4035 61.7677 69.5309 61.8247 69.6432 61.9053C69.7566 61.9831 69.8535 62.0825 69.9284 62.1979C70.0034 62.3132 70.0548 62.4423 70.08 62.5777C70.1052 62.713 70.1035 62.852 70.075 62.9866C70.0466 63.1213 69.9919 63.249 69.9141 63.3624L69.4425 64.0225C68.9676 64.5285 68.6026 65.1277 68.3706 65.7825C68.1386 66.4372 68.0445 67.1331 68.0946 67.8262C68.1523 68.5161 68.3539 69.1863 68.6863 69.7933C69.0187 70.4004 69.4746 70.9308 70.0244 71.3502C70.7486 71.9532 71.345 72.6954 71.7783 73.5332C72.2115 74.371 72.4728 75.2873 72.5468 76.228C72.6192 77.1597 72.5037 78.0965 72.2073 78.9824C71.9108 79.8684 71.4394 80.6854 70.8211 81.3847ZM86.1042 110.075C85.9245 110.285 85.6705 110.417 85.3957 110.443L78.5482 110.987C78.2701 111.009 77.9946 110.921 77.7807 110.741C77.5667 110.562 77.4316 110.305 77.4044 110.027C77.382 109.745 77.4723 109.465 77.6554 109.25C77.8385 109.035 78.0995 108.902 78.3809 108.879L84.1675 108.42L82.4951 88.824C82.473 88.5452 82.5608 88.269 82.7398 88.0546C82.9188 87.8403 83.1748 87.705 83.4524 87.6779C83.5906 87.6643 83.7301 87.6785 83.8628 87.7196C83.9955 87.7607 84.1186 87.8278 84.2251 87.9172C84.3316 88.0066 84.4192 88.1163 84.483 88.24C84.5467 88.3637 84.5852 88.4989 84.5962 88.6377L86.3514 109.278C86.3659 109.42 86.3514 109.565 86.3089 109.702C86.2665 109.839 86.1968 109.966 86.1042 110.075Z" fill="white"/>
<path d="M36.4126 27.9444L35.7724 19.882L35.1338 11.8389L30.0415 12.2433L30.6801 20.2864L31.3203 28.3488L36.4126 27.9444Z" fill="white"/>
<path d="M81.0102 24.4054L79.7314 8.29988L74.6392 8.70421L75.2778 16.7473L75.918 24.8097L81.0102 24.4054Z" fill="white"/>
<path d="M45.0962 25.6398C46.4417 27.3427 48.1848 28.6876 50.1715 29.5555C52.1582 30.4234 54.3273 30.7877 56.4874 30.6161C58.6475 30.4446 60.732 29.7426 62.5568 28.5721C64.3816 27.4015 65.8906 25.7985 66.9506 23.9045C59.7998 25.6137 52.4271 26.1991 45.0962 25.6398Z" fill="white"/>
<path d="M28.0604 15.6107L14.0181 16.7257L14.2207 19.2778L28.263 18.1628L28.0604 15.6107Z" fill="white"/>
<path d="M96.4901 10.1781L82.4478 11.2931L82.6504 13.8452L96.6927 12.7302L96.4901 10.1781Z" fill="white"/>
<path d="M72.7928 12.0605L37.4556 14.8663L37.6582 17.4185L72.9955 14.6126L72.7928 12.0605Z" fill="white"/>
</svg>
