<svg width="117" height="112" viewBox="0 0 117 112" fill="none" xmlns="http://www.w3.org/2000/svg">
<path d="M50.8924 77.4799C52.1313 77.4549 53.335 77.0622 54.3511 76.3514C55.3673 75.6406 56.1504 74.6436 56.6013 73.4865C57.0523 72.3295 57.1508 71.0643 56.8845 69.8511C56.6182 68.6378 55.9991 67.5309 55.1053 66.6703C54.2116 65.8098 53.0833 65.2342 51.8634 65.0164C50.6434 64.7987 49.3865 64.9484 48.2515 65.4468C47.1165 65.9452 46.1544 66.7699 45.487 67.8165C44.8195 68.8631 44.4767 70.0846 44.5018 71.3266C44.5354 72.9921 45.2275 74.5761 46.426 75.73C47.6245 76.884 49.2311 77.5135 50.8924 77.4799ZM50.6938 67.6417C50.943 67.6366 51.184 67.7311 51.3638 67.9042C51.5436 68.0773 51.6475 68.3148 51.6525 68.5647C51.6575 68.8145 51.5633 69.0561 51.3907 69.2363C51.218 69.4165 50.981 69.5205 50.7319 69.5256C50.2704 69.5349 49.8315 69.7276 49.5118 70.0613C49.1921 70.3951 49.0177 70.8424 49.0271 71.3051C49.0321 71.5549 48.938 71.7965 48.7654 71.9767C48.5927 72.1569 48.3557 72.261 48.1065 72.266C47.8574 72.271 47.6164 72.1766 47.4366 72.0035C47.2568 71.8304 47.153 71.5928 47.148 71.343C47.1186 70.8617 47.1891 70.3794 47.3549 69.9268C47.5208 69.4741 47.7785 69.0609 48.1116 68.7131C48.4448 68.3653 48.8462 68.0905 49.2907 67.9061C49.7351 67.7217 50.2129 67.6317 50.6938 67.6417Z" fill="white"/>
<path d="M71.6263 52.3511C72.6189 52.3345 73.5843 52.0228 74.4 51.4554C75.2156 50.888 75.8447 50.0905 76.2075 49.1641C76.5704 48.2377 76.6508 47.2241 76.4383 46.2519C76.2258 45.2796 75.73 44.3925 75.0139 43.703C74.2979 43.0136 73.3937 42.5528 72.4161 42.3792C71.4385 42.2055 70.4316 42.3269 69.5229 42.7278C68.6143 43.1287 67.8449 43.7911 67.3123 44.631C66.7797 45.4709 66.508 46.4505 66.5315 47.4455C66.5628 48.7718 67.1161 50.0318 68.0705 50.9508C69.025 51.8698 70.3032 52.3732 71.6263 52.3511ZM71.4678 44.5014C71.717 44.4964 71.958 44.5907 72.1378 44.7638C72.3176 44.9369 72.4213 45.1745 72.4264 45.4244C72.4314 45.6742 72.3373 45.9158 72.1647 46.096C71.992 46.2762 71.755 46.3803 71.5059 46.3853C71.252 46.3904 71.0107 46.4964 70.8348 46.68C70.659 46.8635 70.5631 47.1096 70.5683 47.364C70.5733 47.6138 70.4792 47.8554 70.3065 48.0356C70.1339 48.2158 69.8969 48.3199 69.6477 48.325C69.3969 48.3301 69.1541 48.2363 68.9715 48.0637C68.789 47.8911 68.6813 47.6536 68.6716 47.4023C68.661 46.6465 68.9491 45.9172 69.473 45.3737C69.9969 44.8302 70.714 44.5166 71.4678 44.5014Z" fill="white"/>
<path d="M86.7109 72.0615C86.7648 74.7304 86.9461 77.6759 87.1845 80.8646C90.3245 79.475 93.2373 78.0375 95.958 76.5691C92.9595 74.8995 89.8725 73.3948 86.7109 72.0615Z" fill="white"/>
<path d="M112.237 60.1871C110.42 56.4194 100.696 55.0277 86.8875 56.4931C86.6932 60.6678 86.5791 65.3644 86.655 69.9874C90.5256 71.5684 94.2848 73.4106 97.9068 75.5015C105.582 71.1409 110.631 66.8857 112.111 63.4529C112.377 62.9533 112.526 62.4 112.547 61.8345C112.569 61.2689 112.463 60.7057 112.237 60.1871Z" fill="white"/>
<path d="M34.4184 84.06C34.542 84.0617 34.6639 84.0888 34.7767 84.1396C34.8895 84.1904 34.9908 84.2638 35.0742 84.3553C35.1576 84.4468 35.2215 84.5546 35.2617 84.6718C35.302 84.789 35.3179 84.9132 35.3084 85.0368C35.1665 88.3553 34.9412 91.8501 34.6824 95.4153C43.3134 94.3835 51.8515 92.6825 60.2201 90.3276C58.4709 89.9092 56.5471 89.4594 54.7095 88.9729C43.5143 86.2582 32.7171 82.1003 22.5878 76.603C14.7749 81.0536 9.57231 85.4691 8.2678 88.9681C8.07064 89.4331 7.97399 89.9346 7.98419 90.4397C7.99439 90.9448 8.1112 91.4421 8.32695 91.8987C10.1405 95.5093 19.2403 97.0358 32.7737 95.7156C33.0474 92.0279 33.271 88.4459 33.4285 85.0398C33.4203 84.9079 33.4404 84.7758 33.4874 84.6523C33.5344 84.5288 33.6072 84.4169 33.701 84.3241C33.7948 84.2312 33.9074 84.1596 34.0311 84.1141C34.1549 84.0685 34.2869 84.0501 34.4184 84.06Z" fill="white"/>
<path d="M13.9631 63.9487C13.784 64.3988 13.7101 64.8841 13.7471 65.3674C13.784 65.8506 13.9307 66.3189 14.1761 66.7366C15.2658 68.9832 18.2085 71.6112 22.6148 74.3144C25.8741 72.5152 29.5285 70.737 33.5778 68.98C33.5137 65.8052 33.276 62.6514 33.0421 59.6895C22.4166 59.3281 15.2942 60.9028 13.9631 63.9487Z" fill="white"/>
<path d="M42.9039 38.6558C43.3994 38.6458 43.8808 38.4888 44.2873 38.2044C44.6938 37.9201 45.007 37.5213 45.1874 37.0585C45.3678 36.5957 45.4071 36.0896 45.3006 35.6043C45.1941 35.119 44.9464 34.6762 44.5889 34.332C44.2314 33.9878 43.7801 33.7576 43.2922 33.6704C42.8042 33.5833 42.3014 33.6432 41.8474 33.8426C41.3934 34.042 41.0086 34.3718 40.7417 34.7905C40.4747 35.2091 40.3376 35.6977 40.3476 36.1945C40.3656 36.8592 40.6438 37.4901 41.1222 37.9508C41.6006 38.4114 42.2407 38.6647 42.9039 38.6558Z" fill="white"/>
<path d="M31.3244 42.7475C31.3895 42.5427 31.5214 42.3657 31.6989 42.2451C31.8764 42.1244 32.0892 42.067 32.3031 42.082C32.5162 42.1035 32.716 42.196 32.8705 42.3448C33.0249 42.4935 33.1252 42.6899 33.1552 42.9025C33.158 43.042 35.0619 56.3011 35.4339 69.5563C35.4473 70.2192 35.4607 70.8821 35.4741 71.5449C35.5286 74.2487 35.5902 77.3014 35.4132 80.6032C41.8378 83.2181 48.4233 85.4167 55.1288 87.1856C58.1622 87.9852 61.1122 88.6819 63.9789 89.2755L66.4708 88.5446C71.4875 86.995 76.2926 85.3099 80.8172 83.5259C80.471 79.3097 80.1888 74.8131 80.106 70.7138C80.1009 70.4593 80.1968 70.2133 80.3726 70.0297C80.5485 69.8462 80.7898 69.7402 81.0436 69.735C81.2945 69.7345 81.5355 69.8328 81.7149 70.0087C81.8942 70.1846 81.9975 70.4241 82.0026 70.6755C82.0821 74.6178 82.3406 78.8008 82.6492 82.8781L85.2903 81.7777C85.2734 80.9404 85.1524 80.1226 85.1014 79.3209L85.0768 78.0998L85.0469 76.6172C85.0395 76.2509 85.0317 75.8671 85.0247 75.5182C85.0176 75.1693 85.0032 74.4541 84.9926 73.9308C84.9821 73.4075 84.981 73.3552 84.975 73.0586C84.9595 72.2911 84.944 71.5236 84.9292 70.791L84.9275 70.7037C84.9141 70.0408 84.9007 69.378 84.8873 68.7151C84.7763 55.4547 86.0914 42.1305 86.0886 41.991C86.11 41.7773 86.2022 41.5771 86.3505 41.4222C86.4989 41.2674 86.6949 41.1669 86.9069 41.1368C87.0524 41.1241 87.1987 41.1443 87.3353 41.1959C87.4719 41.2475 87.5953 41.3292 87.6962 41.435C87.7653 41.5077 87.8255 41.5885 87.8752 41.6757C87.8752 41.6757 87.8752 41.6757 87.8769 41.7629L90.9587 50.4262C96.7028 49.8959 102.171 47.7129 106.707 44.14C106.412 43.3084 106.063 42.408 105.696 41.5079L105.531 41.075C102.837 34.3933 98.7742 26.2734 95.7508 20.5059L95.6061 20.2296C94.6469 18.4166 93.7956 16.7759 93.1456 15.6198C92.4964 14.4289 91.4112 13.5373 90.1189 13.1331L87.8073 12.4468L72.1987 7.54408C70.9753 10.0076 69.1025 12.0883 66.7833 13.5606C64.4641 15.0328 61.787 15.8405 59.0424 15.8959C56.2978 15.9513 53.5903 15.2524 51.2135 13.8749C48.8368 12.4974 46.8815 10.494 45.5596 8.08183L27.8248 14.251C26.5432 14.7032 25.488 15.6385 24.8833 16.8582C22.0913 22.5512 15.3776 36.6126 12.4841 45.9025C17.1906 49.3086 22.7806 51.2748 28.578 51.5633L31.3244 42.7475ZM71.3136 40.4394C72.6902 40.4117 74.0441 40.7937 75.2041 41.5373C76.3642 42.2809 77.2782 43.3526 77.8307 44.617C78.3832 45.8813 78.5493 47.2815 78.3081 48.6404C78.0669 49.9993 77.4292 51.256 76.4755 52.2515C75.5218 53.2469 74.2951 53.9365 72.9504 54.233C71.6058 54.5295 70.2035 54.4196 68.9211 53.9171C67.6387 53.4147 66.5337 52.5423 65.7458 51.4103C64.9579 50.2783 64.5224 48.9375 64.4946 47.5575C64.4759 46.6353 64.6397 45.7185 64.9766 44.8602C65.3136 44.0019 65.8169 43.2192 66.4575 42.5571C67.0981 41.8951 67.8632 41.367 68.7087 41.0032C69.5541 40.6395 70.4632 40.4474 71.3832 40.438L71.3136 40.4394ZM50.5334 63.039C52.144 63.0065 53.728 63.4535 55.0852 64.3235C56.4424 65.1935 57.5119 66.4475 58.1583 67.9268C58.8048 69.406 58.9993 71.0442 58.717 72.6342C58.4348 74.2241 57.6886 75.6944 56.5728 76.8591C55.457 78.0238 54.0217 78.8306 52.4485 79.1775C50.8752 79.5244 49.2347 79.3957 47.7342 78.8079C46.2338 78.22 44.9409 77.1994 44.019 75.8749C43.0971 74.5505 42.5877 72.9817 42.5551 71.3671C42.5356 70.2898 42.7286 69.2192 43.1229 68.2168C43.5172 67.2144 44.1052 66.3 44.853 65.5261C45.6007 64.7522 46.4935 64.1339 47.4803 63.7069C48.467 63.2799 49.5283 63.0524 50.603 63.0376L50.5334 63.039ZM42.696 31.7856C43.5632 31.7681 44.4162 32.0088 45.147 32.4773C45.8778 32.9457 46.4537 33.6209 46.8018 34.4175C47.1499 35.214 47.2546 36.0961 47.1026 36.9522C46.9507 37.8083 46.5488 38.6 45.948 39.2272C45.3472 39.8543 44.5744 40.2887 43.7272 40.4755C42.8801 40.6623 41.9967 40.5931 41.1888 40.2765C40.3809 39.96 39.6847 39.4104 39.1883 38.6972C38.6919 37.9841 38.4175 37.1394 38.4 36.27C38.3834 35.684 38.484 35.1005 38.6956 34.5541C38.9073 34.0076 39.2259 33.5091 39.6326 33.0879C40.0393 32.6667 40.526 32.3313 41.0639 32.1014C41.6018 31.8715 42.1802 31.7518 42.765 31.7493L42.696 31.7856ZM24.5294 26.917C24.3836 26.9207 24.2393 26.8876 24.1097 26.8208C23.884 26.7162 23.7089 26.5263 23.6226 26.2925C23.5363 26.0588 23.5459 25.8003 23.6493 25.5736C25.1004 22.4381 26.4038 19.7418 27.24 18.0496C27.5274 17.4698 28.0314 17.0269 28.6425 16.8172L35.401 14.4645C35.5198 14.3902 35.6537 14.3433 35.7929 14.3275C35.932 14.3117 36.073 14.3273 36.2054 14.3732C36.3378 14.419 36.4583 14.4939 36.5582 14.5924C36.658 14.6909 36.7345 14.8105 36.7823 14.9425C36.83 15.0745 36.8478 15.2156 36.8342 15.3553C36.8206 15.4951 36.7759 15.63 36.7036 15.7503C36.6313 15.8705 36.5331 15.973 36.4162 16.0503C36.2993 16.1276 36.1666 16.1777 36.0279 16.197L29.3907 18.5297C29.2494 18.5789 29.1328 18.6815 29.0657 18.8155C28.2483 20.5771 26.9603 23.1684 25.5092 26.3039C25.4274 26.4743 25.2973 26.6166 25.1351 26.713C24.9729 26.8094 24.7859 26.8556 24.5976 26.8459L24.5294 26.917Z" fill="white"/>
<path d="M33.6082 79.8711C33.6869 76.868 33.7005 74.093 33.6505 71.616L33.6385 71.0229C30.3603 72.4677 27.3091 73.9428 24.554 75.4294C25.5052 75.9861 26.5083 76.5243 27.582 77.1134C29.4628 78.0178 31.4835 78.9542 33.6082 79.8711Z" fill="white"/>
<path d="M86.9143 96.5758C86.9045 96.5064 86.9031 96.4362 86.9101 96.3665C86.9048 96.1048 86.8999 95.8606 86.8949 95.6164C86.89 95.3722 86.8872 95.2326 86.8833 95.0407C86.8795 94.8488 86.7871 94.589 86.7304 94.3633C86.7202 94.2939 86.7188 94.2236 86.7261 94.1539L83.938 94.0008C84.1298 95.742 84.318 97.3088 84.4836 98.6142C84.5114 98.8404 84.4566 99.069 84.3292 99.2576C84.2017 99.4463 84.0104 99.5823 83.7907 99.6404C81.1937 100.339 78.4558 100.952 75.6636 101.462L75.5244 101.465C75.2926 101.464 75.0693 101.378 74.8973 101.222C74.7254 101.066 74.6169 100.852 74.5928 100.621C74.5687 100.39 74.6307 100.158 74.7668 99.9697C74.9029 99.7816 75.1035 99.6506 75.3302 99.6018C77.7929 99.1507 80.2016 98.6134 82.5049 98.026C82.3584 96.8074 82.1906 95.3972 82.0204 93.865C76.0373 93.3196 70.0909 92.4258 64.2113 91.188C54.4859 94.0651 44.5348 96.1108 34.4646 97.303C34.4934 97.429 34.496 97.5597 34.4723 97.6868C34.4702 98.1781 34.4335 98.6687 34.3627 99.1548C34.3505 99.3991 34.3555 99.6439 34.3774 99.8875C34.3774 99.8875 34.3799 100.01 34.3813 100.079C34.2792 101.059 34.2078 101.828 34.1669 102.387C51.701 107.082 70.2017 106.709 87.5321 101.31C87.5141 100.42 87.2043 98.8735 86.9721 96.8538C86.9405 96.7642 86.9211 96.6706 86.9143 96.5758ZM71.3601 102.125C70.5444 102.246 69.7454 102.332 68.9465 102.418C68.714 102.404 68.4947 102.305 68.3296 102.14C68.1645 101.976 68.0649 101.756 68.0496 101.524C68.0342 101.291 68.1041 101.06 68.2461 100.875C68.3881 100.69 68.5926 100.563 68.8211 100.518C69.6041 100.503 70.4017 100.347 71.1999 100.226C71.448 100.196 71.6979 100.265 71.8961 100.418C72.0943 100.57 72.2252 100.794 72.2608 101.042C72.2804 101.171 72.2731 101.303 72.2394 101.429C72.2056 101.555 72.1462 101.672 72.0648 101.774C71.9834 101.876 71.8818 101.959 71.7665 102.02C71.6512 102.08 71.5246 102.116 71.3949 102.124L71.3601 102.125Z" fill="white"/>
<path d="M67.962 90.0303C72.9069 90.9601 77.4975 91.5829 81.7003 91.9692C81.4855 89.9492 81.2498 87.7552 81.0467 85.4558C76.9017 87.0751 72.581 88.6108 67.962 90.0303Z" fill="white"/>
<path d="M97.8807 77.6841C94.5229 79.497 90.7998 81.3172 86.7983 83.1431C85.5386 83.692 84.2613 84.2239 82.9491 84.7565C83.1763 87.387 83.4184 89.895 83.673 92.1585L86.409 92.3127C86.175 90.2058 85.9587 88.1161 85.7786 86.0955C85.7551 85.846 85.8315 85.5974 85.9908 85.4044C86.1501 85.2114 86.3794 85.0897 86.6282 85.0661C86.877 85.0426 87.125 85.1191 87.3176 85.2789C87.5101 85.4386 87.6315 85.6685 87.655 85.918C87.8539 88.008 88.0719 90.185 88.3254 92.3962C98.5831 92.6428 105.322 91.0234 106.62 88.0829C106.78 87.6944 106.858 87.277 106.85 86.8568C106.841 86.4365 106.746 86.0226 106.571 85.6408C105.548 83.2532 102.498 80.5052 97.8807 77.6841Z" fill="white"/>
</svg>
