<svg width="96" height="106" viewBox="0 0 96 106" fill="none" xmlns="http://www.w3.org/2000/svg">
<path d="M3.88257 51.3915C4.00376 51.4425 4.10216 51.5358 4.15924 51.654C4.21632 51.7721 4.22816 51.907 4.19257 52.0331C3.16345 56.0414 3.3851 60.2685 4.82801 64.151C4.88631 64.2694 4.90531 64.4032 4.88219 64.533C4.85907 64.6627 4.79499 64.7818 4.69938 64.8728C4.60377 64.9638 4.48149 65.0221 4.35034 65.0391C4.21918 65.0562 4.08593 65.0312 3.96991 64.9677C2.80804 64.3531 1.93104 63.3126 1.52422 62.0661C0.17483 58.4312 2.35507 51.2103 3.76695 51.3294" fill="white"/>
<path d="M56.2889 41.5082C57.0698 40.7252 58.0981 40.2351 59.2003 40.1204C60.3025 40.0058 61.4111 40.2737 62.339 40.8789C63.6715 41.8108 64.7709 43.036 65.5518 44.4594C66.3569 45.9955 66.8447 47.6765 66.9865 49.403C67.1283 51.1296 66.9211 52.8665 66.3773 54.511C66.0702 55.7874 65.3698 56.9354 64.3745 57.7942C63.3792 58.6529 62.1387 59.1793 60.8271 59.2996C59.9775 59.2152 59.1599 58.9311 58.4414 58.4706C57.723 58.0102 57.1242 57.3866 56.6943 56.651C55.8631 55.1596 55.3177 53.5272 55.0859 51.8374C54.2218 48.8614 54.3152 45.6913 55.353 42.7732C55.5955 42.3046 55.9114 41.8775 56.2889 41.5082Z" fill="white"/>
<path d="M43.7529 70.3165C43.9698 70.3678 44.1963 70.3621 44.4101 70.3C44.624 70.2379 44.8179 70.1216 44.9729 69.9623C45.128 69.803 45.2389 69.6063 45.2947 69.3914C45.3505 69.1764 45.3494 68.9507 45.2913 68.7362C44.2109 64.6419 43.7944 60.4024 44.0579 56.1786C44.0421 55.9476 44.1191 55.7199 44.2718 55.5456C44.4245 55.3714 44.6405 55.2648 44.8723 55.2493C45.104 55.2339 45.3326 55.3108 45.5076 55.4633C45.6827 55.6157 45.7899 55.8311 45.8056 56.0621C46.8075 61.3456 48.5424 66.4652 50.9603 71.2735C51.7874 72.9787 52.7256 74.6282 53.7689 76.2114C55.2496 78.6988 57.2368 80.8499 59.6021 82.526C61.9673 84.202 64.6581 85.3657 67.501 85.9421C68.4189 86.0709 69.3488 86.0913 70.2713 86.0031C82.2276 84.8455 90.2081 66.5398 88.1077 45.1409C86.1404 25.4026 76.272 9.91883 65.3819 8.57449C64.4635 8.45152 63.5344 8.43109 62.6117 8.51354C56.1793 9.16045 50.8896 14.8759 47.7342 23.103C47.8114 23.8721 45.7918 26.0407 45.268 26.8734C44.2689 28.1556 43.1855 29.3701 42.0247 30.509C39.7173 32.6483 37.1471 34.4875 34.3754 35.9828C31.3026 37.4897 28.1455 38.8201 24.9198 39.9676C21.9629 41.3449 18.9375 42.5714 15.8552 43.6423C14.1818 43.9637 12.5311 44.3925 10.9134 44.9259C9.87902 45.6158 9.05604 46.577 8.53519 47.7038C7.36727 50.0837 6.73147 52.6883 6.67164 55.3381C6.61181 57.9879 7.12944 60.6197 8.1887 63.0521C8.58374 64.5151 9.26993 65.8842 10.2064 67.0781C11.1428 68.2721 12.3103 69.2664 13.6396 70.002C14.1242 70.2349 14.5309 70.6029 14.8103 71.0612C15.0897 71.5195 15.2299 72.0487 15.2138 72.5844C15.122 80.5489 17.5953 88.3359 22.2704 94.8015C22.6708 95.4143 23.2888 95.8537 24.0002 96.0317C24.7117 96.2097 25.4642 96.1132 26.1066 95.7613L28.5715 94.4256L33.6396 91.4427L35.1001 90.3107C35.3511 90.1403 35.5607 89.916 35.7132 89.6542C35.8657 89.3924 35.9574 89.0999 35.9815 88.798C36.0056 88.4961 35.9616 88.1926 35.8525 87.9097C35.7435 87.6269 35.5723 87.372 35.3515 87.1637C33.5581 85.5054 31.9724 83.6372 30.6291 81.5997C28.5646 78.3348 27.6338 74.4849 27.9801 70.6437C30.2183 69.9383 32.5679 69.6489 34.912 69.7896L37.0884 69.8734L39.5834 70.3065L43.7529 70.3165ZM75.6702 79.1729C74.1264 80.734 72.0977 81.7284 69.9137 81.9944C69.2849 82.0647 68.6495 82.0532 68.0235 81.9603C65.8499 81.6285 63.8089 80.7078 62.1233 79.2988C59.7795 77.3672 57.7875 75.0472 56.2351 72.441C52.0306 65.2715 49.4912 57.2557 48.804 48.9833C47.7304 40.1734 48.8758 31.2383 52.1366 22.9854C53.2842 20.1583 55.0051 17.5984 57.1916 15.4658C58.762 13.92 60.7987 12.9314 62.989 12.6515C63.6174 12.5747 64.2537 12.5862 64.8791 12.6857C67.0401 13.0143 69.0683 13.933 70.7385 15.34C73.0867 17.2812 75.0911 19.602 76.6676 22.205C80.8581 29.3752 83.3835 37.3886 84.0579 45.6556C85.1439 54.4645 84.0125 63.4015 80.7661 71.6605C79.5891 74.4798 77.8563 77.0343 75.6702 79.1729Z" fill="white"/>
</svg>
