<svg width="59" height="65" viewBox="0 0 59 65" fill="none" xmlns="http://www.w3.org/2000/svg">
<path d="M2.36169 31.2547C2.4354 31.2857 2.49524 31.3425 2.52995 31.4143C2.56467 31.4862 2.57187 31.5682 2.55022 31.6449C1.92435 34.0826 2.05916 36.6534 2.93667 39.0145C2.97213 39.0865 2.98368 39.1679 2.96962 39.2468C2.95556 39.3258 2.91659 39.3982 2.85844 39.4535C2.8003 39.5089 2.72594 39.5443 2.64617 39.5547C2.56641 39.565 2.48537 39.5498 2.41481 39.5112C1.70821 39.1375 1.17485 38.5047 0.927442 37.7466C0.106796 35.536 1.43273 31.1445 2.29138 31.2169" fill="#002F98"/>
<path d="M34.232 25.2436C34.7069 24.7675 35.3323 24.4694 36.0026 24.3997C36.6729 24.3299 37.3471 24.4929 37.9115 24.861C38.7218 25.4277 39.3904 26.1728 39.8653 27.0385C40.3549 27.9726 40.6516 28.995 40.7379 30.045C40.8241 31.095 40.6981 32.1513 40.3674 33.1515C40.1806 33.9277 39.7547 34.6258 39.1494 35.1481C38.544 35.6704 37.7896 35.9905 36.992 36.0637C36.4753 36.0123 35.978 35.8395 35.5411 35.5595C35.1041 35.2795 34.74 34.9003 34.4785 34.4529C33.9731 33.5459 33.6414 32.5531 33.5004 31.5255C32.9749 29.7155 33.0317 27.7877 33.6628 26.013C33.8103 25.728 34.0024 25.4683 34.232 25.2436Z" fill="#002F98"/>
<path d="M26.6069 42.7637C26.7388 42.7949 26.8766 42.7914 27.0066 42.7536C27.1367 42.7159 27.2546 42.6451 27.3489 42.5483C27.4432 42.4514 27.5107 42.3318 27.5446 42.201C27.5785 42.0703 27.5778 41.933 27.5425 41.8026C26.8855 39.3126 26.6322 36.7343 26.7924 34.1656C26.7828 34.0251 26.8296 33.8866 26.9225 33.7806C27.0154 33.6746 27.1467 33.6098 27.2877 33.6004C27.4286 33.591 27.5676 33.6378 27.6741 33.7305C27.7805 33.8232 27.8457 33.9542 27.8553 34.0947C28.4646 37.3079 29.5197 40.4215 30.9902 43.3457C31.4932 44.3827 32.0637 45.3858 32.6982 46.3487C33.5988 47.8614 34.8073 49.1697 36.2457 50.189C37.6842 51.2083 39.3206 51.916 41.0496 52.2665C41.6078 52.3449 42.1733 52.3573 42.7343 52.3036C50.0057 51.5996 54.8591 40.4668 53.5817 27.4529C52.3853 15.4488 46.3837 6.03223 39.7608 5.21466C39.2023 5.13987 38.6372 5.12745 38.0761 5.17759C34.1641 5.57102 30.9472 9.04693 29.0282 14.0503C29.0751 14.5181 27.8469 15.8369 27.5284 16.3433C26.9208 17.1231 26.2618 17.8617 25.5559 18.5543C24.1527 19.8554 22.5896 20.9739 20.9039 21.8833C19.0351 22.7997 17.1151 23.6088 15.1534 24.3067C13.3551 25.1443 11.5152 25.8902 9.64066 26.5415C8.62298 26.7369 7.6191 26.9977 6.63528 27.3221C6.00619 27.7417 5.50568 28.3263 5.18893 29.0116C4.47865 30.4589 4.09198 32.0429 4.05559 33.6544C4.0192 35.2659 4.33401 36.8665 4.9782 38.3458C5.21845 39.2355 5.63576 40.0681 6.20526 40.7942C6.77476 41.5203 7.48478 42.1251 8.2932 42.5724C8.58794 42.7141 8.83529 42.9378 9.00521 43.2166C9.17514 43.4953 9.26035 43.8171 9.25059 44.1429C9.19476 48.9866 10.6989 53.7223 13.5421 57.6545C13.7857 58.0272 14.1614 58.2944 14.5941 58.4026C15.0269 58.5109 15.4845 58.4522 15.8751 58.2382L17.3742 57.4258L20.4564 55.6118L21.3446 54.9233C21.4973 54.8197 21.6247 54.6833 21.7175 54.5241C21.8102 54.3649 21.866 54.187 21.8807 54.0034C21.8953 53.8198 21.8685 53.6352 21.8022 53.4632C21.7359 53.2911 21.6318 53.1362 21.4975 53.0094C20.4069 52.001 19.4425 50.8648 18.6255 49.6257C17.37 47.64 16.8039 45.2987 17.0145 42.9626C18.3757 42.5337 19.8047 42.3576 21.2302 42.4432L22.5538 42.4942L24.0712 42.7576L26.6069 42.7637ZM46.0177 48.1498C45.0788 49.0992 43.8451 49.7039 42.5169 49.8657C42.1345 49.9084 41.748 49.9015 41.3673 49.845C40.0454 49.6432 38.8042 49.0832 37.7791 48.2263C36.3537 47.0516 35.1422 45.6407 34.1981 44.0557C31.6411 39.6955 30.0967 34.8206 29.6788 29.7897C29.0259 24.4318 29.7224 18.9979 31.7055 13.9788C32.4035 12.2595 33.45 10.7026 34.7798 9.40568C35.7349 8.46561 36.9735 7.86438 38.3055 7.69416C38.6877 7.64744 39.0747 7.65442 39.455 7.71492C40.7693 7.91479 42.0027 8.47351 43.0185 9.32918C44.4466 10.5098 45.6655 11.9212 46.6243 13.5042C49.1728 17.8648 50.7086 22.7382 51.1188 27.7659C51.7792 33.1231 51.0912 38.5582 49.1169 43.581C48.4011 45.2956 47.3472 46.8492 46.0177 48.1498Z" fill="#002F98"/>
</svg>
