<svg width="63" height="60" viewBox="0 0 63 60" fill="none" xmlns="http://www.w3.org/2000/svg">
<path d="M14.6544 11.9503C14.8148 11.946 14.9729 11.91 15.1193 11.8443C15.2658 11.7786 15.3978 11.6846 15.5077 11.5676C15.6176 11.4506 15.7033 11.313 15.7599 11.1628C15.8164 11.0125 15.8427 10.8525 15.8371 10.692C15.8285 10.3695 15.6921 10.0636 15.458 9.8416C15.2239 9.61963 14.9113 9.49978 14.5889 9.50843C14.2666 9.51707 13.9608 9.65349 13.739 9.88768C13.5172 10.1219 13.3974 10.4347 13.4061 10.7572C13.4091 10.9177 13.4439 11.0761 13.5084 11.2231C13.5729 11.3702 13.6659 11.503 13.7819 11.6139C13.898 11.7248 14.0348 11.8116 14.1846 11.8694C14.3343 11.9271 14.494 11.9546 14.6544 11.9503Z" fill="#002F98"/>
<path d="M8.7379 23.8026C9.46161 23.7832 10.1481 23.4776 10.6471 22.9528C11.146 22.4279 11.4166 21.7266 11.3997 21.0024C11.3803 20.2766 11.0735 19.5884 10.5468 19.0889C10.0202 18.5895 9.31677 18.3198 8.59142 18.3393C7.8695 18.3637 7.18651 18.6727 6.69145 19.199C6.1964 19.7253 5.92947 20.4261 5.94885 21.1485C5.97066 21.8693 6.27582 22.5523 6.79805 23.0493C7.32027 23.5462 8.01735 23.817 8.7379 23.8026ZM8.62301 19.5175C8.7599 19.5138 8.89279 19.564 8.99305 19.6573C9.0933 19.7507 9.15289 19.8797 9.15905 20.0166C9.16277 20.1551 9.11132 20.2895 9.016 20.3902C8.92068 20.4908 8.7893 20.5494 8.65078 20.5531C8.51477 20.5568 8.38579 20.6143 8.2922 20.7131C8.19861 20.8119 8.1481 20.9439 8.15175 21.08C8.15547 21.2186 8.10402 21.353 8.0087 21.4536C7.91338 21.5542 7.782 21.6128 7.64348 21.6165C7.57533 21.6184 7.5075 21.6066 7.44395 21.5819C7.3804 21.5572 7.32238 21.5201 7.27334 21.4727C7.22429 21.4254 7.18516 21.3687 7.15825 21.306C7.13135 21.2433 7.11719 21.1759 7.11663 21.1077C7.10562 20.697 7.25814 20.2987 7.54064 20.0004C7.82314 19.7022 8.21248 19.5285 8.62301 19.5175Z" fill="#002F98"/>
<path d="M43.9787 8.77728C41.5829 8.78735 39.2051 9.1916 36.9405 9.97386L32.0512 12.2823L28.1785 13.8695C28.4003 14.1571 28.6965 14.3787 29.0349 14.5104C29.3734 14.6421 29.7413 14.6788 30.0991 14.6167L33.0582 14.0429L33.1342 14.0409L36.5814 13.9484C36.6579 13.9459 36.7337 13.9636 36.8013 13.9996C37.6687 14.4122 38.6275 14.5953 39.5858 14.5313C40.5441 14.4673 41.4699 14.1584 42.2749 13.6342C42.3892 13.5595 42.5282 13.5326 42.6622 13.5592C42.7961 13.5859 42.9143 13.6639 42.9914 13.7766C43.0292 13.8334 43.0553 13.8973 43.0681 13.9643C43.0809 14.0314 43.0802 14.1003 43.0661 14.1671C43.0519 14.2339 43.0246 14.2972 42.9857 14.3533C42.9468 14.4094 42.8972 14.4571 42.8396 14.4938C41.8347 15.1706 40.6585 15.5483 39.4476 15.5831C38.5 15.6015 37.5583 15.4295 36.6782 15.0773L29.5529 22.5993C30.1153 22.8601 30.6149 23.2391 31.0177 23.7105L35.4816 19.0078C35.5265 18.9571 35.5813 18.9161 35.6427 18.8875C35.704 18.8589 35.7706 18.8432 35.8383 18.8413C35.906 18.8395 35.9733 18.8516 36.0361 18.877C36.0989 18.9023 36.1558 18.9402 36.2034 18.9885C36.2541 19.0334 36.295 19.0882 36.3236 19.1496C36.3522 19.211 36.368 19.2776 36.3698 19.3453C36.3716 19.413 36.3594 19.4804 36.3341 19.5432C36.3088 19.6061 36.2709 19.663 36.2227 19.7106L31.6019 24.5886L31.6035 24.6456C32.0601 24.4729 32.5429 24.3796 33.031 24.3696C33.4163 24.3651 33.8006 24.4091 34.1749 24.5006L37.5108 20.9692C37.6059 20.8708 37.7357 20.8137 37.8724 20.81C38.0092 20.8063 38.1419 20.8564 38.2421 20.9496C38.3404 21.0447 38.3975 21.1746 38.4012 21.3114C38.4049 21.4482 38.3548 21.5809 38.2617 21.6812L35.2215 24.9004C35.6123 25.1 35.9714 25.3563 36.2872 25.661C36.7078 24.9149 37.3154 24.2912 38.0501 23.8514C38.7848 23.4115 39.6214 23.1707 40.4774 23.1526C41.2905 23.1353 42.0953 23.3195 42.82 23.6888L48.4484 17.7569C48.5498 17.6401 49.9492 15.9576 49.8514 14.4389C49.7483 13.5658 49.3113 12.7666 48.6322 12.2086C48.5824 12.1622 48.5424 12.1063 48.5144 12.0442C48.4864 11.9821 48.4711 11.915 48.4692 11.8469C48.4674 11.7788 48.4791 11.711 48.5037 11.6475C48.5284 11.584 48.5654 11.5261 48.6126 11.477C48.7061 11.3793 48.8344 11.3224 48.9695 11.3188C49.1047 11.3152 49.2358 11.3651 49.3344 11.4577C49.9353 11.9825 50.3944 12.6504 50.6694 13.3996L51.6582 12.3557L45.9346 6.93728L44.2896 8.67386C44.1991 8.73961 44.0905 8.77574 43.9787 8.77728Z" fill="#002F98"/>
<path d="M29.7144 34.8793C29.7108 34.7432 29.7613 34.6112 29.8548 34.5124C29.9484 34.4136 30.0774 34.3561 30.2134 34.3524C30.3494 34.3488 30.4813 34.3993 30.5801 34.493C30.6788 34.5866 30.7364 34.7157 30.74 34.8518C30.7643 35.7564 31.1467 36.6144 31.8032 37.237C32.4597 37.8595 33.3364 38.1956 34.2406 38.1714C35.1448 38.1471 36.0023 37.7645 36.6245 37.1077C37.2467 36.4509 37.5826 35.5736 37.5584 34.669C37.5572 34.5319 37.6098 34.4 37.7049 34.3014C37.8 34.2028 37.93 34.1455 38.0669 34.1419C38.2029 34.1382 38.3348 34.1888 38.4335 34.2824C38.5323 34.3761 38.5898 34.5051 38.5934 34.6412C38.602 34.9127 38.5806 35.1843 38.5297 35.4511L50.1722 35.139C50.533 34.7626 50.8154 34.3182 51.003 33.8316C51.1906 33.3451 51.2797 32.8261 51.265 32.3047C51.237 31.2581 50.7952 30.2653 50.0365 29.5441C49.2778 28.8229 48.2642 28.4323 47.2181 28.4578C46.5831 28.4738 45.9616 28.6438 45.4068 28.9532C45.3297 29.0042 45.24 29.0325 45.1477 29.035C45.0553 29.0375 44.9641 29.014 44.8845 28.9672C44.805 28.9189 44.7404 28.8495 44.698 28.7668C44.6555 28.684 44.6368 28.5911 44.6438 28.4983C44.649 28.3493 44.645 28.2002 44.6319 28.0517C44.6038 27.0034 44.1606 26.0092 43.3999 25.2878C42.6391 24.5664 41.6231 24.1769 40.5754 24.205C39.7787 24.2244 39.0068 24.486 38.3624 24.9551C37.718 25.4242 37.2317 26.0785 36.9681 26.8309C36.9343 26.9207 36.8764 26.9993 36.8009 27.0584C36.7254 27.1174 36.6351 27.1546 36.5399 27.1657C36.4455 27.1765 36.3498 27.1613 36.2634 27.1217C36.1769 27.0821 36.1029 27.0197 36.0493 26.9411C35.7341 26.4647 35.3038 26.0756 34.7983 25.81C34.2928 25.5443 33.7285 25.4106 33.1576 25.4213C32.6364 25.4307 32.1251 25.565 31.6666 25.8131C31.6003 25.8456 31.5279 25.8635 31.4542 25.8654C31.3804 25.8674 31.3071 25.8535 31.2392 25.8245C31.1689 25.797 31.1055 25.7546 31.0532 25.7002C31.0009 25.6458 30.9609 25.5807 30.9362 25.5094C30.702 24.8234 30.2538 24.2307 29.6576 23.8188C29.0615 23.4068 28.3489 23.1973 27.6248 23.2211C27.1678 23.2329 26.7179 23.3364 26.3018 23.5256C25.8857 23.7148 25.5118 23.9858 25.2025 24.3224C25.1536 24.3755 25.094 24.4175 25.0275 24.4455C24.961 24.4736 24.8893 24.487 24.8172 24.4849C24.7436 24.4861 24.6707 24.4706 24.604 24.4394C24.5373 24.4083 24.4785 24.3623 24.4322 24.305C24.0567 23.8533 23.5838 23.4926 23.0489 23.25C22.5141 23.0074 21.9312 22.8893 21.3442 22.9045C20.3124 22.9347 19.3346 23.3724 18.6245 24.122C17.9145 24.8716 17.53 25.872 17.5551 26.9045C17.5701 27.4948 17.7223 28.0734 17.9996 28.5946C18.0441 28.68 18.0638 28.7762 18.0563 28.8722C18.0488 28.9683 18.0144 29.0603 17.9571 29.1377C17.9033 29.2145 17.8288 29.2744 17.7422 29.3103C17.6557 29.3463 17.5608 29.357 17.4684 29.341C17.2446 29.3095 17.0186 29.2965 16.7926 29.302C15.7617 29.3322 14.7849 29.7702 14.0764 30.52C13.3678 31.2698 12.9855 32.2702 13.0131 33.3018C13.0173 33.4285 12.9744 33.5523 12.8928 33.6493C12.8112 33.7463 12.6965 33.8096 12.571 33.8271C11.9659 33.9128 11.4044 34.1909 10.9693 34.6203C10.5342 35.0497 10.2486 35.6077 10.1546 36.2119L29.812 35.6848C29.7548 35.4199 29.7221 35.1502 29.7144 34.8793ZM38.4248 27.2863C38.5894 26.8152 38.8933 26.4052 39.2961 26.1108C39.699 25.8164 40.1817 25.6515 40.6803 25.638C41.3329 25.628 41.9632 25.8758 42.4343 26.3278C42.9055 26.7798 43.1794 27.3993 43.1969 28.0521C43.2005 28.1882 43.15 28.3202 43.0564 28.419C42.9629 28.5178 42.8339 28.5753 42.6979 28.579C42.561 28.5827 42.4281 28.5324 42.3278 28.4391C42.2276 28.3458 42.1679 28.2168 42.1618 28.0799C42.1515 27.6969 41.9896 27.3336 41.7116 27.07C41.4337 26.8064 41.0625 26.6641 40.6796 26.6744C40.3858 26.6831 40.1018 26.7825 39.8667 26.959C39.6315 27.1356 39.4566 27.3806 39.3661 27.6604C39.3187 27.7899 39.2221 27.8955 39.0973 27.954C38.9725 28.0126 38.8296 28.0194 38.6998 27.973C38.6349 27.9482 38.5759 27.9103 38.5264 27.8615C38.4769 27.8128 38.438 27.7543 38.4122 27.6898C38.3863 27.6253 38.3742 27.5562 38.3763 27.4868C38.3785 27.4173 38.395 27.3491 38.4248 27.2863ZM34.2116 35.6715C34.4635 35.6647 34.7023 35.5582 34.8757 35.3752C35.049 35.1922 35.1426 34.9479 35.1358 34.6959C35.1322 34.5598 35.1827 34.4278 35.2763 34.329C35.3698 34.2302 35.4988 34.1727 35.6348 34.1691C35.7708 34.1654 35.9027 34.216 36.0015 34.3096C36.1002 34.4032 36.1577 34.5323 36.1614 34.6684C36.1749 35.1724 35.9878 35.6611 35.6411 36.027C35.2945 36.3929 34.8168 36.6061 34.313 36.6196C34.177 36.6232 34.0452 36.5727 33.9464 36.479C33.8477 36.3854 33.7902 36.2563 33.7865 36.1203C33.7829 35.9842 33.8334 35.8522 33.927 35.7534C34.0205 35.6546 34.1495 35.5971 34.2855 35.5934L34.2116 35.6715ZM16.8591 31.7819C16.4972 31.7916 16.1536 31.9434 15.9027 32.2046C15.6519 32.4658 15.5139 32.8153 15.5186 33.1775L15.5425 34.0707C15.5462 34.2076 15.496 34.3406 15.4027 34.4409C15.3095 34.5412 15.1805 34.6008 15.0437 34.607C14.9077 34.6107 14.7759 34.5601 14.6771 34.4665C14.5784 34.3728 14.5209 34.2438 14.5172 34.1077L14.4917 33.1575C14.4871 32.5236 14.7299 31.913 15.1684 31.4555C15.607 30.998 16.2066 30.7298 16.8398 30.708C16.9784 30.7043 17.1127 30.7558 17.2133 30.8512C17.3138 30.9465 17.3724 31.078 17.3761 31.2166C17.382 31.2883 17.373 31.3604 17.3497 31.4284C17.3265 31.4965 17.2894 31.559 17.2409 31.6121C17.1923 31.6651 17.1334 31.7076 17.0677 31.7368C17.002 31.7661 16.931 31.7814 16.8591 31.7819ZM23.2315 25.9536C23.1259 26.0388 22.9913 26.0796 22.8562 26.0672C22.721 26.0549 22.596 25.9904 22.5075 25.8875C22.3753 25.7253 22.2077 25.5956 22.0175 25.5084C21.8274 25.4212 21.6198 25.3788 21.4107 25.3844C21.043 25.3943 20.6942 25.5499 20.4412 25.817C20.1881 26.0841 20.0515 26.4409 20.0614 26.8088C20.0651 26.9449 20.0145 27.0768 19.921 27.1756C19.8274 27.2744 19.6984 27.332 19.5624 27.3356C19.4264 27.3393 19.2945 27.2887 19.1957 27.1951C19.097 27.1014 19.0394 26.9724 19.0358 26.8363C19.0186 26.1962 19.2563 25.5756 19.6965 25.1108C20.1367 24.6461 20.7435 24.3754 21.3832 24.3583C21.7513 24.3513 22.1162 24.4287 22.4498 24.5845C22.7834 24.7404 23.0769 24.9706 23.3079 25.2575C23.3857 25.3616 23.421 25.4914 23.4068 25.6206C23.3926 25.7498 23.33 25.8688 23.2315 25.9536Z" fill="#002F98"/>
<path d="M49.212 1.88544L45.9212 5.33009L53.4783 12.4964L56.7403 9.04302L49.212 1.88544Z" fill="#002F98"/>
<path d="M45.0291 41.2378C45.028 41.1007 45.0806 40.9687 45.1757 40.8702C45.2708 40.7716 45.4008 40.7143 45.5377 40.7107L53.6095 40.4943C54.1939 40.4786 54.748 40.2313 55.1501 39.8069C55.5522 39.3824 55.7693 38.8155 55.7536 38.2309C55.7379 37.6462 55.4908 37.0918 55.0665 36.6894C54.6423 36.2871 54.0757 36.0699 53.4913 36.0856L38.2307 36.4947C37.9006 37.2795 37.3514 37.9525 36.6488 38.433C35.9462 38.9134 35.12 39.1811 34.2693 39.2039C33.4186 39.2267 32.5793 39.0037 31.852 38.5616C31.1247 38.1194 30.5401 37.4769 30.1684 36.7109L7.05435 37.3306C6.47004 37.3462 5.91587 37.5935 5.51379 38.018C5.1117 38.4425 4.89462 39.0094 4.9103 39.594C4.92597 40.1786 5.17311 40.7331 5.59736 41.1354C6.02162 41.5377 6.58824 41.7549 7.17255 41.7393L42.309 40.7972C42.445 40.7936 42.5768 40.8441 42.6756 40.9378C42.7743 41.0314 42.8318 41.1605 42.8355 41.2966C42.8391 41.4326 42.7886 41.5646 42.695 41.6634C42.6014 41.7622 42.4725 41.8197 42.3365 41.8234L8.73846 42.7242L10.642 54.53C10.691 54.8253 10.8448 55.0931 11.075 55.2842C11.3053 55.4753 11.5967 55.5771 11.8958 55.5708L49.6057 54.5598C49.9037 54.5498 50.1879 54.4323 50.406 54.2289C50.6242 54.0256 50.7614 53.7502 50.7925 53.4535L52.1082 41.5614L45.5747 41.7366C45.5061 41.7397 45.4376 41.7292 45.3731 41.7058C45.3086 41.6824 45.2493 41.6466 45.1987 41.6002C45.148 41.5539 45.1069 41.4981 45.0778 41.4359C45.0488 41.3737 45.0322 41.3064 45.0291 41.2378ZM11.8883 49.6188L11.8218 49.6206C11.6971 49.623 11.5757 49.5807 11.4794 49.5013C11.3832 49.4219 11.3185 49.3107 11.2971 49.1878L10.56 44.7386C10.5489 44.6714 10.5513 44.6027 10.567 44.5364C10.5827 44.4701 10.6114 44.4076 10.6515 44.3525C10.6916 44.2975 10.7423 44.2509 10.8005 44.2157C10.8588 44.1804 10.9234 44.1571 10.9908 44.1471C11.1247 44.127 11.2612 44.1598 11.3714 44.2384C11.4817 44.3171 11.5571 44.4354 11.5818 44.5686L12.3093 49.018C12.3218 49.0852 12.3209 49.1542 12.3064 49.221C12.292 49.2878 12.2643 49.3511 12.2251 49.407C12.1859 49.463 12.1359 49.5106 12.0781 49.5469C12.0202 49.5833 11.9557 49.6077 11.8883 49.6188ZM40.8958 53.31L39.3004 53.3528C39.1644 53.3564 39.0326 53.3059 38.9338 53.2122C38.8351 53.1186 38.7776 52.9895 38.7739 52.8535C38.7703 52.7174 38.8208 52.5854 38.9144 52.4866C39.0079 52.3878 39.1369 52.3303 39.2729 52.3266L40.8683 52.2839C41.0043 52.2802 41.1362 52.3308 41.2349 52.4244C41.3337 52.5181 41.3912 52.6471 41.3948 52.7832C41.3985 52.9193 41.348 53.0512 41.2544 53.15C41.1608 53.2488 41.0318 53.3064 40.8958 53.31ZM48.8701 48.0378C48.8777 47.9708 48.8984 47.9059 48.931 47.8469C48.9636 47.7879 49.0075 47.7358 49.0602 47.6938C49.1129 47.6518 49.1734 47.6206 49.2381 47.6019C49.3029 47.5833 49.3708 47.5776 49.4377 47.5852C49.5052 47.5915 49.5707 47.6114 49.6303 47.6436C49.6899 47.6758 49.7425 47.7198 49.7847 47.7728C49.8269 47.8258 49.8581 47.8868 49.8762 47.9522C49.8943 48.0175 49.899 48.0859 49.8901 48.1531L49.4023 52.6446C49.3854 52.7668 49.3258 52.8791 49.2341 52.9616C49.1424 53.0441 49.0245 53.0915 48.9012 53.0954L43.8682 53.2303C43.7322 53.234 43.6003 53.1834 43.5015 53.0898C43.4028 52.9961 43.3453 52.8671 43.3416 52.731C43.338 52.5949 43.3885 52.463 43.4821 52.3642C43.5757 52.2654 43.7047 52.2078 43.8407 52.2042L48.4559 52.0804L48.8701 48.0378Z" fill="#002F98"/>
</svg>
