<svg width="122" height="116" viewBox="0 0 122 116" fill="none" xmlns="http://www.w3.org/2000/svg">
<path d="M29.171 22.6231C29.483 22.6148 29.7903 22.5447 30.0752 22.417C30.36 22.2892 30.6167 22.1063 30.8305 21.8789C31.0443 21.6514 31.211 21.3838 31.321 21.0915C31.4309 20.7993 31.482 20.4881 31.4712 20.176C31.4543 19.5487 31.1891 18.9538 30.7339 18.5221C30.2786 18.0904 29.6707 17.8573 29.0437 17.8741C28.4167 17.8909 27.8221 18.1562 27.3907 18.6117C26.9592 19.0672 26.7264 19.6755 26.7432 20.3028C26.7491 20.615 26.8167 20.923 26.9422 21.2089C27.0677 21.4949 27.2484 21.7531 27.4741 21.9688C27.6998 22.1846 27.966 22.3534 28.2573 22.4657C28.5485 22.578 28.859 22.6315 29.171 22.6231Z" fill="white"/>
<path d="M17.6685 45.6741C19.0759 45.6363 20.4111 45.042 21.3814 44.0212C22.3518 43.0004 22.8781 41.6365 22.8453 40.2281C22.8074 38.8166 22.2108 37.478 21.1865 36.5067C20.1623 35.5354 18.7943 35.011 17.3836 35.0488C15.9796 35.0962 14.6513 35.6972 13.6885 36.7208C12.7257 37.7443 12.2065 39.1072 12.2442 40.5123C12.2867 41.914 12.8801 43.2424 13.8958 44.2089C14.9114 45.1754 16.2671 45.7019 17.6685 45.6741ZM17.445 37.3402C17.7112 37.333 17.9697 37.4307 18.1647 37.6122C18.3597 37.7937 18.4755 38.0446 18.4875 38.3108C18.4948 38.5803 18.3947 38.8417 18.2093 39.0374C18.0239 39.2331 17.7684 39.3471 17.499 39.3544C17.2345 39.3614 16.9837 39.4734 16.8017 39.6655C16.6196 39.8577 16.5214 40.1143 16.5285 40.3789C16.5357 40.6485 16.4357 40.9099 16.2503 41.1056C16.0649 41.3013 15.8094 41.4153 15.54 41.4225C15.4075 41.4261 15.2755 41.4032 15.1519 41.3552C15.0283 41.3071 14.9155 41.235 14.8201 41.1428C14.7247 41.0507 14.6486 40.9405 14.5963 40.8186C14.544 40.6967 14.5165 40.5656 14.5154 40.4329C14.4939 39.6341 14.7906 38.8595 15.34 38.2795C15.8894 37.6994 16.6466 37.3616 17.445 37.3402Z" fill="white"/>
<path d="M86.2058 16.4522C81.5464 16.4718 76.9219 17.258 72.5176 18.7793L63.0088 23.269L55.477 26.3556C55.9085 26.9151 56.4845 27.3461 57.1427 27.6021C57.801 27.8582 58.5165 27.9297 59.2124 27.8088L64.9673 26.6929L65.1151 26.689L71.8193 26.5092C71.9681 26.5043 72.1156 26.5386 72.247 26.6087C73.9339 27.4112 75.7985 27.7672 77.6623 27.6427C79.526 27.5183 81.3266 26.9176 82.8921 25.898C83.1144 25.7528 83.3848 25.7005 83.6453 25.7523C83.9057 25.8041 84.1356 25.9558 84.2856 26.175C84.3591 26.2856 84.4098 26.4097 84.4347 26.5401C84.4597 26.6705 84.4584 26.8046 84.4309 26.9345C84.4034 27.0644 84.3502 27.1875 84.2745 27.2966C84.1989 27.4057 84.1023 27.4985 83.9904 27.5698C82.036 28.8861 79.7485 29.6208 77.3936 29.6883C75.5505 29.7242 73.7191 29.3897 72.0075 28.7047L58.1501 43.3336C59.2438 43.8408 60.2155 44.5779 60.9988 45.4947L69.6804 36.3488C69.7677 36.2502 69.8743 36.1705 69.9936 36.1148C70.1129 36.0591 70.2424 36.0286 70.3741 36.0251C70.5057 36.0215 70.6366 36.0451 70.7588 36.0943C70.8809 36.1436 70.9916 36.2174 71.0841 36.3112C71.1827 36.3985 71.2622 36.5052 71.3178 36.6246C71.3735 36.744 71.4042 36.8735 71.4077 37.0052C71.4112 37.1369 71.3876 37.2679 71.3384 37.3901C71.2892 37.5123 71.2155 37.6231 71.1217 37.7156L62.1351 47.2025L62.138 47.3134C63.0262 46.9775 63.9651 46.796 64.9143 46.7767C65.6636 46.7678 66.4111 46.8533 67.139 47.0314L73.6269 40.1633C73.8117 39.972 74.0643 39.8609 74.3301 39.8537C74.596 39.8466 74.8541 39.9441 75.049 40.1252C75.2402 40.3102 75.3513 40.5628 75.3584 40.8288C75.3656 41.0949 75.2682 41.3531 75.0871 41.5481L69.1745 47.8089C69.9345 48.197 70.6329 48.6955 71.2471 49.2882C72.0651 47.8371 73.2467 46.6241 74.6756 45.7687C76.1045 44.9133 77.7315 44.4449 79.3963 44.4097C80.9777 44.3761 82.5428 44.7343 83.9523 45.4526L94.8985 33.916C95.0957 33.6888 97.8173 30.4167 97.6272 27.4631C97.4266 25.7651 96.5768 24.2107 95.2561 23.1256C95.1592 23.0352 95.0813 22.9265 95.0268 22.8057C94.9724 22.685 94.9426 22.5546 94.9391 22.4221C94.9355 22.2897 94.9583 22.1579 95.0062 22.0344C95.054 21.9108 95.126 21.7981 95.2179 21.7027C95.3997 21.5126 95.6491 21.4021 95.912 21.395C96.1748 21.388 96.4298 21.485 96.6215 21.6651C97.7902 22.6859 98.6832 23.9848 99.2179 25.4418L101.141 23.4116L90.0095 12.8737L86.8104 16.2511C86.6344 16.379 86.4232 16.4492 86.2058 16.4522Z" fill="white"/>
<path d="M58.4603 67.2165C58.4532 66.9518 58.5514 66.6952 58.7334 66.503C58.9154 66.3109 59.1663 66.199 59.4308 66.1919C59.6953 66.1848 59.9518 66.2831 60.1438 66.4652C60.3359 66.6473 60.4478 66.8983 60.4549 67.163C60.5021 68.9224 61.2458 70.591 62.5226 71.8018C63.7993 73.0125 65.5045 73.6662 67.263 73.6191C69.0214 73.5719 70.6891 72.8278 71.8992 71.5504C73.1092 70.2729 73.7626 68.5669 73.7154 66.8075C73.7131 66.541 73.8154 66.2843 74.0004 66.0926C74.1854 65.9009 74.4382 65.7895 74.7044 65.7824C74.9689 65.7753 75.2254 65.8736 75.4175 66.0557C75.6095 66.2379 75.7214 66.4888 75.7285 66.7535C75.745 67.2815 75.7035 67.8097 75.6044 68.3286L98.2471 67.7216C98.9487 66.9896 99.4979 66.1253 99.8628 65.179C100.228 64.2328 100.401 63.2233 100.373 62.2095C100.318 60.1739 99.4587 58.2431 97.9832 56.8405C96.5077 55.4379 94.5364 54.6782 92.5019 54.7278C91.267 54.759 90.0581 55.0896 88.9792 55.6914C88.8294 55.7905 88.6548 55.8455 88.4753 55.8504C88.2957 55.8552 88.1184 55.8095 87.9634 55.7186C87.8088 55.6247 87.6833 55.4897 87.6007 55.3287C87.5181 55.1677 87.4816 54.987 87.4954 54.8066C87.5055 54.5169 87.4977 54.2268 87.4722 53.9381C87.4175 51.8993 86.5556 49.9657 85.0761 48.5628C83.5966 47.1598 81.6207 46.4023 79.583 46.4569C78.0336 46.4945 76.5324 47.0033 75.2791 47.9156C74.0259 48.8279 73.08 50.1004 72.5674 51.5639C72.5016 51.7384 72.3892 51.8914 72.2423 52.0062C72.0955 52.1211 71.9199 52.1932 71.7348 52.2149C71.551 52.2359 71.365 52.2063 71.1969 52.1293C71.0287 52.0524 70.8848 51.931 70.7805 51.7782C70.1675 50.8517 69.3307 50.0949 68.3476 49.5782C67.3645 49.0615 66.2669 48.8015 65.1566 48.8223C64.143 48.8406 63.1486 49.1019 62.2569 49.5843C62.1281 49.6476 61.9872 49.6823 61.8438 49.6862C61.7004 49.69 61.5577 49.6629 61.4258 49.6066C61.2891 49.553 61.1657 49.4705 61.0639 49.3647C60.9622 49.2589 60.8846 49.1323 60.8364 48.9936C60.3809 47.6595 59.5093 46.5069 58.3499 45.7057C57.1905 44.9045 55.8046 44.497 54.3963 44.5433C53.5076 44.5662 52.6327 44.7677 51.8234 45.1356C51.0141 45.5036 50.287 46.0306 49.6853 46.6852C49.5903 46.7885 49.4744 46.8702 49.3451 46.9247C49.2158 46.9792 49.0763 47.0053 48.9361 47.0012C48.7929 47.0036 48.6511 46.9734 48.5214 46.9128C48.3917 46.8522 48.2774 46.7628 48.1874 46.6514C47.4571 45.7728 46.5373 45.0713 45.4971 44.5995C44.4569 44.1278 43.3234 43.8981 42.1817 43.9277C40.1751 43.9864 38.2733 44.8377 36.8924 46.2955C35.5114 47.7533 34.7636 49.699 34.8126 51.707C34.8417 52.8549 35.1376 53.9802 35.6769 54.9939C35.7636 55.1599 35.8019 55.3471 35.7873 55.5339C35.7727 55.7206 35.7058 55.8996 35.5944 56.0501C35.4897 56.1994 35.3448 56.3159 35.1765 56.3859C35.0082 56.4559 34.8236 56.4765 34.644 56.4454C34.2087 56.3842 33.7691 56.3589 33.3297 56.3697C31.3247 56.4284 29.425 57.2802 28.047 58.7385C26.669 60.1968 25.9254 62.1423 25.9792 64.1485C25.9873 64.395 25.9039 64.6357 25.7452 64.8244C25.5864 65.013 25.3635 65.1362 25.1193 65.1701C23.9425 65.3369 22.8505 65.8777 22.0043 66.7128C21.1581 67.5479 20.6027 68.6331 20.4199 69.8082L58.6502 68.7832C58.5388 68.2679 58.4752 67.7434 58.4603 67.2165ZM75.4005 52.4495C75.7206 51.5332 76.3117 50.7359 77.0951 50.1634C77.8785 49.5909 78.8173 49.2701 79.7871 49.2437C81.0563 49.2243 82.2821 49.7064 83.1983 50.5854C84.1146 51.4643 84.6474 52.6693 84.6814 53.9389C84.6885 54.2036 84.5902 54.4602 84.4082 54.6523C84.2262 54.8445 83.9754 54.9564 83.7109 54.9635C83.4446 54.9707 83.1862 54.873 82.9912 54.6915C82.7962 54.5099 82.6802 54.2591 82.6682 53.9929C82.6483 53.248 82.3334 52.5415 81.7928 52.0288C81.2522 51.5162 80.5303 51.2394 79.7858 51.2594C79.2143 51.2763 78.662 51.4697 78.2046 51.813C77.7473 52.1563 77.4072 52.6328 77.2312 53.1771C77.139 53.429 76.9511 53.6342 76.7084 53.7481C76.4657 53.862 76.1878 53.8753 75.9353 53.7851C75.8092 53.7368 75.6943 53.663 75.5981 53.5682C75.5018 53.4734 75.4262 53.3597 75.3759 53.2343C75.3257 53.1089 75.302 52.9744 75.3062 52.8393C75.3104 52.7043 75.3425 52.5715 75.4005 52.4495ZM67.2066 68.7572C67.6964 68.7441 68.161 68.5368 68.498 68.181C68.8351 67.8251 69.0171 67.3499 69.0039 66.8598C68.9969 66.5952 69.0951 66.3385 69.2771 66.1464C69.4591 65.9542 69.71 65.8423 69.9745 65.8352C70.239 65.8281 70.4955 65.9265 70.6875 66.1086C70.8796 66.2907 70.9914 66.5417 70.9985 66.8063C71.0248 67.7865 70.6609 68.737 69.9867 69.4486C69.3126 70.1603 68.3835 70.5748 67.4038 70.6011C67.1393 70.6082 66.8828 70.5099 66.6908 70.3278C66.4987 70.1456 66.3869 69.8946 66.3798 69.63C66.3727 69.3653 66.4709 69.1087 66.653 68.9166C66.835 68.7244 67.0858 68.6125 67.3503 68.6054L67.2066 68.7572ZM33.459 61.1927C32.7551 61.2115 32.0869 61.5068 31.599 62.0148C31.1111 62.5227 30.8427 63.2025 30.8518 63.9069L30.8984 65.6439C30.9056 65.9103 30.808 66.1688 30.6266 66.3639C30.4451 66.559 30.1945 66.675 29.9284 66.687C29.6639 66.6941 29.4074 66.5957 29.2154 66.4136C29.0233 66.2315 28.9115 65.9805 28.9044 65.7159L28.8548 63.868C28.8458 62.6352 29.3179 61.4475 30.1708 60.5578C31.0237 59.6681 32.19 59.1465 33.4215 59.1041C33.6909 59.0968 33.9521 59.197 34.1477 59.3825C34.3434 59.568 34.4573 59.8236 34.4645 60.0932C34.4759 60.2326 34.4584 60.3729 34.4132 60.5052C34.3679 60.6376 34.2958 60.7591 34.2014 60.8623C34.107 60.9655 33.9924 61.0481 33.8647 61.105C33.7369 61.1618 33.5988 61.1917 33.459 61.1927ZM45.8522 49.8577C45.6467 50.0233 45.385 50.1026 45.1222 50.0785C44.8594 50.0545 44.6162 49.9292 44.4441 49.729C44.187 49.4136 43.861 49.1614 43.4912 48.9918C43.1214 48.8222 42.7177 48.7397 42.311 48.7506C41.5959 48.7698 40.9176 49.0724 40.4255 49.5919C39.9334 50.1114 39.6677 50.8053 39.6869 51.5208C39.694 51.7855 39.5957 52.0421 39.4137 52.2342C39.2317 52.4264 38.9809 52.5383 38.7164 52.5454C38.4518 52.5525 38.1954 52.4542 38.0033 52.272C37.8113 52.0899 37.6993 51.8389 37.6922 51.5743C37.6588 50.3295 38.1211 49.1224 38.9772 48.2186C39.8334 47.3148 41.0134 46.7883 42.2575 46.7549C42.9734 46.7414 43.683 46.8919 44.3318 47.195C44.9807 47.4982 45.5515 47.9458 46.0008 48.5038C46.152 48.7063 46.2207 48.9587 46.1931 49.21C46.1655 49.4613 46.0437 49.6928 45.8522 49.8577Z" fill="white"/>
<path d="M96.3795 3.04931L89.9796 9.74857L104.677 23.6858L111.021 16.9696L96.3795 3.04931Z" fill="white"/>
<path d="M88.2485 79.5825C88.2462 79.3161 88.3486 79.0594 88.5336 78.8676C88.7185 78.6759 88.9713 78.5645 89.2375 78.5574L104.936 78.1366C106.072 78.1061 107.15 77.6252 107.932 76.7997C108.714 75.9742 109.136 74.8716 109.106 73.7346C109.075 72.5976 108.595 71.5193 107.769 70.7369C106.944 69.9544 105.842 69.532 104.706 69.5624L75.0268 70.3582C74.3847 71.8845 73.3165 73.1932 71.9501 74.1277C70.5837 75.0622 68.977 75.5827 67.3225 75.6271C65.6679 75.6715 64.0357 75.2377 62.6212 74.3778C61.2067 73.5179 60.0699 72.2682 59.3469 70.7785L14.3941 71.9838C13.2577 72.0142 12.18 72.4951 11.398 73.3206C10.616 74.1462 10.1938 75.2487 10.2243 76.3857C10.2548 77.5227 10.7354 78.601 11.5605 79.3835C12.3856 80.1659 13.4876 80.5883 14.624 80.5579L82.9582 78.7258C83.2227 78.7187 83.4792 78.817 83.6712 78.9992C83.8633 79.1813 83.9751 79.4323 83.9822 79.6969C83.9893 79.9616 83.8911 80.2182 83.7091 80.4103C83.5271 80.6025 83.2762 80.7144 83.0117 80.7215L17.6694 82.4734L21.3715 105.434C21.4668 106.008 21.7658 106.529 22.2136 106.9C22.6614 107.272 23.2281 107.47 23.8099 107.458L97.1491 105.492C97.7286 105.472 98.2814 105.244 98.7056 104.848C99.1298 104.453 99.3968 103.917 99.4572 103.34L102.016 80.212L89.3095 80.5527C89.1761 80.5587 89.0429 80.5384 88.9175 80.4929C88.792 80.4474 88.6767 80.3776 88.5782 80.2875C88.4796 80.1974 88.3998 80.0888 88.3432 79.9678C88.2866 79.8469 88.2545 79.7159 88.2485 79.5825ZM23.7953 95.8822L23.666 95.8857C23.4235 95.8904 23.1873 95.8081 23.0001 95.6537C22.8129 95.4993 22.6871 95.283 22.6454 95.0439L21.2121 86.3911C21.1905 86.2604 21.195 86.1267 21.2256 85.9978C21.2561 85.8689 21.3121 85.7473 21.39 85.6402C21.468 85.5331 21.5665 85.4427 21.6798 85.3741C21.7931 85.3055 21.9189 85.2601 22.0498 85.2407C22.3102 85.2017 22.5757 85.2654 22.7901 85.4183C23.0045 85.5712 23.1512 85.8015 23.1993 86.0605L24.6141 94.7138C24.6385 94.8445 24.6366 94.9787 24.6085 95.1086C24.5804 95.2385 24.5266 95.3615 24.4504 95.4703C24.3741 95.5792 24.2769 95.6717 24.1644 95.7424C24.0519 95.8131 23.9264 95.8607 23.7953 95.8822ZM80.2099 103.061L77.1072 103.144C76.8427 103.151 76.5862 103.053 76.3941 102.871C76.2021 102.689 76.0902 102.438 76.0832 102.173C76.0761 101.908 76.1743 101.652 76.3563 101.46C76.5383 101.267 76.7892 101.156 77.0537 101.148L80.1564 101.065C80.4209 101.058 80.6774 101.157 80.8694 101.339C81.0615 101.521 81.1733 101.772 81.1804 102.036C81.1875 102.301 81.0893 102.558 80.9073 102.75C80.7253 102.942 80.4744 103.054 80.2099 103.061ZM95.7186 92.8074C95.7332 92.6771 95.7735 92.5509 95.8369 92.4361C95.9003 92.3214 95.9857 92.2202 96.0882 92.1384C96.1907 92.0567 96.3083 91.996 96.4343 91.9597C96.5602 91.9235 96.6922 91.9124 96.8225 91.9272C96.9537 91.9395 97.081 91.9781 97.197 92.0408C97.3129 92.1035 97.4151 92.1889 97.4972 92.2921C97.5794 92.3952 97.6399 92.5139 97.6751 92.6409C97.7103 92.768 97.7195 92.9009 97.7022 93.0316L96.7536 101.767C96.7207 102.005 96.6048 102.223 96.4264 102.383C96.2481 102.544 96.0187 102.636 95.779 102.644L85.9906 102.906C85.7261 102.913 85.4696 102.815 85.2776 102.633C85.0855 102.451 84.9737 102.2 84.9666 101.935C84.9595 101.67 85.0577 101.414 85.2397 101.221C85.4218 101.029 85.6726 100.917 85.9371 100.91L94.9129 100.67L95.7186 92.8074Z" fill="white"/>
</svg>
