<svg width="39" height="39" viewBox="0 0 39 39" fill="none" xmlns="http://www.w3.org/2000/svg">
<circle cx="19.5004" cy="19.5004" r="19.5004" fill="white"/>
<path d="M17.6521 18.3797C17.3824 18.1247 17.0893 17.8998 16.8543 17.6221C15.7247 16.2875 15.3858 14.7464 15.9414 13.0577C16.4969 11.3691 17.6633 10.3503 19.3412 10.0613C21.7589 9.64503 23.9672 11.3978 24.303 13.9502C24.6176 16.3389 22.9995 18.6428 20.735 19.0058C20.3215 19.0718 19.8963 19.0562 19.4797 19.1086C17.0012 19.4206 15.3139 20.8114 14.4141 23.2524C14.1835 23.878 14.0909 24.5366 14.0801 25.207C14.0729 25.6459 14.2846 25.867 14.7094 25.867H19.8932C19.966 25.8635 20.0391 25.8676 20.1112 25.8793C20.2395 25.9066 20.3541 25.9819 20.4334 26.0913C20.5126 26.2007 20.5513 26.3366 20.542 26.4736C20.5328 26.6107 20.4763 26.7395 20.3831 26.8361C20.2899 26.9327 20.1664 26.9904 20.0357 26.9984C20.019 26.9984 20.0019 26.9984 19.9853 26.9984C18.1874 26.9984 16.385 27.005 14.5849 26.9951C13.7039 26.99 13.0117 26.2314 13.0018 25.3008C12.9748 22.3162 14.8312 19.4824 17.4934 18.4429L17.6521 18.3797ZM19.9997 17.947C21.7787 17.9427 23.2323 16.4256 23.2319 14.572C23.2343 14.1223 23.1516 13.6767 22.9884 13.2608C22.8253 12.845 22.585 12.4673 22.2815 12.1497C21.9781 11.8321 21.6174 11.581 21.2206 11.4108C20.8238 11.2406 20.3987 11.1548 19.97 11.1583C18.2112 11.1607 16.7698 12.6966 16.7711 14.5682C16.7725 16.4205 18.2328 17.9493 19.9997 17.947Z" fill="#2E54AA"/>
<path d="M23.5042 23.3211H22.6816C22.3283 23.3211 21.9751 23.3253 21.6222 23.3211C21.5484 23.3266 21.4742 23.316 21.4044 23.2902C21.3346 23.2643 21.2706 23.2236 21.2164 23.1707C21.1623 23.1178 21.1191 23.0537 21.0895 22.9825C21.06 22.9113 21.0447 22.8344 21.0447 22.7568C21.0447 22.6791 21.06 22.6023 21.0895 22.5311C21.1191 22.4599 21.1623 22.3958 21.2164 22.3429C21.2706 22.2899 21.3346 22.2492 21.4044 22.2234C21.4742 22.1975 21.5484 22.187 21.6222 22.1925C22.1827 22.1878 22.7437 22.1925 23.3042 22.1925H23.5033V21.812C23.5033 21.2934 23.5033 20.7749 23.5033 20.2563C23.5033 19.898 23.7312 19.6434 24.0426 19.6463C24.3541 19.6491 24.5762 19.9032 24.5775 20.2638C24.5775 20.888 24.5775 21.5127 24.5802 22.1368C24.5834 22.1557 24.5884 22.1742 24.5951 22.192H24.7672C25.3165 22.192 25.8657 22.192 26.4154 22.192C26.757 22.192 26.9997 22.4277 26.9997 22.7577C26.9997 23.0877 26.7579 23.3234 26.4154 23.3234C25.8104 23.3234 25.2054 23.3234 24.5766 23.3234V23.5186C24.5766 24.09 24.5766 24.6614 24.5766 25.2327C24.5766 25.6099 24.3595 25.8663 24.0426 25.8692C23.7258 25.872 23.5006 25.6122 23.5001 25.2242C23.5037 24.5968 23.5042 23.9726 23.5042 23.3211Z" fill="#2E54AA"/>
</svg>
