<svg width="99" height="98" viewBox="0 0 99 98" fill="none" xmlns="http://www.w3.org/2000/svg">
<path fill-rule="evenodd" clip-rule="evenodd" d="M54.1259 19.1366L64.5929 19.8856L65.1471 11.0242C65.3295 8.10644 63.94 5.47405 62.5964 3.46123C61.651 2.04485 60.0584 1.19662 58.3672 1.0756L53.803 0.748995L53.8029 0.750347L50.7049 0.528666C49.0136 0.407642 47.3297 1.02142 46.2163 2.29046C44.634 4.09391 42.9291 6.50488 42.7467 9.42268L42.1925 18.284L54.1258 19.1379L54.1259 19.1366Z" fill="white"/>
<path fill-rule="evenodd" clip-rule="evenodd" d="M11.2714 27.0991L3.75669 29.5701C2.16291 25.8699 1.87305 22.1369 2.0258 19.4323C2.13739 17.4566 3.60979 15.9087 5.4676 15.2978L8.93951 14.1562L8.93958 14.1564L11.1437 13.4317C13.0015 12.8208 15.0325 13.2166 16.1623 14.7841C17.709 16.93 19.4295 20.1926 20.0539 24.2114L11.2715 27.0993L11.2714 27.0991Z" fill="white"/>
<path fill-rule="evenodd" clip-rule="evenodd" d="M79.8063 31.1498L82.1956 32.2599C82.8363 32.5576 83.5819 32.2431 83.8602 31.5577C84.1384 30.8723 83.8444 30.0749 83.2037 29.7772L80.8143 28.667C80.1737 28.3693 79.428 28.684 79.1497 29.3693C78.8715 30.0546 79.1655 30.8522 79.8063 31.1498ZM78.6458 36.8841C78.9546 37.0275 79.3015 37.0344 79.615 36.902L83.1137 35.4241C83.7635 35.1496 84.0829 34.3637 83.8264 33.6686C83.5698 32.9732 82.8344 32.6318 82.1844 32.9063L78.6856 34.3839C78.0359 34.6583 77.7169 35.4442 77.9729 36.1394C78.0959 36.4737 78.3378 36.7411 78.6458 36.8841ZM84.3117 30.0727C84.6198 30.2156 84.9675 30.2223 85.2799 30.0901C85.9293 29.8152 86.2485 29.0298 85.9921 28.3346L84.6118 24.5915C84.4885 24.2571 84.2475 23.9902 83.9394 23.8471C83.631 23.704 83.284 23.6978 82.9713 23.8296C82.3212 24.1036 82.0019 24.8901 82.2583 25.5853L83.6388 29.3282C83.7623 29.663 84.0033 29.9296 84.3117 30.0727Z" fill="white"/>
<path fill-rule="evenodd" clip-rule="evenodd" d="M80.4642 60.0487L72.9802 78.4809C72.8657 78.7628 72.5473 78.8878 72.2702 78.7591L62.6419 74.2859L70.5411 54.8306L80.1695 59.3037C80.4466 59.4325 80.5786 59.7667 80.4642 60.0487Z" fill="white"/>
<path fill-rule="evenodd" clip-rule="evenodd" d="M95.3253 60.9789L80.7644 96.8407C80.6362 97.1564 80.2919 97.3022 79.9966 97.165L58.1171 86.9999C57.8218 86.8627 57.6862 86.4942 57.8144 86.1785L61.5817 76.9L71.8425 81.667C72.8849 82.1513 74.1015 81.6382 74.5543 80.5231L82.9351 59.8819C83.3879 58.7669 82.908 57.4656 81.8657 56.9813L71.6046 52.2142L72.3746 50.318C73.7324 46.9739 76.7836 44.7014 80.1777 44.4876L93.9828 50.9013C96.1535 53.6996 96.6831 57.635 95.3253 60.9789Z" fill="white"/>
<path fill-rule="evenodd" clip-rule="evenodd" d="M96.7344 33.3204L94.2689 39.3925L88.1809 36.564L90.6463 30.4918C90.6721 30.4284 90.7414 30.3991 90.8014 30.427L96.673 33.1548C96.733 33.1827 96.7602 33.2569 96.7344 33.3204ZM90.5073 35.4147C90.8815 35.5885 91.3167 35.4052 91.4792 35.0049L91.8787 34.0207C92.0413 33.6203 91.8695 33.1551 91.4954 32.9813C91.1202 32.8067 90.686 32.991 90.5235 33.3913L90.124 34.375C89.9614 34.7754 90.132 35.2406 90.5073 35.4147Z" fill="white"/>
<path fill-rule="evenodd" clip-rule="evenodd" d="M95.6678 45.0157L94.3967 48.146L81.629 42.2143L82.9009 39.0845C83.2263 38.2829 84.1122 37.9199 84.8745 38.2741L93.5867 42.3215L93.602 42.3286L94.873 42.9191C95.6365 43.2739 95.9931 44.2146 95.6678 45.0157Z" fill="white"/>
<path fill-rule="evenodd" clip-rule="evenodd" d="M8.58928 78.3225L7.07837 79.7347C6.98197 79.8241 6.90309 79.93 6.83903 80.0482L5.84588 81.9154L4.52603 80.2984C4.44107 80.1957 4.34202 80.1093 4.23277 80.0418L2.48645 78.9815L3.99937 77.5695C4.09374 77.4798 4.17489 77.374 4.23885 77.2554L5.22987 75.3881L6.55179 77.0059C6.63663 77.1081 6.734 77.1951 6.8452 77.2622L8.58928 78.3225Z" fill="white"/>
<path fill-rule="evenodd" clip-rule="evenodd" d="M12.2977 29.892L20.1546 27.3085C21.0276 27.0214 21.9494 26.9545 22.8398 27.1135L23.9297 27.3081L39.3303 80.8988C40.1908 83.8932 38.4891 87.1096 35.5294 88.0829L30.7959 89.6393L30.7961 89.6401L24.8489 91.5956C21.8892 92.5688 18.7923 90.9303 17.9318 87.9359L2.53125 34.3452L3.33073 33.5293C3.9839 32.8628 4.78167 32.3643 5.65467 32.0772L12.2979 29.8927L12.2977 29.892ZM28.6381 52.4789C28.5059 52.0243 28.0542 51.7705 27.6293 51.9119C27.2043 52.0533 26.967 52.5365 27.0992 52.9911L35.3032 81.1967C35.6108 82.254 35.0615 83.3783 34.0744 83.712L32.5195 84.2376C32.0951 84.3811 31.8598 84.8654 31.9939 85.3193C32.128 85.7732 32.5808 86.0249 33.0051 85.8815L34.5601 85.3559C36.3932 84.7362 37.4133 82.6481 36.8421 80.6845L28.6381 52.4789Z" fill="white"/>
<path fill-rule="evenodd" clip-rule="evenodd" d="M52.004 22.1299L64.4762 23.0224L63.5371 38.039C62.9717 47.0806 60.0914 58.5128 58.7219 63.0988L57.9747 63.9186L51.8948 63.4835L51.8948 63.4837L43.349 62.8721L42.7105 61.9532C41.9243 57.213 40.4932 45.4722 41.0586 36.4307L41.9977 21.4141L52.004 22.1301L52.004 22.1299ZM62.5381 25.0783C62.5747 24.6039 62.2448 24.1875 61.8013 24.1483C61.3578 24.1091 60.9685 24.462 60.9319 24.9364L59.7231 40.5959C59.6865 41.0704 60.0164 41.4867 60.4599 41.5259C60.9035 41.5651 61.2927 41.2122 61.3293 40.7378L62.5381 25.0783Z" fill="white"/>
</svg>
