<svg width="60" height="60" viewBox="0 0 60 60" fill="none" xmlns="http://www.w3.org/2000/svg">
<path fill-rule="evenodd" clip-rule="evenodd" d="M32.917 11.8952L39.2827 12.3507L39.6197 6.96158C39.7052 5.59324 39.2224 4.32811 38.6222 3.25938C37.7885 1.77491 36.1404 0.957303 34.4491 0.836279L32.7206 0.712592L32.7206 0.713431L31.8838 0.653551C30.1925 0.532527 28.4573 1.10804 27.4462 2.4605C26.7183 3.43419 26.0822 4.61925 25.9966 5.98759L25.6596 11.3767L32.9169 11.896L32.917 11.8952Z" fill="#002F98"/>
<path fill-rule="evenodd" clip-rule="evenodd" d="M6.85481 16.7372L2.28467 18.24C1.54156 16.5148 1.26455 14.7778 1.2176 13.3199C1.15409 11.3476 2.63848 9.78597 4.49629 9.17508L5.43665 8.86587L5.43669 8.86602L5.60605 8.81033C7.46386 8.19944 9.512 8.59951 10.4952 10.2694C11.2219 11.5038 11.9048 13.1072 12.196 14.9811L6.85485 16.7374L6.85481 16.7372Z" fill="#002F98"/>
<path fill-rule="evenodd" clip-rule="evenodd" d="M48.537 19.2007L49.99 19.8758C50.3797 20.0569 50.8332 19.8656 51.0024 19.4488C51.1716 19.0319 50.9928 18.547 50.6032 18.3659L49.15 17.6908C48.7604 17.5097 48.3069 17.7011 48.1377 18.1179C47.9685 18.5347 48.1473 19.0197 48.537 19.2007ZM47.8312 22.6881C48.0191 22.7753 48.23 22.7795 48.4206 22.699L50.5484 21.8001C50.9436 21.6332 51.1378 21.1553 50.9818 20.7325C50.8258 20.3096 50.3785 20.102 49.9832 20.2689L47.8554 21.1676C47.4603 21.3344 47.2663 21.8124 47.422 22.2352C47.4968 22.4385 47.6439 22.6011 47.8312 22.6881ZM51.277 18.5456C51.4644 18.6326 51.6758 18.6367 51.8658 18.5562C52.2607 18.3891 52.4549 17.9114 52.299 17.4886L51.4595 15.2122C51.3845 15.0088 51.238 14.8465 51.0506 14.7595C50.863 14.6725 50.652 14.6687 50.4618 14.7488C50.0665 14.9155 49.8723 15.3938 50.0282 15.8166L50.8678 18.0929C50.9429 18.2965 51.0894 18.4586 51.277 18.5456Z" fill="#002F98"/>
<path fill-rule="evenodd" clip-rule="evenodd" d="M48.9384 36.7759L44.3869 47.9857C44.3173 48.1572 44.1236 48.2331 43.9551 48.1549L38.0996 45.4344L42.9036 33.6026L48.7592 36.3229C48.9277 36.4012 49.008 36.6045 48.9384 36.7759Z" fill="#002F98"/>
<path fill-rule="evenodd" clip-rule="evenodd" d="M57.974 37.3417L49.1187 59.1513C49.0407 59.3434 48.8313 59.432 48.6517 59.3485L35.3455 53.1665C35.1659 53.0831 35.0834 52.859 35.1614 52.667L37.4525 47.0242L43.6927 49.9233C44.3267 50.2178 45.0665 49.9058 45.3419 49.2276L50.4388 36.6745C50.7141 35.9964 50.4223 35.205 49.7884 34.9105L43.5481 32.0113L44.0163 30.8581C44.8421 28.8243 46.6977 27.4423 48.7618 27.3123L57.1575 31.2129C58.4777 32.9147 58.7998 35.308 57.974 37.3417Z" fill="#002F98"/>
<path fill-rule="evenodd" clip-rule="evenodd" d="M58.8297 20.5208L57.3302 24.2136L53.6278 22.4934L55.1271 18.8006C55.1428 18.762 55.1849 18.7442 55.2214 18.7612L58.7923 20.4201C58.8288 20.437 58.8454 20.4822 58.8297 20.5208ZM55.0426 21.7945C55.2701 21.9002 55.5348 21.7887 55.6337 21.5453L55.8766 20.9467C55.9755 20.7032 55.871 20.4203 55.6435 20.3146C55.4153 20.2084 55.1513 20.3205 55.0524 20.564L54.8095 21.1622C54.7106 21.4057 54.8143 21.6886 55.0426 21.7945Z" fill="#002F98"/>
<path fill-rule="evenodd" clip-rule="evenodd" d="M58.1834 27.6336L57.4104 29.5372L49.6456 25.9298L50.4191 24.0264C50.617 23.5389 51.1557 23.3182 51.6193 23.5335L56.9178 25.995L56.927 25.9994L57.7001 26.3585C58.1644 26.5742 58.3812 27.1463 58.1834 27.6336Z" fill="#002F98"/>
<path fill-rule="evenodd" clip-rule="evenodd" d="M5.22591 47.89L4.30703 48.7488C4.24841 48.8032 4.20043 48.8676 4.16147 48.9395L3.55748 50.075L2.7548 49.0916C2.70313 49.0292 2.64289 48.9767 2.57645 48.9356L1.51441 48.2908L2.4345 47.4321C2.4919 47.3775 2.54125 47.3132 2.58015 47.241L3.18285 46.1054L3.98679 47.0893C4.03838 47.1515 4.0976 47.2044 4.16522 47.2452L5.22591 47.89Z" fill="#002F98"/>
<path fill-rule="evenodd" clip-rule="evenodd" d="M7.48257 18.4367L11.7399 17.0367C12.6129 16.7497 13.5347 16.6827 14.4251 16.8417L14.5567 16.8652L23.3122 47.3325C24.1727 50.3269 22.471 53.5433 19.5113 54.5165L18.7324 54.7726L18.7325 54.773L17.2156 55.2718C14.2559 56.245 11.159 54.6065 10.2985 51.6121L1.54297 21.1449L1.63946 21.0464C2.29262 20.3799 3.0904 19.8814 3.9634 19.5943L7.48269 18.4371L7.48257 18.4367ZM17.4201 32.1731C17.3397 31.8967 17.065 31.7423 16.8066 31.8283C16.5481 31.9143 16.4038 32.2081 16.4842 32.4846L21.4736 49.6381C21.6606 50.2811 21.3266 50.9649 20.7263 51.1678L19.7806 51.4875C19.5225 51.5747 19.3794 51.8693 19.461 52.1453C19.5425 52.4214 19.8179 52.5745 20.076 52.4872L21.0216 52.1676C22.1364 51.7907 22.7568 50.5208 22.4095 49.3266L17.4201 32.1731Z" fill="#002F98"/>
<path fill-rule="evenodd" clip-rule="evenodd" d="M31.6271 13.7153L39.2122 14.2581L38.6411 23.3906C38.2972 28.8893 36.5455 35.8419 35.7127 38.6309L35.2582 39.1295L31.5609 38.8649L31.5609 38.8651L26.3637 38.4932L25.9753 37.9343C25.4972 35.0515 24.6269 27.9112 24.9707 22.4125L25.5419 13.28L31.6271 13.7155L31.6271 13.7153ZM38.0337 15.5084C38.056 15.2199 37.8554 14.9667 37.5856 14.9428C37.3159 14.919 37.0791 15.1336 37.0569 15.4222L36.3218 24.9456C36.2995 25.2342 36.5001 25.4874 36.7698 25.5112C37.0396 25.535 37.2763 25.3204 37.2986 25.0319L38.0337 15.5084Z" fill="#002F98"/>
</svg>
