<svg width="80" height="60" viewBox="0 0 80 60" fill="none" xmlns="http://www.w3.org/2000/svg">
<path d="M60.1459 42.1024L29.6344 21.7491C29.3962 21.5902 29.2307 21.3429 29.1741 21.0614C29.1176 20.78 29.1747 20.4875 29.3329 20.2483C29.4113 20.1299 29.5121 20.0281 29.6297 19.9487C29.7472 19.8694 29.8792 19.8141 30.018 19.786C30.1569 19.7579 30.2999 19.7575 30.4389 19.7849C30.5778 19.8123 30.7101 19.8669 30.828 19.9457L61.3395 40.2989C61.5777 40.4578 61.7432 40.7052 61.7998 40.9866C61.8563 41.2681 61.7992 41.5605 61.6409 41.7997C61.5626 41.9182 61.4618 42.02 61.3442 42.0993C61.2267 42.1786 61.0947 42.2339 60.9559 42.262C60.817 42.2901 60.674 42.2905 60.535 42.2631C60.3961 42.2357 60.2638 42.1811 60.1459 42.1024Z" fill="#002F98"/>
<path fill-rule="evenodd" clip-rule="evenodd" d="M77.2931 27.5878L78.6663 25.5125C78.8224 25.2765 78.9307 25.0118 78.985 24.7338C79.0393 24.4557 79.0384 24.1697 78.9825 23.8919C78.9266 23.6142 78.8168 23.3502 78.6592 23.1152C78.5017 22.8801 78.2996 22.6784 78.0644 22.5218L44.8419 0.360369C44.3674 0.0438201 43.787 -0.0704993 43.2285 0.0425526C42.67 0.155604 42.179 0.48677 41.8637 0.963213L40.4905 3.03858L40.1864 3.4981L40.4903 3.03884L67.0492 20.7555L67.2515 20.8898L77.2915 27.5877L75.8318 29.7938L74.6118 31.6375L73.3818 33.4963L72.596 34.6839L72.3436 34.5155L68.0296 31.6375L66.5054 30.6208L58.3989 25.2133L48.2694 18.456L35.7952 10.1348L35.795 10.1351L30.2885 18.4565L29.6059 19.4884C29.2906 19.9649 29.1768 20.5477 29.2895 21.1085C29.4022 21.6693 29.7321 22.1621 30.2066 22.4787L58.399 41.2849L61.1807 43.1404L61.7848 43.5434L63.4288 44.6401C63.6638 44.7969 63.9272 44.9057 64.2041 44.9602C64.4809 45.0147 64.7658 45.014 65.0424 44.9579C65.3189 44.9019 65.5818 44.7918 65.816 44.6337C66.0501 44.4757 66.251 44.2729 66.407 44.0369L72.3571 35.0461L72.5965 34.684L73.3823 33.4968L74.6123 31.6379L75.833 29.7943L77.2931 27.5878Z" fill="#002F98"/>
<path d="M37.9617 37.0852H28.2357C27.6402 37.0852 27.1575 37.5699 27.1575 38.1678V38.1681C27.1575 38.766 27.6402 39.2507 28.2357 39.2507H37.9617C38.5571 39.2507 39.0399 38.766 39.0399 38.1681V38.1678C39.0399 37.5699 38.5571 37.0852 37.9617 37.0852Z" fill="#002F98"/>
<path fill-rule="evenodd" clip-rule="evenodd" d="M44.1836 34.6832V56.9228C44.1835 57.495 43.957 58.0437 43.554 58.4482C43.1511 58.8528 42.6045 59.08 42.0347 59.08H2.14851C1.57872 59.0799 1.03229 58.8526 0.629392 58.4481C0.22649 58.0436 9.56103e-05 57.4949 0 56.9228V34.6832C9.55758e-05 34.1111 0.226465 33.5624 0.629357 33.1578C1.03225 32.7532 1.57869 32.5258 2.14851 32.5256H42.0347C42.6046 32.5257 43.1511 32.7531 43.5541 33.1577C43.957 33.5623 44.1835 34.111 44.1836 34.6832ZM10.7728 38.7375H3.75539C3.49907 38.7375 3.29128 38.9462 3.29128 39.2035V43.7989C3.29128 44.0562 3.49907 44.2649 3.75539 44.2649H10.7728C11.0291 44.2649 11.2369 44.0562 11.2369 43.7989V39.2035C11.2369 38.9462 11.0291 38.7375 10.7728 38.7375ZM4.42604 50.2484H9.60762C9.89352 50.2484 10.1677 50.1344 10.3699 49.9314C10.5721 49.7285 10.6857 49.4532 10.6858 49.1662C10.6859 49.0239 10.6581 48.8831 10.604 48.7517C10.5498 48.6202 10.4704 48.5008 10.3703 48.4002C10.2702 48.2996 10.1513 48.2198 10.0204 48.1653C9.88954 48.1109 9.74927 48.0829 9.60762 48.0829H4.42604C4.28442 48.0829 4.14417 48.1109 4.01333 48.1653C3.88249 48.2197 3.76362 48.2995 3.6635 48.4001C3.56337 48.5006 3.48395 48.62 3.42979 48.7514C3.37562 48.8828 3.34776 49.0236 3.34781 49.1658C3.34781 49.4529 3.46142 49.7283 3.66362 49.9313C3.86583 50.1343 4.14008 50.2484 4.42604 50.2484ZM22.4171 55.5744H4.42604C4.28443 55.5744 4.1442 55.5464 4.01336 55.492C3.88253 55.4377 3.76365 55.3579 3.66351 55.2574C3.56338 55.1568 3.48396 55.0375 3.42979 54.9061C3.37562 54.7747 3.34776 54.634 3.34781 54.4918C3.34781 54.2047 3.46142 53.9293 3.66362 53.7263C3.86583 53.5233 4.14008 53.4092 4.42604 53.4092H22.4171C22.7031 53.4092 22.9774 53.5233 23.1796 53.7263C23.3818 53.9293 23.4954 54.2047 23.4954 54.4918C23.4954 54.6339 23.4675 54.7747 23.4133 54.9061C23.3591 55.0374 23.2797 55.1567 23.1796 55.2573C23.0794 55.3578 22.9606 55.4375 22.8298 55.4919C22.699 55.5464 22.5587 55.5744 22.4171 55.5744ZM14.5042 50.248H19.6858C19.8275 50.2482 19.9678 50.2203 20.0987 50.166C20.2296 50.1117 20.3486 50.032 20.4488 49.9315C20.549 49.831 20.6286 49.7116 20.6828 49.5802C20.7371 49.4489 20.7651 49.308 20.7651 49.1658C20.7652 49.0236 20.7373 48.8828 20.6831 48.7514C20.629 48.62 20.5496 48.5006 20.4494 48.4001C20.3493 48.2995 20.2304 48.2197 20.0996 48.1653C19.9688 48.1109 19.8285 48.0829 19.6869 48.0829H14.5053C14.3637 48.0829 14.2235 48.1109 14.0926 48.1653C13.9618 48.2197 13.8429 48.2995 13.7428 48.4001C13.6426 48.5006 13.5632 48.62 13.5091 48.7514C13.4549 48.8828 13.427 49.0236 13.4271 49.1658C13.4272 49.4527 13.5407 49.7278 13.7426 49.9307C13.9446 50.1336 14.2185 50.2477 14.5042 50.248ZM29.7655 50.2484H24.5846C24.2986 50.2484 24.0244 50.1343 23.8222 49.9313C23.62 49.7283 23.5064 49.4529 23.5064 49.1658C23.5064 48.8787 23.62 48.6033 23.8222 48.4002C24.0244 48.1971 24.2986 48.083 24.5846 48.0829H29.7655C30.0515 48.0829 30.3258 48.197 30.5281 48.4001C30.7304 48.6031 30.844 48.8786 30.844 49.1658C30.8439 49.453 30.7303 49.7283 30.528 49.9313C30.3257 50.1343 30.0515 50.2484 29.7655 50.2484ZM34.6595 50.2484H39.8415C40.1274 50.2484 40.4017 50.1343 40.6039 49.9313C40.8061 49.7283 40.9197 49.4529 40.9197 49.1658C40.9197 48.8787 40.8061 48.6033 40.6039 48.4002C40.4017 48.1971 40.1275 48.083 39.8415 48.0829H34.6595C34.3735 48.083 34.0993 48.1971 33.8971 48.4002C33.6949 48.6033 33.5813 48.8787 33.5813 49.1658C33.5813 49.4529 33.6949 49.7283 33.8971 49.9313C34.0993 50.1343 34.3736 50.2484 34.6595 50.2484Z" fill="#002F98"/>
</svg>
