<svg width="124" height="93" viewBox="0 0 124 93" fill="none" xmlns="http://www.w3.org/2000/svg">
<path d="M123.437 40.0317L104.2 69.0985C103.956 69.4688 103.64 69.787 103.273 70.035C102.906 70.2829 102.493 70.4558 102.059 70.5437C101.625 70.6316 101.178 70.6328 100.744 70.5472C100.309 70.4617 99.896 70.291 99.5273 70.045L47.3982 35.2714C46.6536 34.7747 46.1359 34.0013 45.9592 33.1214C45.7824 32.2415 45.9609 31.3271 46.4556 30.5793L65.6894 1.51138C66.1842 0.763793 66.9545 0.24416 67.8309 0.0667695C68.7072 -0.110621 69.6179 0.0687584 70.3626 0.565457L122.492 35.3391C122.861 35.5848 123.178 35.9012 123.425 36.2701C123.673 36.639 123.845 37.0531 123.933 37.4889C124.02 37.9247 124.022 38.3736 123.937 38.8099C123.851 39.2462 123.682 39.6614 123.437 40.0317Z" fill="white"/>
<path d="M121.279 43.2883L113.911 54.423L56.166 15.9026L63.5337 4.76855L105.207 32.5679L105.525 32.7787L121.279 43.2883Z" fill="#01B2FE"/>
<path d="M69.3286 54.4216V89.3179C69.3285 90.2156 68.9732 91.0766 68.3408 91.7114C67.7085 92.3461 66.851 92.7027 65.9568 92.7027H3.37123C2.47717 92.7026 1.61978 92.3459 0.987582 91.7112C0.355386 91.0764 0.000150023 90.2155 0 89.3179V54.4216C0.000149968 53.5238 0.355347 52.6629 0.987527 52.0281C1.61971 51.3932 2.47712 51.0364 3.37123 51.0361H65.9568C66.851 51.0363 67.7086 51.393 68.3409 52.0279C68.9732 52.6627 69.3285 53.5237 69.3286 54.4216Z" fill="white"/>
<path d="M16.9034 60.7832H5.89229C5.4901 60.7832 5.16406 61.1106 5.16406 61.5144V68.725C5.16406 69.1288 5.4901 69.4561 5.89229 69.4561H16.9034C17.3056 69.4561 17.6316 69.1288 17.6316 68.725V61.5144C17.6316 61.1106 17.3056 60.7832 16.9034 60.7832Z" fill="#01B2FE"/>
<path d="M15.0762 78.845H6.94578C6.49708 78.845 6.06675 78.6661 5.74946 78.3475C5.43218 78.0289 5.25392 77.5969 5.25392 77.1463C5.25385 76.9232 5.29757 76.7023 5.38256 76.4961C5.46755 76.2899 5.59216 76.1026 5.74927 75.9448C5.90638 75.787 6.0929 75.6618 6.2982 75.5764C6.5035 75.491 6.72356 75.4471 6.94578 75.4471H15.0762C15.2985 75.4471 15.5186 75.4911 15.7239 75.5765C15.9293 75.6619 16.1158 75.7872 16.2729 75.945C16.43 76.1029 16.5547 76.2903 16.6396 76.4965C16.7246 76.7027 16.7682 76.9237 16.7681 77.1469C16.7679 77.5973 16.5896 78.0292 16.2723 78.3477C15.9551 78.6661 15.5248 78.845 15.0762 78.845Z" fill="#01B2FE"/>
<path d="M35.1757 87.202H6.94578C6.72358 87.2021 6.50355 87.1582 6.29825 87.0729C6.09295 86.9876 5.90642 86.8624 5.7493 86.7047C5.59218 86.5469 5.46755 86.3596 5.38256 86.1535C5.29756 85.9474 5.25385 85.7265 5.25392 85.5034C5.25392 85.0529 5.43218 84.6208 5.74946 84.3022C6.06675 83.9837 6.49708 83.8047 6.94578 83.8047H35.1757C35.6244 83.8047 36.0547 83.9837 36.372 84.3022C36.6893 84.6208 36.8676 85.0529 36.8676 85.5034C36.8676 85.7264 36.8238 85.9473 36.7388 86.1534C36.6537 86.3595 36.5291 86.5468 36.372 86.7045C36.2149 86.8623 36.0284 86.9874 35.8232 87.0727C35.6179 87.1581 35.3979 87.202 35.1757 87.202Z" fill="#01B2FE"/>
<path d="M30.889 78.8446H22.7585C22.3102 78.8442 21.8804 78.6651 21.5635 78.3467C21.2466 78.0283 21.0685 77.5966 21.0684 77.1465C21.0683 76.9234 21.112 76.7024 21.197 76.4963C21.282 76.2901 21.4066 76.1028 21.5637 75.945C21.7208 75.7872 21.9073 75.662 22.1126 75.5766C22.3179 75.4912 22.538 75.4473 22.7602 75.4473H30.8906C31.1129 75.4473 31.3329 75.4912 31.5382 75.5766C31.7435 75.662 31.93 75.7872 32.0871 75.945C32.2443 76.1028 32.3689 76.2901 32.4539 76.4963C32.5388 76.7024 32.5826 76.9234 32.5825 77.1465C32.5824 77.3697 32.5386 77.5907 32.4534 77.7968C32.3682 78.0029 32.2434 78.1902 32.0862 78.3479C31.9289 78.5056 31.7422 78.6306 31.5368 78.7159C31.3314 78.8011 31.1112 78.8449 30.889 78.8446Z" fill="#01B2FE"/>
<path d="M46.7059 78.8452H38.5766C38.1279 78.8452 37.6976 78.6662 37.3803 78.3477C37.063 78.0291 36.8848 77.597 36.8848 77.1465C36.8848 76.696 37.063 76.2638 37.3803 75.9452C37.6975 75.6265 38.1278 75.4474 38.5766 75.4473H46.7059C47.1548 75.4473 47.5852 75.6263 47.9026 75.945C48.22 76.2636 48.3983 76.6959 48.3983 77.1465C48.3982 77.5971 48.2198 78.0292 47.9024 78.3477C47.585 78.6663 47.1547 78.8452 46.7059 78.8452Z" fill="#01B2FE"/>
<path d="M62.5162 78.8452H54.3852C53.9365 78.8452 53.5062 78.6662 53.1889 78.3477C52.8716 78.0291 52.6934 77.597 52.6934 77.1465C52.6934 76.696 52.8716 76.2638 53.1889 75.9452C53.5061 75.6265 53.9364 75.4474 54.3852 75.4473H62.5162C62.965 75.4474 63.3953 75.6265 63.7126 75.9452C64.0298 76.2638 64.208 76.696 64.208 77.1465C64.208 77.597 64.0298 78.0291 63.7125 78.3477C63.3952 78.6662 62.9649 78.8452 62.5162 78.8452Z" fill="#01B2FE"/>
</svg>
