<svg width="124" height="93" viewBox="0 0 124 93" fill="none" xmlns="http://www.w3.org/2000/svg">
<g clip-path="url(#clip0_10_32)">
<path fill-rule="evenodd" clip-rule="evenodd" d="M104.2 69.0985L123.437 40.0317C123.682 39.6614 123.851 39.2462 123.937 38.8099C124.022 38.3736 124.02 37.9247 123.933 37.4889C123.845 37.0531 123.673 36.639 123.425 36.2701C123.178 35.9012 122.861 35.5848 122.492 35.3391L70.3626 0.565457C69.6179 0.0687585 68.7072 -0.110621 67.8309 0.0667696C66.9545 0.24416 66.1842 0.763793 65.6894 1.51138L63.534 4.76876L105.207 32.5679L105.525 32.7787L121.279 43.2883L113.911 54.423L56.1666 15.903L46.4556 30.5793C45.9609 31.3271 45.7824 32.2415 45.9592 33.1214C46.1359 34.0013 46.6536 34.7747 47.3982 35.2714L99.5273 70.045C99.896 70.291 100.309 70.4617 100.744 70.5472C101.178 70.6328 101.625 70.6316 102.059 70.5437C102.493 70.4558 102.906 70.2829 103.273 70.035C103.64 69.787 103.956 69.4688 104.2 69.0985Z" fill="white"/>
<path fill-rule="evenodd" clip-rule="evenodd" d="M69.3286 54.4216V89.3179C69.3285 90.2156 68.9732 91.0766 68.3408 91.7114C67.7085 92.3461 66.851 92.7027 65.9568 92.7027H3.37123C2.47717 92.7026 1.61978 92.3459 0.987582 91.7112C0.355386 91.0764 0.000150023 90.2155 0 89.3179V54.4216C0.000149968 53.5238 0.355347 52.6629 0.987527 52.0281C1.61971 51.3932 2.47712 51.0364 3.37123 51.0361H65.9568C66.851 51.0363 67.7086 51.393 68.3409 52.0279C68.9732 52.6627 69.3285 53.5237 69.3286 54.4216ZM16.9034 60.7832H5.89229C5.4901 60.7832 5.16406 61.1106 5.16406 61.5144V68.725C5.16406 69.1288 5.4901 69.4561 5.89229 69.4561H16.9034C17.3056 69.4561 17.6316 69.1288 17.6316 68.725V61.5144C17.6316 61.1106 17.3056 60.7832 16.9034 60.7832ZM6.94577 78.845H15.0762C15.5248 78.845 15.9551 78.6661 16.2723 78.3477C16.5896 78.0292 16.7679 77.5973 16.7681 77.1469C16.7682 76.9237 16.7246 76.7027 16.6396 76.4965C16.5547 76.2903 16.43 76.1029 16.2729 75.945C16.1158 75.7872 15.9293 75.6619 15.7239 75.5765C15.5186 75.4911 15.2985 75.4471 15.0762 75.4471H6.94577C6.72355 75.4471 6.50349 75.491 6.29819 75.5764C6.09289 75.6618 5.90637 75.787 5.74926 75.9448C5.59215 76.1026 5.46754 76.2899 5.38255 76.4961C5.29756 76.7023 5.25384 76.9232 5.25391 77.1463C5.25391 77.5969 5.43217 78.0289 5.74945 78.3475C6.06674 78.6661 6.49707 78.845 6.94577 78.845ZM35.1757 87.202H6.94577C6.72357 87.2021 6.50354 87.1582 6.29824 87.0729C6.09294 86.9876 5.90641 86.8624 5.74929 86.7047C5.59217 86.5469 5.46754 86.3596 5.38255 86.1535C5.29755 85.9474 5.25384 85.7265 5.25391 85.5034C5.25391 85.0529 5.43217 84.6208 5.74945 84.3022C6.06674 83.9837 6.49707 83.8047 6.94577 83.8047H35.1757C35.6244 83.8047 36.0547 83.9837 36.372 84.3022C36.6893 84.6208 36.8676 85.0529 36.8676 85.5034C36.8676 85.7264 36.8238 85.9473 36.7388 86.1534C36.6537 86.3595 36.5291 86.5468 36.372 86.7045C36.2149 86.8623 36.0284 86.9874 35.8232 87.0727C35.6179 87.1581 35.3979 87.202 35.1757 87.202ZM22.7585 78.8446H30.889C31.1112 78.8449 31.3314 78.8011 31.5368 78.7159C31.7422 78.6306 31.9289 78.5056 32.0862 78.3479C32.2434 78.1902 32.3682 78.0029 32.4534 77.7968C32.5386 77.5907 32.5824 77.3697 32.5825 77.1465C32.5826 76.9234 32.5388 76.7024 32.4539 76.4963C32.3689 76.2901 32.2443 76.1028 32.0871 75.945C31.93 75.7872 31.7435 75.662 31.5382 75.5766C31.3329 75.4912 31.1129 75.4473 30.8906 75.4473H22.7602C22.538 75.4473 22.3179 75.4912 22.1126 75.5766C21.9073 75.662 21.7208 75.7872 21.5637 75.945C21.4066 76.1028 21.282 76.2901 21.197 76.4963C21.112 76.7024 21.0683 76.9234 21.0684 77.1465C21.0685 77.5966 21.2466 78.0283 21.5635 78.3467C21.8804 78.6651 22.3102 78.8442 22.7585 78.8446ZM46.7059 78.8452H38.5766C38.1279 78.8452 37.6976 78.6662 37.3803 78.3477C37.063 78.0291 36.8848 77.597 36.8848 77.1465C36.8848 76.696 37.063 76.2638 37.3803 75.9452C37.6975 75.6265 38.1278 75.4474 38.5766 75.4473H46.7059C47.1548 75.4473 47.5852 75.6263 47.9026 75.945C48.22 76.2636 48.3983 76.6959 48.3983 77.1465C48.3982 77.5971 48.2198 78.0292 47.9024 78.3477C47.585 78.6663 47.1547 78.8452 46.7059 78.8452ZM54.3852 78.8452H62.5162C62.9649 78.8452 63.3952 78.6662 63.7125 78.3477C64.0298 78.0291 64.208 77.597 64.208 77.1465C64.208 76.696 64.0298 76.2638 63.7126 75.9452C63.3953 75.6265 62.965 75.4474 62.5162 75.4473H54.3852C53.9364 75.4474 53.5061 75.6265 53.1889 75.9452C52.8716 76.2638 52.6934 76.696 52.6934 77.1465C52.6934 77.597 52.8716 78.0291 53.1889 78.3477C53.5062 78.6662 53.9365 78.8452 54.3852 78.8452Z" fill="white"/>
</g>
<defs>
<clipPath id="clip0_10_32">
<rect width="124" height="93" fill="white"/>
</clipPath>
</defs>
</svg>
