<svg width="98" height="98" viewBox="0 0 98 98" fill="none" xmlns="http://www.w3.org/2000/svg">
<path d="M39.6328 0.859375C40.8469 2.66808 42.4869 4.15009 44.4083 5.17484C46.3297 6.19959 48.4735 6.73559 50.6507 6.73559C52.8279 6.73559 54.9717 6.19959 56.8931 5.17484C58.8145 4.15009 60.4545 2.66808 61.6686 0.859375C54.4478 2.77335 46.8536 2.77335 39.6328 0.859375Z" fill="white"/>
<path d="M49.6359 51.5078C49.677 46.5859 48.256 41.7627 45.5533 37.6505C42.8505 33.5383 38.9879 30.3224 34.4557 28.4111C29.9235 26.4997 24.926 25.9792 20.0977 26.9154C15.2693 27.8516 10.8278 30.2024 7.3368 33.6695C3.8458 37.1365 1.46277 41.5634 0.490167 46.3883C-0.482433 51.2132 -0.000800218 56.2185 1.87405 60.7689C3.7489 65.3194 6.9324 69.2097 11.0204 71.9462C15.1084 74.6827 19.9166 76.1419 24.8348 76.1386C31.3852 76.157 37.6753 73.574 42.325 68.9563C46.9746 64.3386 49.6039 58.0635 49.6359 51.5078ZM5.5815 45.2464C5.5168 45.4333 5.39553 45.5954 5.23445 45.7102C5.07336 45.8249 4.88055 45.8865 4.68285 45.8864C4.58558 45.9025 4.48624 45.9025 4.38897 45.8864C4.15459 45.8038 3.96187 45.6326 3.85204 45.4095C3.74221 45.1864 3.72405 44.9292 3.80141 44.6929C5.63767 39.2544 9.50977 34.7405 14.6033 32.1007C14.7122 32.0436 14.8312 32.0087 14.9536 31.9978C15.076 31.9869 15.1995 32.0003 15.3167 32.0373C15.4339 32.0743 15.5427 32.134 15.6367 32.2132C15.7308 32.2923 15.8084 32.3893 15.8649 32.4985C15.9219 32.6075 15.9569 32.7267 15.9678 32.8492C15.9786 32.9717 15.9652 33.0952 15.9283 33.2125C15.8914 33.3298 15.8317 33.4387 15.7526 33.5329C15.6735 33.627 15.5766 33.7046 15.4674 33.7612C10.8166 36.1718 7.27508 40.2862 5.5815 45.2464ZM10.5936 50.3316C10.5936 47.5792 11.6862 44.9395 13.6309 42.9932C15.5756 41.0469 18.2132 39.9535 20.9634 39.9535C23.2186 39.9535 25.3814 40.8501 26.9761 42.4461C28.5707 44.042 29.4666 46.2066 29.4666 48.4636C29.4442 50.2916 28.7087 52.0384 27.417 53.3311C26.1254 54.6238 24.3799 55.3599 22.5534 55.3823C21.0179 55.3823 19.5453 54.7719 18.4595 53.6852C17.3737 52.5985 16.7637 51.1247 16.7637 49.5879C16.7946 49.3598 16.907 49.1507 17.0802 48.9994C17.2534 48.848 17.4756 48.7645 17.7055 48.7645C17.9355 48.7645 18.1577 48.848 18.3309 48.9994C18.5041 49.1507 18.6165 49.3598 18.6474 49.5879C18.6474 50.6246 19.059 51.6189 19.7916 52.352C20.5241 53.0851 21.5175 53.497 22.5534 53.497C23.9285 53.497 25.2474 52.9503 26.2197 51.9771C27.1921 51.004 27.7383 49.6841 27.7383 48.3079C27.7337 46.5493 27.0325 44.8643 25.7884 43.6225C24.5443 42.3806 22.8589 41.6832 21.1017 41.6832C18.8419 41.6832 16.6746 42.5816 15.0767 44.1808C13.4788 45.78 12.5812 47.949 12.5812 50.2106C12.5858 53.0993 13.7344 55.8683 15.7753 57.9109C17.8163 59.9535 20.5831 61.1031 23.4695 61.1076C27.1365 61.1076 30.6533 59.6497 33.2462 57.0547C35.8392 54.4597 37.2959 50.9401 37.2959 47.2701C37.2959 47.0224 37.3942 46.7848 37.5692 46.6096C37.7442 46.4345 37.9816 46.3361 38.2291 46.3361C38.4766 46.3361 38.714 46.4345 38.889 46.6096C39.0641 46.7848 39.1624 47.0224 39.1624 47.2701C39.1578 51.4387 37.5012 55.4352 34.5559 58.3828C31.6107 61.3304 27.6174 62.9884 23.4522 62.993C20.0707 63.0161 16.8181 61.6961 14.4076 59.3226C11.9971 56.9491 10.6256 53.7158 10.5936 50.3316Z" fill="white"/>
<path d="M84.5849 8.8868C83.9607 7.69994 82.9014 6.80107 81.6295 6.37872L63.8453 0.601562C62.5812 3.0189 60.6799 5.04378 58.3477 6.45664C56.0155 7.86949 53.3413 8.6164 50.6151 8.6164C47.8889 8.6164 45.2148 7.86949 42.8826 6.45664C40.5504 5.04378 38.6491 3.0189 37.385 0.601562L19.6527 6.37872C18.3687 6.78726 17.2995 7.68942 16.68 8.8868C14.3987 13.2975 10.0779 21.8941 6.72501 29.816C6.4312 30.629 5.98181 31.3728 5.61887 32.1511L4.99671 33.4311C4.83521 33.7688 4.65638 34.0978 4.46094 34.417C7.28589 30.9775 10.9282 28.3026 15.0542 26.6375C19.1801 24.9723 23.6575 24.3702 28.0763 24.8863C32.4951 25.4024 36.7138 27.0201 40.3457 29.5913C43.9777 32.1625 46.9067 35.6049 48.8644 39.603C50.8221 43.6011 51.746 48.027 51.5511 52.475C51.3562 56.9231 50.0489 61.2511 47.749 65.0623C45.4492 68.8735 42.2303 72.0461 38.3874 74.2893C34.5445 76.5325 30.2006 77.7745 25.7536 77.9015C25.7536 78.6798 25.5116 79.4409 25.3906 80.2192C25.4172 80.333 25.4172 80.4514 25.3906 80.5652C24.9067 86.7921 24.3364 91.9984 24.1117 93.9011C41.4328 98.9052 59.8148 98.9052 77.1359 93.9011C75.9269 83.755 75.2347 73.554 75.0619 63.3375C75.1373 53.8234 75.7142 44.32 76.7902 34.8667C76.814 34.6535 76.9118 34.4553 77.0665 34.3067C77.2213 34.1582 77.4232 34.0687 77.6371 34.0538C77.8475 34.0303 78.0597 34.0792 78.2387 34.1924C78.4177 34.3055 78.553 34.4762 78.6222 34.6765L81.5085 43.3249C87.2555 42.9212 92.7643 40.8673 97.3744 37.4094C94.3498 28.2766 87.402 14.4737 84.5849 8.8868ZM27.8621 8.50626L21.0872 10.7203C21.0192 10.7373 20.9559 10.7695 20.902 10.8145C20.8482 10.8594 20.8051 10.9159 20.7761 10.9797C19.9119 12.7094 18.5638 15.2693 17.0775 18.3309C16.9979 18.4871 16.8766 18.6182 16.7272 18.7098C16.5777 18.8014 16.4059 18.8498 16.2307 18.8498C16.0943 18.8822 15.9523 18.8822 15.8159 18.8498C15.5927 18.7382 15.4222 18.5433 15.3414 18.307C15.2606 18.0708 15.2758 17.8122 15.3838 17.5871C16.8874 14.5083 18.2354 11.8792 19.0996 10.2014C19.3966 9.63236 19.9059 9.20351 20.5168 9.00786L27.2745 6.81115C27.5129 6.73455 27.7718 6.75518 27.9951 6.86853C28.2184 6.98188 28.388 7.1788 28.467 7.41655C28.5148 7.64996 28.4715 7.89278 28.3462 8.09535C28.2209 8.29792 28.023 8.44492 27.793 8.50626H27.8621Z" fill="white"/>
</svg>
