<svg width="51" height="50" viewBox="0 0 51 50" fill="none" xmlns="http://www.w3.org/2000/svg">
<path d="M20.3785 0.132324C21.0028 1.06233 21.8461 1.82436 22.834 2.35127C23.822 2.87818 24.9243 3.15379 26.0438 3.15379C27.1633 3.15379 28.2656 2.87818 29.2535 2.35127C30.2415 1.82436 31.0847 1.06233 31.709 0.132324C27.9962 1.11646 24.0914 1.11646 20.3785 0.132324Z" fill="#002F98"/>
<path d="M25.5221 26.1756C25.5432 23.6448 24.8125 21.1648 23.4228 19.0504C22.0331 16.9359 20.047 15.2824 17.7166 14.2996C15.3862 13.3168 12.8166 13.0491 10.3339 13.5305C7.85125 14.0119 5.5675 15.2207 3.77247 17.0034C1.97745 18.7861 0.752132 21.0623 0.252036 23.5432C-0.24806 26.0241 -0.00041146 28.5978 0.963609 30.9375C1.92763 33.2773 3.56453 35.2776 5.66653 36.6847C7.76852 38.0918 10.2408 38.8421 12.7697 38.8404C16.1378 38.8498 19.3721 37.5217 21.7629 35.1473C24.1536 32.773 25.5056 29.5464 25.5221 26.1756ZM2.86992 22.956C2.83665 23.0522 2.7743 23.1355 2.69147 23.1945C2.60865 23.2535 2.50951 23.2852 2.40785 23.2851C2.35784 23.2934 2.30676 23.2934 2.25674 23.2851C2.13623 23.2426 2.03713 23.1546 1.98066 23.0399C1.92419 22.9252 1.91485 22.793 1.95462 22.6714C2.89881 19.8751 4.88978 17.5541 7.50878 16.1967C7.56477 16.1674 7.62596 16.1494 7.68891 16.1438C7.75187 16.1382 7.81533 16.1451 7.87561 16.1641C7.93589 16.1831 7.9918 16.2139 8.04017 16.2546C8.08855 16.2953 8.12842 16.3451 8.15749 16.4013C8.18681 16.4573 8.20478 16.5186 8.21038 16.5816C8.21597 16.6446 8.20908 16.7081 8.19009 16.7684C8.1711 16.8287 8.14039 16.8847 8.09973 16.9331C8.05906 16.9816 8.00923 17.0215 7.95312 17.0505C5.56173 18.29 3.74073 20.4056 2.86992 22.956ZM5.44707 25.5708C5.44707 24.1555 6.00886 22.7982 7.0088 21.7975C8.00874 20.7968 9.36493 20.2345 10.7791 20.2345C11.9387 20.2345 13.0507 20.6956 13.8707 21.5162C14.6906 22.3368 15.1513 23.4498 15.1513 24.6103C15.1398 25.5502 14.7616 26.4484 14.0974 27.1131C13.4333 27.7778 12.5358 28.1563 11.5966 28.1678C10.8071 28.1678 10.0499 27.8539 9.49158 27.2952C8.93327 26.7364 8.61962 25.9786 8.61962 25.1884C8.63552 25.0711 8.69334 24.9636 8.78239 24.8858C8.87144 24.8079 8.98568 24.765 9.10392 24.765C9.22216 24.765 9.3364 24.8079 9.42546 24.8858C9.51451 24.9636 9.57232 25.0711 9.58823 25.1884C9.58823 25.7215 9.79987 26.2327 10.1765 26.6097C10.5532 26.9866 11.064 27.1984 11.5966 27.1984C12.3037 27.1984 12.9818 26.9173 13.4818 26.4169C13.9818 25.9165 14.2626 25.2379 14.2626 24.5302C14.2603 23.626 13.8997 22.7596 13.26 22.1211C12.6203 21.4825 11.7537 21.1239 10.8502 21.1239C9.68823 21.1239 8.57383 21.5859 7.75221 22.4082C6.93059 23.2304 6.46906 24.3457 6.46906 25.5086C6.47141 26.9939 7.06201 28.4177 8.11144 29.468C9.16087 30.5182 10.5835 31.1093 12.0676 31.1117C13.9532 31.1117 15.7614 30.362 17.0947 29.0277C18.428 27.6934 19.177 25.8837 19.177 23.9966C19.177 23.8692 19.2275 23.7471 19.3175 23.657C19.4075 23.5669 19.5296 23.5163 19.6568 23.5163C19.7841 23.5163 19.9062 23.5669 19.9961 23.657C20.0861 23.7471 20.1367 23.8692 20.1367 23.9966C20.1343 26.14 19.2825 28.195 17.7681 29.7106C16.2537 31.2262 14.2004 32.0787 12.0587 32.0811C10.32 32.0929 8.6476 31.4142 7.40817 30.1938C6.16874 28.9734 5.4635 27.3109 5.44707 25.5708Z" fill="#002F98"/>
<path d="M43.4903 4.26014C43.1693 3.64988 42.6247 3.18769 41.9706 2.97053L32.8263 0C32.1763 1.24296 31.1987 2.28412 29.9995 3.01059C28.8003 3.73706 27.4253 4.12111 26.0235 4.12111C24.6218 4.12111 23.2468 3.73706 22.0476 3.01059C20.8484 2.28412 19.8708 1.24296 19.2208 0L10.1031 2.97053C9.44291 3.18059 8.89314 3.64447 8.57462 4.26014C7.40158 6.52806 5.17991 10.9483 3.4559 15.0216C3.30482 15.4397 3.07376 15.8221 2.88714 16.2223L2.56723 16.8805C2.48419 17.0541 2.39224 17.2233 2.29175 17.3874C3.7443 15.6189 5.61713 14.2435 7.73862 13.3873C9.86011 12.5311 12.1624 12.2215 14.4344 12.4868C16.7065 12.7522 18.8757 13.584 20.7432 14.9061C22.6107 16.2282 24.1167 17.9982 25.1234 20.0539C26.13 22.1097 26.605 24.3854 26.5048 26.6725C26.4046 28.9597 25.7324 31.1851 24.5498 33.1447C23.3673 35.1044 21.7122 36.7357 19.7362 37.8891C17.7602 39.0425 15.5267 39.6811 13.2401 39.7464C13.2401 40.1467 13.1157 40.538 13.0535 40.9382C13.0671 40.9967 13.0671 41.0576 13.0535 41.1161C12.8046 44.3179 12.5114 46.9949 12.3959 47.9732C21.3021 50.5462 30.7539 50.5462 39.6601 47.9732C39.0385 42.7562 38.6825 37.511 38.5937 32.2578C38.6325 27.3659 38.9291 22.4793 39.4824 17.6186C39.4946 17.509 39.5449 17.4071 39.6244 17.3307C39.704 17.2543 39.8078 17.2083 39.9178 17.2006C40.026 17.1886 40.1351 17.2137 40.2271 17.2719C40.3192 17.3301 40.3887 17.4178 40.4244 17.5208L41.9084 21.9677C44.8634 21.7601 47.696 20.704 50.0664 18.926C48.5112 14.2301 44.9388 7.13284 43.4903 4.26014ZM14.3243 4.06448L10.8407 5.20288C10.8057 5.21167 10.7732 5.22822 10.7455 5.25132C10.7178 5.27441 10.6957 5.30345 10.6808 5.33628C10.2364 6.22567 9.54325 7.54195 8.779 9.11615C8.73804 9.19647 8.67571 9.2639 8.59886 9.31099C8.52202 9.35808 8.43366 9.38299 8.34356 9.38297C8.27344 9.39961 8.20041 9.39961 8.13029 9.38297C8.01553 9.32558 7.92788 9.22535 7.88632 9.10389C7.84475 8.98242 7.85261 8.84947 7.90812 8.73373C8.68126 7.15063 9.37439 5.79877 9.81872 4.93607C9.97145 4.6435 10.2333 4.42299 10.5474 4.32239L14.0221 3.19287C14.1447 3.15349 14.2778 3.16409 14.3927 3.22238C14.5075 3.28066 14.5947 3.38192 14.6353 3.50416C14.6599 3.62418 14.6376 3.74904 14.5732 3.85319C14.5087 3.95735 14.407 4.03293 14.2887 4.06448H14.3243Z" fill="#002F98"/>
</svg>
