<svg width="64" height="56" viewBox="0 0 64 56" fill="none" xmlns="http://www.w3.org/2000/svg">
<path d="M29.4672 20.5758C29.4007 20.583 29.3381 20.6112 29.2886 20.6565C29.2391 20.7018 29.2051 20.7617 29.1915 20.8277C29.1779 20.8938 29.1853 20.9624 29.2128 21.0239C29.2403 21.0854 29.2865 21.1365 29.3446 21.1699L32.158 22.7285L32.3874 22.9896C32.4163 23.0934 32.4206 23.2026 32.4 23.3083C32.499 24.0676 32.4885 24.8372 32.3686 25.5932C32.3219 25.855 32.2194 26.1034 32.0683 26.3214C31.9172 26.5393 31.7209 26.7216 31.4931 26.8557C30.8219 27.226 30.1036 27.5022 29.3582 27.6767L29.1151 27.6863C28.9989 27.6674 28.8887 27.6213 28.7932 27.5517L26.2746 25.4413C26.2213 25.4068 26.1595 25.388 26.0962 25.387C26.0329 25.386 25.9704 25.4028 25.916 25.4356C25.8617 25.4683 25.8175 25.5157 25.7884 25.5725C25.7593 25.6292 25.7465 25.6929 25.7514 25.7566C25.8684 26.6278 26.1758 27.4621 26.6513 28.1992C27.1269 28.9363 27.7587 29.5578 28.5012 30.0189C29.2216 30.374 30.0234 30.5265 30.8223 30.4604C31.6212 30.3942 32.3874 30.1118 33.0401 29.643C33.2044 29.5535 33.3908 29.5135 33.5771 29.528C33.7633 29.5424 33.9415 29.6105 34.0905 29.7242L45.4934 38.5065C45.9427 38.8499 46.4962 39.0254 47.0594 39.0032C47.6226 38.9809 48.1605 38.7622 48.5813 38.3844C48.8357 38.1298 49.031 37.8217 49.1534 37.4819C49.2758 37.1422 49.3223 36.7793 49.2894 36.4193C49.2566 36.0593 49.1453 35.711 48.9634 35.3993C48.7816 35.0876 48.5337 34.8203 48.2375 34.6164L35.9241 26.8278C35.7689 26.7359 35.6436 26.6004 35.5637 26.4378C35.4837 26.2752 35.4526 26.0926 35.4739 25.9125C35.647 25.1608 35.6239 24.3766 35.4068 23.6363C35.1898 22.896 34.7862 22.225 34.2355 21.6887C33.5535 21.1388 32.7572 20.7514 31.906 20.5554C31.0549 20.3594 30.171 20.36 29.3203 20.557" fill="#002F98"/>
<path d="M42.9086 19.3565C42.8036 19.1795 42.6338 19.0511 42.4358 18.9992C42.2378 18.9473 42.0276 18.976 41.8505 19.0791L40.4325 19.5527L39.4239 19.9117C39.2572 19.9738 39.0741 19.9745 38.9068 19.9137C38.7396 19.8529 38.5989 19.7346 38.5097 19.5795L38.3006 19.2195C38.2791 19.0184 38.3036 18.8151 38.3721 18.6252C38.4406 18.4352 38.5513 18.2635 38.6958 18.1234L40.5973 16.3293C40.7626 16.1954 40.8685 16.0009 40.8921 15.7883C40.9156 15.5757 40.8547 15.3623 40.7228 15.1947C40.2842 14.7036 39.802 14.2541 39.2818 13.852C38.2566 12.9285 37.0618 12.2166 35.7652 11.7565C35.6634 11.7267 35.5567 11.7182 35.4515 11.7315C35.3464 11.7448 35.245 11.7795 35.1537 11.8337C35.0624 11.8879 34.9829 11.9604 34.9203 12.0466C34.8577 12.1329 34.8134 12.2311 34.7898 12.3353L34.1856 13.6852L33.7604 14.6351C33.6636 14.8606 33.4901 15.0437 33.271 15.1514C33.052 15.2592 32.802 15.2844 32.5661 15.2226L32.25 15.2351C32.0228 15.1763 31.8234 15.0388 31.6866 14.8467C31.5499 14.6545 31.4846 14.4199 31.5023 14.1841L31.5921 11.5286C31.6128 11.4242 31.6115 11.3165 31.5883 11.2126C31.5651 11.1086 31.5205 11.0108 31.4574 10.9253C31.3943 10.8398 31.3142 10.7687 31.2222 10.7164C31.1301 10.6641 31.0283 10.6319 30.9231 10.6219C30.2658 10.5743 29.6053 10.6004 28.9537 10.6997C27.5822 10.7557 26.2366 11.093 24.9991 11.691C24.9047 11.7392 24.821 11.8063 24.7532 11.8882C24.6854 11.9701 24.6348 12.0652 24.6046 12.1675C24.5745 12.2699 24.5654 12.3773 24.5779 12.4833C24.5903 12.5894 24.624 12.6917 24.677 12.7842C24.8666 13.2678 25.0309 13.7279 25.1952 14.1879C25.3595 14.648 25.4383 14.7922 25.5764 15.2042C25.6394 15.3821 25.6389 15.5766 25.5748 15.7541C25.5106 15.9315 25.387 16.0806 25.2252 16.1758L24.8439 16.3873L24.3935 16.6998C24.2457 16.8125 24.0618 16.8663 23.877 16.8509C23.6923 16.8356 23.5196 16.7522 23.3919 16.6167L21.2788 14.2937C21.215 14.2083 21.1346 14.1369 21.0425 14.0839C20.9504 14.0309 20.8486 13.9973 20.7433 13.9854C20.6379 13.9735 20.5313 13.9834 20.4299 14.0145C20.3285 14.0456 20.2344 14.0972 20.1535 14.1663C19.6681 14.6193 19.231 15.1221 18.8491 15.6666C17.9472 16.7048 17.2659 17.9185 16.8471 19.2328C16.8177 19.3354 16.8094 19.4431 16.8226 19.5491C16.8359 19.6552 16.8705 19.7574 16.9243 19.8495C16.9781 19.9417 17.0499 20.0218 17.1354 20.085C17.221 20.1481 17.3185 20.193 17.4219 20.2168L18.7843 20.8014L19.9484 21.2956C20.1142 21.3685 20.2496 21.4973 20.3316 21.6598C20.4136 21.8223 20.4369 22.0086 20.3976 22.1865C20.4083 22.4562 20.4189 22.7258 20.2594 23.0023C20.2318 23.1896 20.1379 23.3606 19.9951 23.4835C19.8523 23.6065 19.67 23.6733 19.4822 23.6715L16.4595 23.5945C16.3547 23.5813 16.2483 23.5898 16.1469 23.6193C16.0455 23.6489 15.951 23.699 15.8694 23.7666C15.7878 23.8341 15.7208 23.9177 15.6722 24.0123C15.6237 24.1068 15.5947 24.2103 15.5871 24.3165C15.5277 24.9709 15.5538 25.6304 15.6646 26.278C15.7351 27.664 16.0871 29.0207 16.6988 30.2643C16.8094 30.4489 16.9865 30.5832 17.193 30.6391C17.3995 30.695 17.6194 30.6683 17.8066 30.5643L19.1731 30.0191L20.4666 29.4769C20.6722 29.4007 20.8977 29.3986 21.1047 29.471C21.3118 29.5434 21.4877 29.6858 21.6025 29.874L21.6093 30.0456C21.7339 30.2459 21.7805 30.4856 21.7403 30.7184C21.7 30.9512 21.5757 31.1607 21.3913 31.3065L20.5411 31.9786L19.3603 32.9093C19.2681 32.9597 19.187 33.0283 19.1217 33.1112C19.0565 33.194 19.0084 33.2893 18.9806 33.3913C18.9528 33.4933 18.9458 33.6 18.9599 33.7049C18.974 33.8097 19.009 33.9106 19.0627 34.0015C19.8207 35.1652 20.8043 36.1621 21.9546 36.9322C22.4561 37.346 23.0011 37.7032 23.5796 37.9975C23.6738 38.0444 23.7763 38.0716 23.8811 38.0775C23.9859 38.0834 24.0907 38.0678 24.1893 38.0318C24.288 37.9958 24.3784 37.94 24.4551 37.8679C24.5319 37.7957 24.5934 37.7087 24.6359 37.6119L25.9735 35.1034C26.1062 34.8503 26.3226 34.6521 26.5851 34.5431C26.8477 34.434 27.1398 34.421 27.411 34.5064C27.6974 34.5952 27.9432 34.7837 28.1049 35.0381C28.2665 35.2925 28.3336 35.5964 28.2939 35.8958C28.3036 36.1409 28.3113 36.3371 28.1955 36.489L28.0349 37.9687C28.0012 38.0697 27.9889 38.1767 27.9989 38.2828C28.0089 38.3889 28.0408 38.4917 28.0927 38.5846C28.1446 38.6775 28.2152 38.7583 28.3001 38.8219C28.3849 38.8855 28.482 38.9304 28.5852 38.9537C29.923 39.2576 31.3087 39.2781 32.6544 39.0139C33.3095 38.9435 33.9565 38.811 34.5869 38.6182C34.6864 38.5814 34.7772 38.5245 34.8541 38.451C34.9309 38.3774 34.9922 38.2889 35.0339 38.1907C35.0756 38.0925 35.0969 37.9867 35.0966 37.8799C35.0964 37.773 35.0747 37.6674 35.0325 37.5693L34.3762 35.1396C34.2071 34.557 33.7738 32.2167 33.3108 32.2104C31.7353 32.3006 30.1557 32.1224 28.6387 31.6831C27.6554 31.4539 26.7276 31.0288 25.9094 30.4328C25.0913 29.8368 24.3994 29.0819 23.8747 28.2125C23.3399 27.3947 22.9723 26.4776 22.7933 25.515C22.6144 24.5523 22.6276 23.5635 22.8324 22.6063C23.0373 21.6492 23.4295 20.743 23.9861 19.9408C24.5427 19.1387 25.2524 18.4567 26.0739 17.9348C27.5382 17.0488 29.2647 16.7089 30.9527 16.9742C32.6406 17.2395 34.1832 18.0932 35.312 19.3867C36.3732 20.7435 37.0216 22.3812 37.1787 24.1014C37.1947 24.335 37.2892 24.5561 37.4465 24.7284C37.6038 24.9008 37.8147 25.0139 38.0442 25.0494L39.855 25.2724L42.4654 25.3902C42.6733 25.426 42.8867 25.3778 43.0596 25.2561C43.2325 25.1344 43.3509 24.9489 43.3893 24.7398C43.4265 24.1342 43.4025 23.5263 43.3175 22.9255C43.3391 21.6505 43.0813 20.3862 42.5623 19.2229" fill="#002F98"/>
<path d="M3.39319 4.73618L3.1743 4.74483C2.3388 4.79719 1.55754 5.17887 0.999166 5.80744C0.440791 6.436 0.150201 7.26102 0.190152 8.10423L1.62378 44.3659C1.63741 44.794 1.73579 45.2151 1.91309 45.6045C2.09039 45.9938 2.34301 46.3436 2.6562 46.6332C2.96938 46.9228 3.33674 47.1464 3.73674 47.2908C4.13674 47.4353 4.56138 47.4977 4.98552 47.4744L19.8111 46.7409C20.0852 46.7253 20.3588 46.7787 20.6074 46.8963C20.856 47.0139 21.0716 47.1918 21.235 47.4144C21.3984 47.6369 21.5044 47.8969 21.5433 48.1709C21.5823 48.4449 21.5532 48.7244 21.4584 48.984L20.6684 51.1762C20.6198 51.3226 20.5282 51.4506 20.4057 51.5432C20.2832 51.6357 20.1356 51.6885 19.9826 51.6945L15.825 51.8589C15.638 51.8662 15.4616 51.9482 15.3346 52.0867C15.2077 52.2253 15.1405 52.4091 15.1479 52.5977L14.3415 54.3731C14.3489 54.5617 14.4304 54.7395 14.5679 54.8676C14.7054 54.9957 14.8876 55.0636 15.0746 55.0562L47.1145 53.6421C47.2909 53.6328 47.4622 53.5785 47.6121 53.4844C47.7621 53.3904 47.8859 53.2596 47.9721 53.1042C48.0583 52.9488 48.1042 52.7739 48.1053 52.5958C48.1063 52.4177 48.0627 52.2421 47.9784 52.0855L47.2307 51.0346C47.1417 50.8681 47.008 50.7303 46.845 50.6368C46.6819 50.5434 46.4961 50.4982 46.3088 50.5063L39.5494 50.7736C39.4233 50.7759 39.2985 50.7473 39.1857 50.6902C39.0729 50.6332 38.9755 50.5493 38.902 50.4459C38.8284 50.3425 38.7809 50.2226 38.7635 50.0966C38.746 49.9706 38.7591 49.8423 38.8017 49.7227L39.2083 48.9208L40.1645 47.2376C40.2012 47.1619 40.22 47.0786 40.219 46.9943C40.218 46.91 40.1973 46.8272 40.1589 46.7524C40.1204 46.6775 40.0651 46.6126 39.9974 46.5632C39.9297 46.5137 39.8514 46.4811 39.7689 46.4676L36.6587 46.0257C36.6265 46.0269 36.5951 46.0152 36.5714 45.9931C36.5476 45.971 36.5336 45.9404 36.5323 45.9079C36.531 45.8754 36.5426 45.8437 36.5645 45.8199C36.5864 45.796 36.6168 45.7818 36.649 45.7805L59.7375 44.6221C60.1662 44.5992 60.5858 44.4892 60.9712 44.2987C61.3565 44.1082 61.6997 43.8413 61.9801 43.5137C62.2605 43.1862 62.4723 42.8048 62.603 42.3926C62.7336 41.9803 62.7804 41.5457 62.7403 41.1147L59.8372 4.02709C59.7657 3.17877 59.3658 2.39271 58.7241 1.83903C58.0824 1.28536 57.2506 1.00859 56.4084 1.06856L55.9708 1.08586L54.6821 1.13681L52.664 1.2166L50.0139 1.32138L46.8773 1.44538L43.3519 1.58476L39.5151 1.85928L35.5324 2.13949L31.4526 2.42354L27.4214 2.70574L23.5554 2.85858L19.9375 3.12437L16.6794 3.25318L13.9319 3.3618L11.7437 3.44832L3.39319 4.73618ZM58.0699 41.8641L40.8664 42.8144L22.7876 43.7993L7.18666 44.6371C5.94665 44.6861 5.2028 43.7332 5.1524 42.4583L3.85835 9.72717C3.79244 8.05996 4.28948 7.69657 5.61705 7.39852L54.5515 3.99049C55.2842 3.9415 56.0067 4.18496 56.5634 4.66828C57.1201 5.15159 57.4662 5.83604 57.5271 6.57402L60.1866 39.3494C60.2082 39.6493 60.1702 39.9505 60.0748 40.2353C59.9793 40.5201 59.8284 40.7828 59.6309 41.0079C59.4334 41.233 59.1932 41.4161 58.9245 41.5463C58.6558 41.6765 58.3639 41.7512 58.066 41.766" fill="#002F98"/>
</svg>
