<svg width="105" height="90" viewBox="0 0 105 90" fill="none" xmlns="http://www.w3.org/2000/svg">
<path d="M49.2655 32.4094C49.1562 32.4212 49.0533 32.4677 48.9719 32.5421C48.8904 32.6166 48.8346 32.7152 48.8122 32.8237C48.7898 32.9323 48.8019 33.0452 48.8472 33.1463C48.8924 33.2474 48.9683 33.3314 49.0639 33.3864L53.69 35.9491L54.0672 36.3784C54.1148 36.5491 54.1219 36.7287 54.0879 36.9025C54.2508 38.151 54.2334 39.4165 54.0363 40.6597C53.9595 41.0901 53.791 41.4986 53.5425 41.857C53.294 42.2153 52.9713 42.515 52.5967 42.7355C51.493 43.3443 50.312 43.7985 49.0863 44.0855L48.6866 44.1013C48.4955 44.0702 48.3142 43.9944 48.1573 43.88L44.0159 40.4098C43.9282 40.3531 43.8267 40.3222 43.7225 40.3206C43.6184 40.3189 43.5157 40.3466 43.4263 40.4004C43.3369 40.4543 43.2643 40.5322 43.2165 40.6255C43.1686 40.7187 43.1476 40.8236 43.1556 40.9283C43.348 42.3608 43.8534 43.7326 44.6354 44.9446C45.4173 46.1566 46.4562 47.1785 47.6771 47.9367C48.8616 48.5207 50.1801 48.7715 51.4937 48.6627C52.8073 48.5539 54.0673 48.0896 55.1405 47.3187C55.4107 47.1715 55.7171 47.1058 56.0234 47.1295C56.3296 47.1532 56.6227 47.2653 56.8676 47.4523L75.6175 61.893C76.3563 62.4577 77.2664 62.7463 78.1925 62.7097C79.1185 62.6731 80.003 62.3135 80.6949 61.6923C81.1132 61.2736 81.4343 60.7669 81.6356 60.2083C81.8369 59.6497 81.9133 59.053 81.8593 58.461C81.8053 57.869 81.6223 57.2964 81.3233 56.7838C81.0242 56.2713 80.6166 55.8317 80.1296 55.4964L59.8826 42.6897C59.6274 42.5385 59.4215 42.3156 59.29 42.0483C59.1585 41.781 59.1073 41.4808 59.1424 41.1846C59.427 39.9485 59.389 38.6591 59.0321 37.4418C58.6752 36.2246 58.0116 35.1213 57.106 34.2394C55.9847 33.3352 54.6752 32.6981 53.2757 32.3759C51.8762 32.0537 50.4228 32.0545 49.024 32.3785" fill="white"/>
<path d="M71.3674 30.4047C71.1947 30.1135 70.9155 29.9024 70.5899 29.8171C70.2644 29.7317 69.9187 29.7789 69.6276 29.9485L67.296 30.7272L65.6374 31.3176C65.3633 31.4196 65.0623 31.4208 64.7873 31.3209C64.5123 31.2209 64.281 31.0263 64.1343 30.7713L63.7905 30.1793C63.7552 29.8487 63.7954 29.5144 63.908 29.2021C64.0206 28.8897 64.2027 28.6074 64.4402 28.377L67.5669 25.427C67.8388 25.2068 68.0129 24.8869 68.0516 24.5374C68.0903 24.1879 67.9902 23.837 67.7733 23.5614C67.0521 22.7538 66.2591 22.0147 65.4038 21.3535C63.7181 19.835 61.7535 18.6645 59.6215 17.9079C59.4541 17.8589 59.2786 17.8449 59.1057 17.8668C58.9328 17.8886 58.7661 17.9458 58.616 18.0349C58.4658 18.124 58.3351 18.2432 58.2322 18.385C58.1293 18.5268 58.0563 18.6883 58.0175 18.8596L57.0241 21.0792L56.325 22.6412C56.1658 23.012 55.8804 23.3131 55.5203 23.4902C55.1602 23.6673 54.7491 23.7088 54.3611 23.6071L53.8414 23.6277C53.4678 23.5312 53.1399 23.3051 52.915 22.9891C52.6902 22.6731 52.5829 22.2873 52.6119 21.8997L52.7597 17.5331C52.7937 17.3614 52.7915 17.1843 52.7533 17.0135C52.7152 16.8426 52.6418 16.6817 52.5381 16.5412C52.4345 16.4006 52.3027 16.2836 52.1514 16.1976C52 16.1117 51.8325 16.0588 51.6596 16.0422C50.5787 15.964 49.4926 16.0069 48.4213 16.1703C46.1662 16.2622 43.9536 16.8168 41.9188 17.8002C41.7635 17.8794 41.6259 17.9897 41.5144 18.1245C41.4029 18.2592 41.3197 18.4155 41.2701 18.5838C41.2205 18.752 41.2057 18.9287 41.2261 19.103C41.2466 19.2774 41.302 19.4457 41.3891 19.5977C41.7009 20.393 41.971 21.1494 42.2412 21.9059C42.5114 22.6624 42.6409 22.8996 42.8679 23.577C42.9716 23.8695 42.9707 24.1893 42.8653 24.4811C42.7598 24.7728 42.5565 25.0181 42.2905 25.1745L41.6634 25.5224L40.923 26.0362C40.6798 26.2214 40.3775 26.3099 40.0737 26.2847C39.7699 26.2594 39.486 26.1223 39.2759 25.8995L35.8014 22.0798C35.6965 21.9393 35.5642 21.822 35.4128 21.7348C35.2614 21.6477 35.094 21.5925 34.9208 21.5729C34.7476 21.5533 34.5723 21.5696 34.4056 21.6208C34.2388 21.6719 34.0841 21.7567 33.9511 21.8703C33.153 22.6151 32.4341 23.4419 31.8063 24.3373C30.3232 26.0445 29.2029 28.0401 28.5144 30.2011C28.4659 30.3699 28.4523 30.547 28.4741 30.7214C28.4959 30.8958 28.5528 31.0638 28.6412 31.2153C28.7297 31.3668 28.8478 31.4986 28.9884 31.6024C29.1291 31.7063 29.2895 31.78 29.4594 31.8193L31.6997 32.7804L33.6139 33.5931C33.8864 33.7129 34.1092 33.9247 34.2439 34.1919C34.3787 34.4592 34.4171 34.7654 34.3525 35.0579C34.37 35.5014 34.3875 35.9448 34.1252 36.3993C34.0797 36.7074 33.9255 36.9885 33.6906 37.1907C33.4558 37.3929 33.1561 37.5027 32.8472 37.4997L27.8771 37.3731C27.7047 37.3515 27.5298 37.3654 27.363 37.414C27.1962 37.4627 27.0409 37.545 26.9067 37.6561C26.7725 37.7671 26.6623 37.9047 26.5825 38.0601C26.5027 38.2156 26.455 38.3858 26.4425 38.5604C26.3448 39.6364 26.3877 40.7208 26.57 41.7857C26.6859 44.0646 27.2646 46.2956 28.2706 48.3403C28.4523 48.6438 28.7436 48.8647 29.0831 48.9567C29.4227 49.0486 29.7842 49.0046 30.092 48.8336L32.339 47.9372L34.4659 47.0456C34.804 46.9204 35.1748 46.9169 35.5152 47.0359C35.8557 47.1549 36.1449 47.3891 36.3337 47.6985L36.3449 47.9808C36.5497 48.3102 36.6264 48.7042 36.5602 49.087C36.494 49.4699 36.2897 49.8143 35.9865 50.0541L34.5885 51.1592L32.6469 52.6895C32.4952 52.7723 32.3619 52.8853 32.2545 53.0215C32.1472 53.1577 32.0682 53.3144 32.0225 53.4821C31.9768 53.6499 31.9652 53.8253 31.9884 53.9977C32.0116 54.1701 32.0691 54.336 32.1575 54.4855C33.4038 56.3989 35.0213 58.0382 36.9126 59.3044C37.7373 59.9848 38.6334 60.5722 39.5847 61.0561C39.7394 61.1332 39.9081 61.1779 40.0804 61.1876C40.2527 61.1973 40.425 61.1717 40.5872 61.1125C40.7494 61.0532 40.8981 60.9616 41.0243 60.8429C41.1504 60.7243 41.2516 60.5811 41.3215 60.4221L43.521 56.2974C43.7392 55.8812 44.0949 55.5553 44.5266 55.376C44.9583 55.1967 45.4387 55.1753 45.8846 55.3156C46.3555 55.4617 46.7597 55.7716 47.0255 56.1899C47.2914 56.6082 47.4017 57.1079 47.3364 57.6002C47.3524 58.0033 47.3649 58.3258 47.1746 58.5756L46.9105 61.0087C46.8552 61.1748 46.8349 61.3507 46.8513 61.5252C46.8677 61.6996 46.9203 61.8687 47.0056 62.0214C47.0909 62.1741 47.207 62.3071 47.3465 62.4116C47.486 62.5162 47.6457 62.5901 47.8153 62.6285C50.0151 63.1281 52.2937 63.1617 54.5064 62.7273C55.5836 62.6116 56.6474 62.3938 57.684 62.0767C57.8475 62.0162 57.9969 61.9226 58.1233 61.8017C58.2497 61.6808 58.3504 61.5353 58.4189 61.3738C58.4875 61.2123 58.5226 61.0383 58.5222 60.8626C58.5218 60.6869 58.486 60.5132 58.4167 60.352L57.3376 56.3569C57.0595 55.3988 56.3469 51.5507 55.5857 51.5404C52.9951 51.6887 50.3978 51.3956 47.9033 50.6732C46.2866 50.2964 44.7608 49.5974 43.4155 48.6174C42.0702 47.6374 40.9327 46.3961 40.0698 44.9666C39.1905 43.6218 38.586 42.1139 38.2917 40.531C37.9975 38.9481 38.0193 37.3221 38.3561 35.7483C38.6929 34.1745 39.3379 32.6844 40.2531 31.3654C41.1683 30.0465 42.3353 28.9251 43.686 28.067C46.0937 26.6101 48.9326 26.0511 51.7082 26.4874C54.4837 26.9236 57.0202 28.3273 58.8763 30.4543C60.6211 32.6852 61.6873 35.3781 61.9457 38.2066C61.9721 38.5907 62.1274 38.9544 62.386 39.2377C62.6447 39.5211 62.9914 39.7071 63.3688 39.7654L66.3464 40.1322L70.6386 40.3259C70.9805 40.3847 71.3314 40.3055 71.6157 40.1054C71.9 39.9053 72.0947 39.6003 72.1577 39.2564C72.219 38.2606 72.1795 37.261 72.0398 36.2732C72.0753 34.1766 71.6513 32.0977 70.798 30.1849" fill="white"/>
<path d="M6.39194 6.3643L6.03202 6.37853C4.6582 6.46462 3.37357 7.09221 2.45543 8.12577C1.5373 9.15933 1.05948 10.5159 1.12517 11.9024L3.48249 71.5276C3.50491 72.2315 3.66667 72.924 3.9582 73.5642C4.24973 74.2045 4.66513 74.7797 5.1801 75.2558C5.69507 75.732 6.29912 76.0996 6.95684 76.3371C7.61457 76.5746 8.3128 76.6773 9.01022 76.6389L33.388 75.4328C33.8386 75.4072 34.2886 75.4951 34.6973 75.6884C35.1061 75.8817 35.4607 76.1743 35.7294 76.5402C35.9981 76.9061 36.1722 77.3337 36.2363 77.7842C36.3004 78.2348 36.2525 78.6943 36.0966 79.1213L34.7977 82.7259C34.7178 82.9666 34.5671 83.177 34.3657 83.3292C34.1643 83.4815 33.9215 83.5683 33.67 83.5781L26.8336 83.8483C26.5262 83.8605 26.236 83.9952 26.0273 84.223C25.8185 84.4509 25.708 84.7531 25.7203 85.0632L24.3943 87.9825C24.4065 88.2926 24.5405 88.585 24.7666 88.7956C24.9927 89.0063 25.2923 89.1179 25.5998 89.1057L78.2831 86.7806C78.5732 86.7652 78.8548 86.676 79.1014 86.5213C79.3479 86.3666 79.5515 86.1516 79.6933 85.8961C79.8351 85.6405 79.9104 85.353 79.9122 85.0601C79.914 84.7672 79.8422 84.4785 79.7036 84.2211L78.4741 82.493C78.3278 82.2193 78.1081 81.9926 77.8399 81.8389C77.5718 81.6853 77.2662 81.611 76.9582 81.6244L65.8438 82.0638C65.6364 82.0677 65.4312 82.0206 65.2457 81.9268C65.0603 81.8329 64.9002 81.695 64.7792 81.525C64.6582 81.355 64.5802 81.1579 64.5514 80.9507C64.5227 80.7435 64.5443 80.5326 64.6144 80.3358L65.283 79.0172L66.8552 76.2496C66.9156 76.1251 66.9464 75.9881 66.9448 75.8495C66.9431 75.7109 66.9092 75.5748 66.8459 75.4517C66.7827 75.3286 66.6918 75.2219 66.5804 75.1406C66.4691 75.0593 66.3404 75.0056 66.2047 74.9834L61.0906 74.2568C61.0376 74.2589 60.9859 74.2396 60.947 74.2033C60.908 74.167 60.8849 74.1166 60.8828 74.0632C60.8806 74.0097 60.8997 73.9577 60.9357 73.9184C60.9717 73.8791 61.0216 73.8558 61.0746 73.8537L99.0392 71.949C99.744 71.9113 100.434 71.7304 101.068 71.4172C101.701 71.104 102.266 70.665 102.727 70.1264C103.188 69.5878 103.536 68.9607 103.751 68.2829C103.966 67.605 104.043 66.8903 103.977 66.1816L99.2031 5.19834C99.0855 3.80345 98.428 2.51091 97.3728 1.60051C96.3177 0.690107 94.9499 0.235004 93.5652 0.333621L92.8456 0.36207L90.7265 0.445848L87.4082 0.577042L83.0505 0.749324L77.893 0.953229L72.0962 1.18241L65.7874 1.6338L59.2386 2.09454L52.5301 2.56161L45.9016 3.02564L39.5447 3.27696L33.5958 3.71399L28.2384 3.9258L23.7207 4.10441L20.1227 4.24666L6.39194 6.3643ZM96.2971 67.414L68.0094 68.9765L38.2822 70.596L12.6296 71.9735C10.5906 72.0541 9.3675 70.4874 9.28462 68.391L7.1568 14.571C7.04842 11.8296 7.86572 11.2321 10.0486 10.742L90.5117 5.13816C91.7165 5.0576 92.9046 5.45793 93.8199 6.25265C94.7353 7.04737 95.3045 8.1728 95.4046 9.38627L99.7776 63.2789C99.8131 63.7721 99.7507 64.2673 99.5937 64.7357C99.4368 65.204 99.1887 65.6359 98.8639 66.0061C98.5391 66.3763 98.1441 66.6772 97.7023 66.8913C97.2604 67.1054 96.7805 67.2282 96.2908 67.2527" fill="white"/>
</svg>
