<svg width="90" height="64" viewBox="0 0 90 64" fill="none" xmlns="http://www.w3.org/2000/svg">
<path d="M75.6 27.8656C76.1766 26.3609 76.5 24.7156 76.5 23C76.5 15.5469 70.4531 9.5 63 9.5C60.2297 9.5 57.6422 10.3438 55.5047 11.7781C51.6094 5.02812 44.3391 0.5 36 0.5C23.5688 0.5 13.5 10.5687 13.5 23C13.5 23.3797 13.5141 23.7594 13.5281 24.1391C5.65312 26.9094 0 34.4188 0 43.25C0 54.4297 9.07031 63.5 20.25 63.5H72C81.9422 63.5 90 55.4422 90 45.5C90 36.7953 83.8125 29.525 75.6 27.8656ZM55.3219 36.5H46.125V52.25C46.125 53.4875 45.1125 54.5 43.875 54.5H37.125C35.8875 54.5 34.875 53.4875 34.875 52.25V36.5H25.6781C23.6672 36.5 22.6688 34.0813 24.0891 32.6609L38.9109 17.8391C39.7828 16.9672 41.2172 16.9672 42.0891 17.8391L56.9109 32.6609C58.3313 34.0813 57.3187 36.5 55.3219 36.5Z" fill="#FF5450"/>
</svg>
