<svg width="64" height="62" viewBox="0 0 64 62" fill="none" xmlns="http://www.w3.org/2000/svg">
<path d="M57.632 16.8677C57.9337 19.0239 61.4093 21.932 62.3446 21.8665C62.9722 21.8124 63.2136 19.0495 63.2136 16.8677C63.2136 15.6201 63.286 14.6431 62.589 14.4152C61.4818 16.5287 58.5733 16.9588 57.632 16.8677ZM57.8281 15.9135C60.3262 15.9135 62.6132 14.0307 62.6132 12.373C62.6132 11.5982 62.224 10.9659 61.2404 10.852C61.3294 10.9526 61.3966 11.0687 61.438 11.1939C61.4794 11.319 61.4943 11.4506 61.4818 11.5811C61.4818 12.8259 59.4633 14.2159 57.2729 14.2159C56.4794 14.2159 56.2411 14.7371 56.2411 15.0077C56.2411 15.6429 56.8898 15.9135 57.822 15.9135H57.8281ZM57.2971 13.35C56.9592 13.35 56.4794 13.35 56.2139 12.8487C55.9967 12.4413 56.0691 11.7805 55.6618 11.49C56.048 11.5766 56.4449 11.6131 56.8415 11.5982C57.9246 11.5982 58.9534 10.8975 59.753 10.8975C59.8449 10.887 59.9383 10.896 60.0261 10.9239C60.1139 10.9518 60.194 10.9979 60.2605 11.0588C60.327 11.1197 60.3783 11.1938 60.4106 11.2758C60.4428 11.3578 60.4552 11.4456 60.4469 11.5327C60.4469 12.5325 58.3138 13.35 57.2971 13.35Z" fill="#002F98"/>
<path d="M3.51858 31.1494C4.33319 31.1494 4.16725 26.4297 5.49175 26.4297C5.79346 26.4297 5.89604 26.7146 5.89604 27.0848C5.89604 28.1558 5.34693 29.7224 5.34693 30.5826C5.34693 31.0155 5.46158 31.1523 5.68183 31.1523C6.26111 31.1523 7.26882 25.9512 8.2554 25.9512C8.55711 25.9512 8.714 26.2503 8.714 26.5436C8.714 27.6346 7.2477 30.7677 7.2477 31.6507C7.2477 31.7874 7.29295 31.9014 7.41062 31.9014C8.01404 31.9014 9.22087 29.4518 9.60103 28.2242C9.81826 27.589 10.1049 27.2472 10.3734 27.2472C10.6419 27.2472 10.829 27.495 10.829 28.0219C10.829 29.2467 9.62214 32.1321 8.5722 34.0604C7.75155 35.5586 6.47834 37.7177 6.47834 38.9168C6.47834 39.5321 6.59601 40.1701 7.53432 40.942C5.99561 40.8508 5.36805 40.7141 4.79179 39.5776C2.22123 44.4198 9.52861 43.9356 7.02443 48.228C6.57187 47.4561 2.96645 46.6643 2.96645 42.1668C2.96645 38.2816 6.57187 36.0087 6.57187 34.3994C6.57434 34.2376 6.53659 34.0776 6.46166 33.9322C6.38673 33.7868 6.27671 33.66 6.14043 33.562C5.34693 32.9239 5.31978 32.4027 4.69826 32.4027C4.23665 32.4027 3.68452 33.4024 4.2638 34.2854C4.45689 34.5703 4.62283 34.7611 4.62283 35.0374C4.62283 35.6697 3.56384 37.3759 2.81258 37.3759C2.06133 37.3759 1.48808 35.6241 1.48808 32.8185C1.48808 30.3205 2.0915 27.7998 2.83672 27.7998C3.05395 27.7998 3.12334 27.9365 3.12334 28.1188C3.12334 28.4036 3.02981 29.0018 3.02981 30.0044C3.02378 31.0611 3.28626 31.1494 3.51858 31.1494Z" fill="#002F98"/>
<path d="M9.63443 37.8035C10.6451 37.8035 11.4869 37.0943 11.4869 35.5248V33.2205C11.4869 32.3347 11.5593 31.3406 12.1839 30.6285C12.1265 30.9282 12.1032 31.2328 12.1145 31.5372C12.1145 33.494 13.267 34.8327 13.267 36.7183C13.267 37.419 13.0498 37.8064 12.4735 37.8064C11.8972 37.8064 11.9696 37.3278 11.849 37.3278C11.7283 37.3278 11.6106 37.6127 11.6106 37.9402C11.61 38.1067 11.6453 38.2716 11.7144 38.4248C11.7835 38.5779 11.885 38.7162 12.0127 38.8311C12.1403 38.946 12.2914 39.0351 12.4567 39.093C12.6221 39.1509 12.7982 39.1764 12.9743 39.1679C13.403 39.1472 13.8063 38.9697 14.0987 38.673C14.391 38.3762 14.5494 37.9836 14.5402 37.5785C14.5402 35.5362 12.8567 33.269 12.8567 31.0871C12.8596 30.365 13.0241 29.6516 13.3394 28.9936C13.3394 33.5139 17.4064 36.8066 17.4064 38.6779C17.4086 38.7822 17.3881 38.8858 17.3461 38.9822C17.3041 39.0787 17.2416 39.1659 17.1623 39.2386C17.0831 39.3113 16.9889 39.3678 16.8856 39.4046C16.7822 39.4414 16.672 39.4578 16.5617 39.4527C16.4569 39.4569 16.3523 39.4412 16.2541 39.4066C16.1558 39.372 16.0659 39.3191 15.9897 39.2511C15.9135 39.1832 15.8525 39.1014 15.8103 39.0108C15.7681 38.9202 15.7455 38.8225 15.744 38.7235C15.744 38.5669 15.7169 38.5213 15.6475 38.5213C15.5027 38.5213 15.0712 38.977 15.0712 39.5666C15.0854 40.0174 15.2878 40.4446 15.6342 40.7552C15.9807 41.0657 16.4431 41.2343 16.9207 41.2244C17.2039 41.2218 17.4838 41.166 17.7439 41.0603C18.0041 40.9545 18.2393 40.8009 18.4359 40.6084C18.6325 40.4159 18.7865 40.1884 18.889 39.9391C18.9914 39.6898 19.0403 39.4238 19.0326 39.1565C19.0326 36.7753 14.1027 33.1607 14.1027 29.3041C14.0857 28.4206 14.3002 27.5468 14.7273 26.7605C11.5533 28.6888 10.5667 31.2552 10.5667 33.5025C10.5667 35.4565 10.4943 36.4335 9.43831 36.4335C8.88619 36.4335 8.74136 35.9549 8.55129 35.9549C8.36121 35.9549 8.32803 36.3622 8.32803 36.479C8.31696 36.648 8.34245 36.8174 8.40294 36.9768C8.46343 37.1362 8.55766 37.2823 8.67988 37.4062C8.8021 37.5301 8.94976 37.6292 9.11387 37.6975C9.27797 37.7658 9.45509 37.8019 9.63443 37.8035Z" fill="#002F98"/>
<path d="M51.3155 15.119C52.3745 15.119 53.168 14.6661 53.168 14.3927C53.168 14.3016 53.0231 14.2332 52.7124 14.2332C52.0036 14.2217 51.2972 14.154 50.6004 14.031C49.5867 13.8715 48.8173 13.5097 48.5307 13.5097C48.4342 13.5097 48.3829 13.5553 48.3829 13.6237C48.3768 14.2161 49.5324 15.119 51.3155 15.119ZM46.0597 12.2365C46.3614 12.0428 47.7221 12.3504 49.4751 11.533C49.6644 11.4306 49.8784 11.3757 50.0966 11.3735C50.9414 11.3735 50.7241 12.2821 51.4965 12.2821C52.0999 12.2821 52.8693 11.8064 53.3249 11.8064C54.0429 11.8064 55.0778 13.9398 55.0778 14.9396C55.0778 16.1017 53.2313 16.8024 51.0379 16.8024C47.8428 16.8024 45.9089 14.1677 45.9089 12.4672C45.9063 12.4189 45.9194 12.3709 45.9463 12.3297C45.9733 12.2886 46.0128 12.256 46.0597 12.2365Z" fill="#002F98"/>
<path d="M10.154 46.3597C9.36046 46.5449 8.08424 47.7212 8.08424 49.5869C8.08424 51.8143 10.6095 55.2437 14.7731 55.2437C18.282 55.2437 19.1479 52.9508 19.1479 51.4041C19.1479 47.9861 16.9122 45.5679 14.0188 45.5679C12.4288 45.5679 11.0018 46.6617 11.0018 48.271C11.0029 48.7687 11.1088 49.2612 11.3132 49.72C11.5177 50.1788 11.8167 50.5946 12.1929 50.9434C12.569 51.2921 13.0148 51.5668 13.5044 51.7515C13.9939 51.9363 14.5175 52.0273 15.0447 52.0194C15.3236 52.0344 15.6028 51.9947 15.8647 51.9029C16.1266 51.811 16.3655 51.669 16.5665 51.4858C16.7674 51.3025 16.926 51.0819 17.0322 50.838C17.1384 50.594 17.19 50.332 17.1838 50.0683C17.1838 49.0429 16.2002 47.6386 14.7701 47.6386C14.6708 47.6324 14.5712 47.6462 14.478 47.6792C14.3848 47.7121 14.3001 47.7635 14.2295 47.8298C14.159 47.8961 14.1043 47.9758 14.069 48.0637C14.0337 48.1516 14.0186 48.2455 14.0249 48.3393C14.0249 48.8834 14.8154 49.4331 15.8019 49.4331C15.9837 49.438 16.1646 49.407 16.3329 49.3419C16.385 49.4286 16.4101 49.5273 16.4054 49.6268C16.4054 50.148 15.8713 50.4813 15.0567 50.4813C14.7422 50.4885 14.4294 50.4362 14.1367 50.3275C13.8439 50.2187 13.5772 50.0558 13.3523 49.8482C13.1273 49.6406 12.9487 49.3926 12.8269 49.1187C12.7051 48.8449 12.6426 48.5509 12.6431 48.2539C12.6431 47.4364 13.3913 46.8439 14.4714 46.8439C16.6135 46.8439 17.8898 48.6384 17.8898 50.43C17.8898 52.045 16.9484 52.9793 15.0265 52.9793C11.1707 52.9508 9.2971 49.678 10.154 46.3597Z" fill="#002F98"/>
<path d="M35.73 55.1268C35.73 55.3066 35.7865 55.4824 35.8924 55.6319C35.9983 55.7814 36.1488 55.8978 36.3248 55.9665C36.5008 56.0352 36.6945 56.053 36.8813 56.0177C37.0681 55.9824 37.2396 55.8956 37.374 55.7682C37.5085 55.6409 37.5999 55.4787 37.6367 55.3023C37.6735 55.1258 37.654 54.9431 37.5807 54.7771C37.5074 54.6111 37.3836 54.4694 37.2249 54.3699C37.0662 54.2704 36.8799 54.2176 36.6894 54.2182C36.4352 54.2204 36.192 54.3169 36.0125 54.4869C35.833 54.6569 35.7315 54.8867 35.73 55.1268ZM37.5915 59.6642C38.0788 59.6633 38.5656 59.6328 39.0488 59.573C39.4078 59.573 39.4319 59.7781 39.4319 59.9177C39.4319 60.4161 38.2522 61.0314 36.1614 61.0314C34.9335 61.0314 34.1912 60.4161 33.971 59.7354C32.5236 60.5998 30.8558 61.0791 29.1437 61.1225C24.2137 61.1225 22.9647 59.0973 21.426 58.4422C20.2463 57.9438 18.4421 58.9179 15.9168 56.2604C16.297 56.3256 16.6829 56.3561 17.0693 56.3516C19.2838 56.3516 20.4605 55.3319 20.4605 53.6941C20.4583 53.4834 20.4412 53.2731 20.4092 53.0646C21.0809 53.3787 21.6646 53.838 22.1128 54.4052C22.561 54.9724 22.8612 55.6315 22.9888 56.3288C23.0341 56.5595 24.0237 56.7617 24.6482 56.7617C25.5141 56.7617 26.6153 56.4228 26.7873 55.0812C29.6717 54.8562 31.6147 53.2469 32.031 51.1989C33.0629 51.5151 34.2395 52.4009 34.5322 52.8566C34.9971 52.7116 35.4848 52.6422 35.9743 52.6516C36.8823 52.6711 37.7822 52.818 38.6445 53.0874C38.6897 52.7883 38.741 52.4237 39.2237 52.4237C39.9418 52.4237 39.7487 53.1757 39.9901 53.6058C40.1078 53.8308 40.7142 53.9675 40.7142 54.4232C40.7172 54.5017 40.7029 54.5798 40.6724 54.6528C40.6419 54.7258 40.5957 54.7921 40.5368 54.8474C40.4779 54.9028 40.4075 54.9461 40.33 54.9745C40.2526 55.003 40.1697 55.016 40.0866 55.0128C39.9845 55.0111 39.8831 54.9967 39.7849 54.9701C39.3082 55.1268 39.2811 58.3881 37.2566 58.3881C35.7692 58.3881 34.3964 57.2288 33.796 55.7819C33.7432 55.5955 33.6325 55.4284 33.4782 55.302C33.3239 55.1756 33.133 55.0957 32.9301 55.0727C32.5469 55.0727 32.3267 55.1439 31.8741 55.6167C31.0885 56.4087 30.1384 57.0394 29.083 57.4692C28.0277 57.899 26.8898 58.1187 25.7404 58.1147C24.9228 58.1147 24.2741 58.0463 24.1051 58.0463C24.0116 58.0463 24.0116 58.0663 24.0116 58.0947C24.0116 58.2514 24.8262 58.8638 26.6033 58.8638C30.8272 58.8638 31.8741 56.6165 32.5469 56.6165C32.6682 56.6118 32.7877 56.645 32.8869 56.7109C32.9862 56.7768 33.0597 56.8718 33.096 56.981C34.0917 59.1686 36.2459 59.6642 37.5915 59.6642Z" fill="#002F98"/>
<path d="M52.1798 45.203C51.6759 45.203 48.8821 48.7235 47.0809 48.7235C46.6494 48.7235 46.2904 47.9516 46.2904 47.3649C46.2904 47.043 46.5046 46.8151 47.274 46.6613C51.4104 45.7698 50.4962 42.8417 54.0292 42.8417C55.9752 42.8417 58.1445 44.0921 58.1445 46.9063C58.1445 49.9056 53.6189 53.6255 52.9491 53.6255C52.397 53.6255 51.7966 52.8793 51.7966 52.3779C51.7966 52.2213 51.866 52.0162 52.3487 51.8339C54.6538 50.9794 55.9692 48.9713 55.9692 47.9516C55.977 47.8941 55.9716 47.8357 55.9534 47.7804C55.9352 47.725 55.9046 47.674 55.8637 47.6308C55.8228 47.5876 55.7725 47.5532 55.7163 47.5299C55.66 47.5066 55.5992 47.495 55.5378 47.4959C55.1305 47.4959 53.3805 51.2671 51.4285 51.2671C50.0799 51.2671 48.7131 50.1078 48.7131 49.5581C48.7131 48.6466 52.6112 46.9661 52.6112 45.6957C52.6142 45.2229 52.3728 45.203 52.1798 45.203ZM54.7744 43.7959C54.4365 43.7959 54.0775 44.0466 54.0775 44.6504C54.1094 45.0268 54.2859 45.3792 54.5737 45.6415C54.8615 45.9037 55.2408 46.0577 55.6403 46.0746C56.3343 46.0746 56.8924 45.8951 56.8924 45.3454C56.8924 44.6618 55.8093 43.7959 54.7744 43.7959Z" fill="#002F98"/>
<path d="M9.85164 17.5032C9.85045 17.6837 9.90605 17.8605 10.0114 18.0112C10.1168 18.1618 10.2671 18.2795 10.4434 18.3494C10.6197 18.4192 10.8141 18.4381 11.0017 18.4036C11.1894 18.369 11.362 18.2827 11.4976 18.1554C11.6333 18.0282 11.7258 17.8658 11.7636 17.6888C11.8013 17.5119 11.7825 17.3283 11.7096 17.1614C11.6368 16.9946 11.513 16.8519 11.3541 16.7515C11.1952 16.6511 11.0083 16.5975 10.8171 16.5975C10.5626 16.5989 10.3188 16.6947 10.1383 16.864C9.95772 17.0334 9.8548 17.2629 9.85164 17.5032ZM8.60558 15.4581C8.60499 15.6379 8.66093 15.8139 8.76632 15.9637C8.87171 16.1135 9.02181 16.2304 9.19762 16.2996C9.37344 16.3688 9.56705 16.3872 9.75394 16.3525C9.94084 16.3177 10.1126 16.2314 10.2475 16.1045C10.3824 15.9775 10.4744 15.8156 10.5118 15.6393C10.5491 15.463 10.5303 15.2801 10.4575 15.1139C10.3848 14.9477 10.2614 14.8056 10.1031 14.7057C9.94472 14.6057 9.75852 14.5524 9.56803 14.5524C9.3125 14.5516 9.06706 14.6465 8.88552 14.8163C8.70398 14.9861 8.60115 15.2169 8.59955 15.4581H8.60558ZM7.73968 21.6817C7.18755 21.8213 6.03201 22.4565 6.03201 23.5873C6.03079 23.771 6.06963 23.953 6.14611 24.1219C6.2226 24.2908 6.3351 24.4431 6.4766 24.5692C6.61811 24.6953 6.78559 24.7926 6.96863 24.8549C7.15168 24.9173 7.34635 24.9434 7.54055 24.9317C7.87039 24.9508 8.19809 24.87 8.47585 24.701C8.18715 24.45 7.95743 24.1447 7.80152 23.8047C7.64562 23.4647 7.56699 23.0976 7.57073 22.7271C7.56234 22.372 7.61951 22.0183 7.73968 21.6817ZM1.8443 22.0008C1.82932 22.1141 1.82327 22.2284 1.82619 22.3426C1.82619 23.4078 2.42961 24.0003 3.21707 24.0003C3.82049 24.0003 4.51743 23.6556 5.14197 22.9065C4.85597 22.9528 4.56625 22.9757 4.27607 22.9749C3.37999 22.9663 2.42056 22.747 1.83826 22.0008H1.8443ZM1.00253 24.0202C1.00253 25.7463 1.55767 26.5666 2.54728 26.5666C3.3106 26.5666 4.35753 26.0397 5.56436 25.0428C4.80956 25.2362 4.03456 25.3508 3.25328 25.3846C2.39341 25.3846 1.72059 25.0656 0.996494 24.0202H1.00253ZM7.23583 14.9369C7.37671 14.5118 7.44892 14.0692 7.45004 13.6238C7.45004 12.5329 6.91903 10.878 5.28377 10.878C5.06878 10.876 4.85557 10.9149 4.65683 10.9924C4.4581 11.0698 4.27791 11.1843 4.12701 11.3289C3.97611 11.4735 3.85758 11.6452 3.77848 11.834C3.69939 12.0227 3.66134 12.2246 3.66662 12.4275C3.66662 14.2162 5.5704 14.9369 7.22979 14.9369H7.23583ZM5.18723 20.6592C4.39675 20.6592 3.52783 19.7278 3.52783 18.8875C3.52783 18.4346 3.88686 17.8707 4.15538 17.8707C4.25193 17.8707 4.3002 17.9362 4.32132 18.0957C4.37963 18.545 4.56154 18.972 4.84897 19.3343C5.13639 19.6966 5.51931 19.9815 5.9596 20.1607C6.03201 20.2063 6.08028 20.2291 6.08028 20.2775C6.07425 20.4313 5.62772 20.6592 5.18119 20.6592H5.18723ZM7.39875 17.8935C7.57072 18.1042 8.02932 18.3663 8.02932 18.5315C8.02932 18.8476 7.83321 19.255 7.45004 19.255C6.60827 19.255 5.9415 18.0501 5.9415 17.3722C5.9415 16.9364 6.20399 16.8908 6.56604 16.8908C6.69316 16.8823 6.81964 16.9144 6.92507 16.982C7.13627 17.0959 7.13627 17.5545 7.39272 17.8935H7.39875ZM1.74775 20.7076C1.70404 20.7838 1.68025 20.8688 1.67836 20.9554C1.69015 21.066 1.74185 21.1693 1.82481 21.2482C1.90776 21.327 2.01691 21.3765 2.13394 21.3884C2.32703 21.3884 2.43564 21.3428 2.54728 21.3428C3.12052 21.3428 3.75411 21.7273 4.70751 21.7273C5.41684 21.6961 6.1088 21.5098 6.72896 21.1833C8.46378 20.3658 9.14262 18.3349 9.14262 18.0045C9.14262 17.5716 8.77454 17.6314 8.47283 17.2298C8.17112 16.8282 8.27974 16.4864 8.08363 16.3012C7.972 16.193 7.62805 16.1901 7.19661 16.1446C7.02027 16.1265 6.84298 16.1179 6.6656 16.1189C5.67903 16.0898 4.70619 16.343 3.8748 16.8453C1.77189 18.1014 2.07963 20.1807 1.74171 20.7076H1.74775ZM9.73398 19.799C9.07584 20.5269 8.6927 21.4407 8.64481 22.3967C8.64481 23.6215 9.43528 24.6497 10.6632 24.6497C11.8399 24.6497 12.392 23.6927 12.392 22.7157C12.3981 21.2061 10.9287 20.1379 9.72794 19.799H9.73398ZM4.58984 15.4382C4.13069 15.7431 3.58795 15.9162 3.027 15.9366C2.78215 15.9425 2.5386 15.9013 2.31108 15.8157C2.08357 15.7301 1.87682 15.6018 1.70335 15.4386C1.52988 15.2754 1.3933 15.0806 1.30188 14.8661C1.21046 14.6516 1.1661 14.4218 1.17149 14.1906C1.16795 13.8049 1.2879 13.4273 1.51564 13.107C1.74337 12.7868 2.06825 12.5391 2.44772 12.3962C2.43016 12.5246 2.4231 12.6541 2.42659 12.7835C2.42056 14.0767 3.1869 15.0537 4.58381 15.4382H4.58984Z" fill="#002F98"/>
<path d="M46.9817 22.9662C46.9812 23.1552 47.04 23.34 47.1508 23.4974C47.2617 23.6547 47.4195 23.7775 47.6043 23.8501C47.7891 23.9226 47.9926 23.9418 48.1889 23.905C48.3852 23.8683 48.5656 23.7774 48.7072 23.6438C48.8487 23.5102 48.945 23.3399 48.9839 23.1545C49.0228 22.9691 49.0025 22.7771 48.9257 22.6026C48.8488 22.4281 48.7188 22.2791 48.5521 22.1745C48.3854 22.0699 48.1896 22.0143 47.9895 22.0149C47.7229 22.0171 47.468 22.118 47.2795 22.296C47.091 22.4739 46.9841 22.7146 46.9817 22.9662ZM47.0542 25.8288C47.0536 26.0402 47.1194 26.247 47.2434 26.423C47.3673 26.599 47.5438 26.7364 47.7505 26.8176C47.9572 26.8989 48.1848 26.9205 48.4044 26.8796C48.6241 26.8387 48.826 26.7372 48.9845 26.5879C49.143 26.4387 49.2511 26.2483 49.295 26.0411C49.3389 25.8338 49.3167 25.6189 49.2311 25.4235C49.1456 25.2282 49.0006 25.0612 48.8144 24.9437C48.6283 24.8262 48.4095 24.7635 48.1856 24.7635C48.0364 24.7631 47.8886 24.7907 47.7507 24.8446C47.6129 24.8985 47.4877 24.9777 47.3825 25.0775C47.2773 25.1774 47.1941 25.296 47.1377 25.4264C47.0814 25.5568 47.053 25.6965 47.0542 25.8373V25.8288ZM43.5936 27.76C43.5936 28.0698 43.6909 28.3727 43.8732 28.6303C44.0556 28.8879 44.3147 29.0887 44.6179 29.2073C44.9211 29.3259 45.2548 29.3569 45.5767 29.2964C45.8986 29.236 46.1943 29.0868 46.4263 28.8677C46.6584 28.6486 46.8164 28.3695 46.8805 28.0656C46.9445 27.7617 46.9116 27.4467 46.786 27.1604C46.6604 26.8742 46.4478 26.6295 46.1749 26.4574C45.902 26.2852 45.5812 26.1934 45.253 26.1934C45.0344 26.1937 44.818 26.2348 44.6163 26.3142C44.4146 26.3936 44.2314 26.5098 44.0773 26.6561C43.9231 26.8024 43.8011 26.9759 43.7181 27.1668C43.6351 27.3577 43.5928 27.5622 43.5936 27.7685V27.76ZM44.4806 24.5556C44.4806 24.7353 44.537 24.911 44.6428 25.0604C44.7485 25.2098 44.8989 25.3263 45.0747 25.395C45.2506 25.4638 45.4441 25.4818 45.6308 25.4467C45.8175 25.4117 45.989 25.3251 46.1236 25.1981C46.2582 25.071 46.3498 24.9091 46.387 24.7328C46.4241 24.5566 46.4051 24.3739 46.3322 24.2079C46.2594 24.0418 46.136 23.8999 45.9777 23.8001C45.8195 23.7002 45.6334 23.647 45.443 23.647C45.316 23.6473 45.1903 23.6714 45.0731 23.7177C44.9559 23.764 44.8496 23.8317 44.7602 23.9169C44.6707 24.0021 44.6 24.1032 44.552 24.2142C44.5041 24.3253 44.4798 24.4442 44.4806 24.5641V24.5556ZM41.3277 26.3842C41.3283 26.5639 41.3854 26.7394 41.4916 26.8885C41.5979 27.0376 41.7486 27.1537 41.9246 27.2219C42.1007 27.2902 42.2943 27.3076 42.4809 27.272C42.6675 27.2363 42.8387 27.1493 42.9729 27.0218C43.107 26.8944 43.1982 26.7322 43.2347 26.5558C43.2713 26.3795 43.2516 26.1968 43.1782 26.031C43.1048 25.8652 42.981 25.7237 42.8224 25.6243C42.6638 25.5249 42.4775 25.4722 42.2872 25.4727C42.0322 25.4742 41.7881 25.5709 41.6084 25.7417C41.4286 25.9125 41.3277 26.1435 41.3277 26.3842ZM43.8048 21.0692C43.8042 21.3571 43.894 21.6387 44.0629 21.8783C44.2318 22.118 44.4722 22.305 44.7537 22.4157C45.0352 22.5264 45.3451 22.5558 45.6443 22.5001C45.9435 22.4445 46.2185 22.3064 46.4345 22.1033C46.6505 21.9001 46.7979 21.641 46.858 21.3588C46.9181 21.0766 46.8881 20.7839 46.772 20.5177C46.6559 20.2515 46.4587 20.0238 46.2055 19.8634C45.9523 19.703 45.6544 19.6171 45.3495 19.6166C44.9413 19.6181 44.5502 19.7714 44.2611 20.0433C43.9719 20.3153 43.8079 20.6839 43.8048 21.0692ZM45.615 18.275C45.615 18.444 45.6681 18.6092 45.7675 18.7497C45.867 18.8903 46.0084 18.9998 46.1738 19.0644C46.3391 19.1291 46.5211 19.146 46.6967 19.1131C46.8723 19.0801 47.0336 18.9987 47.1602 18.8792C47.2867 18.7597 47.3729 18.6075 47.4079 18.4417C47.4428 18.2759 47.4249 18.1041 47.3564 17.948C47.2879 17.7918 47.1718 17.6584 47.023 17.5645C46.8741 17.4706 46.6992 17.4205 46.5201 17.4205C46.401 17.4201 46.283 17.4419 46.1728 17.4847C46.0627 17.5275 45.9625 17.5904 45.8782 17.6698C45.7938 17.7491 45.7268 17.8435 45.6812 17.9473C45.6355 18.0512 45.612 18.1625 45.612 18.275H45.615ZM41.2644 20.454C41.2644 20.623 41.3174 20.7882 41.4169 20.9287C41.5164 21.0692 41.6577 21.1788 41.8231 21.2434C41.9885 21.3081 42.1705 21.325 42.3461 21.2921C42.5216 21.2591 42.6829 21.1777 42.8095 21.0582C42.9361 20.9387 43.0223 20.7864 43.0572 20.6207C43.0921 20.4549 43.0742 20.2831 43.0057 20.127C42.9372 19.9708 42.8212 19.8374 42.6724 19.7435C42.5235 19.6496 42.3485 19.5995 42.1695 19.5995C42.0504 19.5991 41.9324 19.6209 41.8222 19.6637C41.712 19.7065 41.6119 19.7694 41.5275 19.8487C41.4432 19.9281 41.3762 20.0225 41.3305 20.1263C41.2849 20.2302 41.2613 20.3415 41.2613 20.454H41.2644ZM41.1407 23.4077C41.1407 23.6815 41.2267 23.9491 41.3878 24.1768C41.5489 24.4044 41.7779 24.5818 42.0458 24.6866C42.3138 24.7914 42.6086 24.8188 42.893 24.7654C43.1775 24.712 43.4387 24.5801 43.6438 24.3865C43.8489 24.1929 43.9885 23.9463 44.0451 23.6778C44.1017 23.4092 44.0726 23.1309 43.9617 22.878C43.8507 22.625 43.6627 22.4088 43.4216 22.2567C43.1805 22.1046 42.897 22.0234 42.607 22.0234C42.4138 22.0219 42.2223 22.0566 42.0435 22.1256C41.8647 22.1946 41.7022 22.2965 41.5655 22.4253C41.4288 22.5541 41.3206 22.7073 41.2471 22.8759C41.1737 23.0446 41.1364 23.2254 41.1377 23.4077H41.1407ZM38.1236 24.8575C38.123 25.1134 38.2028 25.3637 38.353 25.5767C38.5031 25.7897 38.7168 25.9559 38.9671 26.0542C39.2173 26.1526 39.4928 26.1786 39.7587 26.129C40.0246 26.0794 40.269 25.9565 40.4608 25.7757C40.6527 25.595 40.7835 25.3646 40.8366 25.1137C40.8897 24.8628 40.8627 24.6026 40.7591 24.3661C40.6555 24.1297 40.48 23.9276 40.2546 23.7853C40.0293 23.6431 39.7644 23.5672 39.4933 23.5672C39.1292 23.5672 38.7796 23.7026 38.5205 23.9441C38.2613 24.1856 38.1133 24.5137 38.1085 24.8575H38.1236ZM38.9382 21.6588C38.9382 21.8385 38.9946 22.0142 39.1004 22.1636C39.2061 22.313 39.3565 22.4295 39.5323 22.4983C39.7082 22.567 39.9017 22.585 40.0884 22.55C40.2751 22.5149 40.4466 22.4284 40.5812 22.3013C40.7158 22.1742 40.8075 22.0123 40.8446 21.8361C40.8817 21.6598 40.8627 21.4771 40.7898 21.3111C40.717 21.1451 40.5936 21.0032 40.4354 20.9033C40.2771 20.8035 40.091 20.7502 39.9006 20.7502C39.7732 20.7491 39.6468 20.7717 39.5286 20.8168C39.4105 20.8619 39.3029 20.9285 39.2121 21.013C39.1213 21.0974 39.049 21.1979 38.9994 21.3087C38.9498 21.4195 38.9239 21.5385 38.9231 21.6588H38.9382ZM47.386 28.6515C47.3952 28.4292 47.4941 28.2187 47.6624 28.063C47.8306 27.9073 48.0556 27.8183 48.2912 27.8141C48.4709 27.8141 48.6466 27.8647 48.7958 27.9594C48.9451 28.054 49.061 28.1885 49.129 28.3456C49.1969 28.5028 49.2138 28.6755 49.1773 28.8417C49.1409 29.0079 49.0529 29.1601 48.9245 29.2789C48.7961 29.3977 48.6331 29.4777 48.4564 29.5087C48.2796 29.5397 48.0971 29.5203 47.9321 29.453C47.767 29.3857 47.6269 29.2735 47.5297 29.1308C47.4325 28.988 47.3824 28.8212 47.386 28.6515Z" fill="#002F98"/>
<path d="M47.9888 54.7655C48.1065 54.7655 48.2544 54.831 48.2544 55.244C48.2544 55.7396 48.013 56.4004 47.1501 56.9188C46.3733 57.4064 45.4579 57.6597 44.5252 57.6452C44.7303 57.114 44.8443 56.5553 44.8631 55.9903C44.8577 55.8159 44.8426 55.6419 44.8179 55.469H45.1196C46.1266 55.4903 47.12 55.2467 47.9888 54.7655ZM48.185 52.5182C48.2717 52.43 48.3378 52.3256 48.3789 52.2118C48.4199 52.0979 48.4351 51.9771 48.4233 51.8573V51.3361C48.4233 50.6781 47.3673 50.2907 45.9221 50.2907C44.1662 50.2907 43.2279 51.0427 43.2279 51.3589V52.4014C43.2279 52.8343 44.2869 53.2559 45.5873 53.2559C46.5172 53.2988 47.4344 53.0383 48.185 52.5182ZM49.431 52.766C48.1502 53.7398 46.5498 54.2615 44.9054 54.2414C43.605 54.2414 43.0257 53.854 42.8357 53.854C42.5943 53.854 42.3258 54.0819 42.0633 54.3753C41.49 55.0133 40.7448 56.1954 40.7448 57.4885C40.7448 58.3971 41.49 59.3029 42.8809 59.3029C47.3854 59.3029 50.7465 56.6482 50.7465 54.4892C50.7555 53.2673 49.9771 52.766 49.431 52.766Z" fill="#002F98"/>
<path d="M50.2818 33.6704C50.2818 34.2401 50.4748 34.8952 51.0752 34.8952C51.5821 34.8952 52.0136 34.1689 52.0136 33.3742C52.0136 32.4684 51.8446 31.762 51.8446 31.4003C51.8446 31.2408 51.92 31.1724 52.0136 31.1724C52.3756 31.1952 52.7135 32.1295 53.0997 32.1295C53.5342 32.1295 54.1768 31.3775 54.4393 31.3775C54.5147 31.3775 54.5358 31.4658 54.5358 31.4914C54.5358 31.8304 53.9837 32.5795 53.9837 32.8757C53.9837 33.1235 55.3806 33.1606 55.3806 33.3998C55.3806 33.7416 53.9143 33.7416 53.2174 34.035C52.5204 34.3284 52.1342 34.6474 52.1342 35.1031C52.1342 35.5589 52.617 35.6472 53.2898 35.6472C54.9009 35.6472 56.0263 34.8297 56.3883 34.8297C56.4041 34.8284 56.42 34.8304 56.4349 34.8355C56.4499 34.8406 56.4634 34.8487 56.4746 34.8593C56.4858 34.8699 56.4944 34.8827 56.4999 34.8968C56.5053 34.9108 56.5074 34.9259 56.506 34.9408C56.506 35.1715 55.6914 35.9178 55.6914 36.2624C55.6914 36.6071 57.1848 37.0941 57.1577 37.3248C57.1366 37.3932 57.04 37.416 56.8711 37.416C56.6056 37.416 56.1983 37.3476 55.8815 37.3476C55.8051 37.3376 55.7274 37.3426 55.6532 37.3622C55.5789 37.3818 55.5098 37.4156 55.45 37.4616C55.2841 37.641 55.5013 38.8487 55.1634 38.8487C54.8255 38.8487 54.032 36.1684 52.1825 36.1684C51.92 36.1684 51.7239 36.3706 51.7239 36.7153C51.7239 37.6182 52.6653 38.6664 53.5553 39.1649C53.9596 39.4127 54.6324 39.6662 54.6324 39.8C54.6324 40.0849 53.0997 39.8228 53.0997 40.2757C53.0997 40.7286 53.2898 41.304 53.2898 41.6629C53.2898 41.7768 53.2657 41.9107 53.1208 41.9107C52.8342 41.9107 52.1342 40.6659 51.7993 40.6659C51.4976 40.6659 50.8942 41.4122 50.6166 41.4122C50.5996 41.4108 50.583 41.4062 50.5678 41.3987C50.5526 41.3911 50.5392 41.3809 50.5283 41.3684C50.5173 41.356 50.5091 41.3416 50.5041 41.3261C50.4991 41.3107 50.4973 41.2944 50.499 41.2783C50.499 40.7542 51.4041 39.5693 51.4041 38.43C51.4041 37.886 51.3317 36.7067 50.6317 36.7067C50.0585 36.7067 49.4068 37.5612 49.1232 38.43C48.9573 38.9284 49.0779 40.8625 48.6918 40.8625C48.3056 40.8625 48.4232 39.5665 47.9435 39.5665C47.5875 39.5665 46.8181 40.1817 46.5526 40.1817C46.5415 40.1829 46.5303 40.182 46.5196 40.179C46.5088 40.1761 46.4988 40.1712 46.4901 40.1646C46.4814 40.1579 46.4742 40.1497 46.4689 40.1405C46.4636 40.1312 46.4602 40.121 46.4591 40.1105C46.4591 39.8257 47.153 38.9512 47.153 38.7689C47.153 38.43 45.566 38.3844 45.566 38.1138C45.566 37.9515 46.1906 37.829 46.7729 37.7464C47.9948 37.5442 49.79 36.7067 49.79 35.5247C49.79 34.2059 48.4443 33.6391 47.5573 33.0951C47.0987 32.8102 46.5949 32.5937 46.5949 32.4143C46.5949 32.2349 47.1711 32.2349 47.4155 32.2349C47.7746 32.2349 48.1276 32.2092 48.1276 31.9358C48.1276 31.7307 48.0823 31.3234 48.0823 31.0072C48.0823 30.7794 48.1064 30.5971 48.206 30.5971C48.562 30.5971 49.0719 31.7079 49.3103 31.7079C49.6904 31.7079 50.2154 30.8021 50.5835 30.8021C50.7041 30.8021 50.7524 30.8734 50.7524 31.087C50.7343 31.8988 50.2818 32.8529 50.2818 33.6704ZM38.8168 27.0196C39.0823 28.9479 41.8339 27.9737 41.8339 30.3094C41.8339 30.6483 41.7374 31.1496 41.7374 31.5797C41.7374 32.0839 41.7856 32.514 42.1899 32.514C42.5942 32.514 42.6938 32.2292 42.6938 31.8788C42.6938 31.5285 42.5972 31.0613 42.5972 30.8107C42.5823 30.6846 42.5965 30.5569 42.6388 30.4364C42.681 30.3159 42.7504 30.2055 42.8421 30.1127C42.9338 30.0199 43.0457 29.9469 43.1701 29.8987C43.2944 29.8506 43.4284 29.8284 43.5627 29.8337C44.4678 29.8337 45.1768 30.7195 46.5466 30.7195C46.2449 32.175 43.0558 31.7848 43.0558 33.3742C43.0558 34.1689 43.8976 34.3512 44.4497 34.3512C45.0019 34.3512 45.1286 34.2828 45.1286 33.8755C45.1286 33.6505 45.0803 33.3998 45.0803 33.2375C45.0803 33.1891 45.1006 33.1428 45.1369 33.1086C45.1731 33.0744 45.2222 33.0552 45.2734 33.0552C45.7984 33.0552 48.3931 34.9208 48.3931 35.4877C48.3931 36.0061 45.6535 36.533 44.8601 36.533C44.8223 36.5394 44.7835 36.5378 44.7465 36.5281C44.7095 36.5185 44.6752 36.5012 44.6463 36.4774C44.6173 36.4536 44.5944 36.424 44.5792 36.3907C44.564 36.3575 44.5568 36.3214 44.5583 36.2852C44.5583 36.1228 44.9687 35.6472 44.9687 35.3737C44.9687 35.1715 44.6066 35.0348 43.6472 35.0348C43.1886 35.0348 42.8537 35.0803 42.8537 35.4193C42.8537 36.0345 43.9127 36.7837 43.9127 37.3476C43.9127 37.8034 43.611 38.0796 42.8537 38.0796C42.199 38.0796 41.2154 37.5983 41.2154 36.8036C41.2154 36.1684 41.9124 35.5332 41.9124 35.1487C41.9124 35.0348 41.8218 34.8639 41.5292 34.8639C40.6422 34.8639 40.4008 37.0884 37.2449 37.3362C37.5495 37.1159 37.7941 36.8301 37.9583 36.5027C38.1226 36.1753 38.2017 35.8156 38.1893 35.4535C38.1893 34.9778 38.0686 34.599 38.0686 34.0692C38.0686 33.3856 38.4035 33.0438 38.8832 33.0438C39.7732 33.0438 40.2077 34.2258 40.787 34.2258C40.9679 34.2148 41.137 34.1374 41.2582 34.0102C41.3794 33.883 41.4431 33.7161 41.4357 33.5451C41.4357 31.819 37.9238 32.0697 37.9238 29.64C37.9117 28.9707 38.1591 28.156 38.8168 27.0196Z" fill="#002F98"/>
<path d="M43.3739 41.765C43.3701 41.8391 43.3825 41.9131 43.4102 41.9824C43.4379 42.0518 43.4803 42.1151 43.5348 42.1685C43.5893 42.2218 43.6548 42.2641 43.7273 42.2927C43.7997 42.3212 43.8776 42.3356 43.9561 42.3347C44.0449 42.3301 44.1317 42.3086 44.2115 42.2716C44.2912 42.2345 44.3622 42.1827 44.4203 42.1191C44.4783 42.0556 44.5221 41.9816 44.5492 41.9017C44.5762 41.8217 44.5859 41.7375 44.5777 41.6539C44.5777 41.1783 44.1221 40.5146 43.6906 40.5146C43.4945 40.5146 43.5669 40.7994 43.5187 41.0843C43.4945 41.3207 43.3739 41.5941 43.3739 41.765ZM42.1368 38.7543C44.6652 39.2072 46.0379 41.0045 46.0379 42.685C46.0379 43.8443 45.2716 44.9067 43.926 44.9067C42.695 44.9067 41.814 44.1149 41.814 42.8417C41.814 41.8875 42.6015 40.8934 42.6015 39.9108C42.6018 39.4846 42.4365 39.0731 42.1368 38.7543ZM38.9267 42.6195C39.0251 42.707 39.1029 42.8131 39.1549 42.9309C39.2069 43.0487 39.2319 43.1755 39.2284 43.3031C39.2284 43.6421 39.0594 44.0038 39.0594 44.3912C39.0566 44.524 39.0819 44.656 39.1339 44.7795C39.1859 44.9029 39.2635 45.0153 39.3622 45.1101C39.4608 45.2048 39.5786 45.28 39.7084 45.3311C39.8383 45.3823 39.9777 45.4085 40.1184 45.4081C40.2695 45.41 40.4195 45.3831 40.5592 45.3289C40.699 45.2747 40.8257 45.1944 40.9317 45.0927C41.0377 44.991 41.1208 44.8702 41.176 44.7374C41.2312 44.6046 41.2573 44.4626 41.2528 44.32C41.2649 43.4541 40.3266 42.6195 38.9267 42.6195ZM46.8918 41.1669C47.0421 41.3819 47.1248 41.6328 47.1301 41.8904C47.1301 42.5284 46.6745 43.118 46.6745 43.7731C46.6726 43.9579 46.7108 44.1411 46.7868 44.3114C46.8627 44.4817 46.9748 44.6355 47.1162 44.7634C47.2575 44.8912 47.4251 44.9903 47.6086 45.0547C47.7921 45.119 47.9876 45.1472 48.1831 45.1375C48.4069 45.1369 48.6282 45.0937 48.8338 45.0104C49.0395 44.9271 49.2252 44.8055 49.3799 44.6528C49.5345 44.5001 49.655 44.3196 49.7339 44.1219C49.8129 43.9243 49.8488 43.7136 49.8395 43.5025C49.8455 42.2977 48.69 41.278 46.8918 41.164V41.1669ZM39.5059 39.962C40.6132 40.0987 40.8757 40.4633 40.8757 40.7567C40.8757 41.258 40.396 41.4147 39.9374 41.4147C39.6025 41.4147 39.2193 41.3492 38.806 41.3492C38.5254 41.3305 38.2441 41.3738 37.9843 41.4756C37.7246 41.5775 37.4935 41.7351 37.3095 41.9359C37.5059 41.9462 37.6919 42.023 37.8332 42.1522C37.9745 42.2814 38.0617 42.4544 38.0789 42.6395C38.0789 43.9582 34.2079 42.8673 34.2079 46.2483C34.2079 48.0428 36.1781 49.9939 39.162 49.9939C40.7037 49.9939 41.6903 49.5182 41.6903 48.9713C41.6903 48.5412 40.8697 48.8346 40.8697 48.4757C40.8697 48.3162 41.1714 48.02 41.1714 47.7693C41.1714 47.6582 41.0748 47.4532 40.8697 47.4532C40.4412 47.4532 39.6206 48.1111 37.9612 48.1111C36.6608 48.1111 35.3876 47.4076 35.3876 46.4562C35.3876 46.2483 35.4842 46.1344 35.626 46.1344C35.7678 46.1344 35.9639 46.2284 36.1359 46.2284C36.3078 46.2284 36.2988 46.1344 36.2988 45.8837C36.2988 45.6331 36.2988 44.9295 36.7574 44.9295C37.216 44.9295 38.0789 46.5246 41.4037 46.5246C42.5049 46.5246 44.644 46.3195 45.4406 45.6359C45.4245 46.415 45.2453 47.1835 44.9132 47.8969C44.5811 48.6103 44.1027 49.2546 43.5056 49.7927C42.9085 50.3307 42.2044 50.7518 41.4341 51.0318C40.6637 51.3117 39.8423 51.4449 39.0172 51.4237C34.5217 51.4237 32.1141 48.0057 32.1141 44.8726C32.13 43.1033 32.8886 41.4122 34.2234 40.1702C35.5582 38.9282 37.3603 38.2367 39.2344 38.2473C40.2904 38.2473 41.1834 38.5863 41.1834 39.0164C41.1895 39.6202 39.6266 39.2556 39.5059 39.9592V39.962Z" fill="#002F98"/>
<path d="M23.9442 14.031C25.5282 14.031 26.2492 15.327 26.2492 16.7768C26.2492 17.412 26.0592 18.3434 25.7454 18.3434C25.4316 18.3434 25.4829 17.825 25.4437 17.3436C25.3984 16.7341 25.2747 16.5974 25.0545 16.5974C24.6502 16.5974 24.3847 17.5031 24.3847 18.3434C24.3847 18.8675 24.4782 19.4571 24.9127 19.4571C25.1409 19.4516 25.3576 19.3616 25.5161 19.2065C25.4195 20.2518 24.611 21.1604 23.4433 21.1604C21.3314 21.1604 20.5379 18.8248 20.2935 17.4576C19.0203 18.7279 17.8436 19.6622 15.7226 19.6622C13.7525 19.6622 12.8624 18.3007 12.8624 17.0047C12.8624 16.6173 13.0103 15.6204 13.5111 15.6204C14.1145 15.6204 13.5865 17.4832 14.7662 17.4832C15.0679 17.4832 15.5808 17.2525 15.8674 16.5062C16.0334 16.0767 16.124 15.6246 16.136 15.1675C16.136 14.5523 15.9911 14.1649 15.5084 14.1649C15.1051 14.2037 14.7255 14.3634 14.4253 14.6206C14.6427 13.9028 15.1032 13.2719 15.7363 12.8244C16.3694 12.3769 17.1403 12.1374 17.9311 12.1426C19.8289 12.1426 20.8366 13.7319 20.8366 15.5008C20.8385 15.7594 20.8163 16.0177 20.7702 16.2727C21.5848 15.008 22.7162 14.031 23.9442 14.031ZM22.0917 16.6999C22.0917 16.3125 21.9921 16.2242 21.8986 16.2242C21.6572 16.2242 21.3917 16.4948 20.9935 17.1044C21.0417 17.9247 21.1866 18.2893 21.4249 18.2893C21.6633 18.2893 22.0917 17.5031 22.0917 16.6999ZM18.794 17.6313C19.0625 17.6313 19.3974 17.3607 20.022 16.6999C20.0635 16.3978 20.0796 16.093 20.0702 15.7884C20.0702 15.3356 19.8802 14.8371 19.5905 14.8371C18.8664 14.8371 18.5074 16.6543 18.5074 17.13C18.5074 17.412 18.6522 17.6427 18.794 17.6427V17.6313ZM22.7162 19.6508C23.3196 19.6508 23.9925 17.4718 23.9925 16.1075C23.9925 15.8226 23.9442 15.4951 23.7994 15.4951C23.2925 15.4951 22.4507 17.7453 22.4507 18.9672C22.4507 19.4571 22.5714 19.6622 22.7162 19.6622V19.6508ZM16.8239 18.4089C17.6445 18.4089 18.5768 14.2276 18.5768 13.524C18.5768 13.3446 18.5074 13.205 18.3384 13.205C17.5962 13.205 16.5584 17.1927 16.5584 18.0671C16.5584 18.2323 16.6066 18.4089 16.8239 18.4089Z" fill="#002F98"/>
<path d="M19.4484 20.1375C18.4135 20.1375 18.3653 21.3195 18.3653 23.7036C17.5989 22.137 16.3227 20.4536 14.8322 20.4536C13.8185 20.4536 13.4384 21.0945 13.4384 22.1997C13.4367 22.4592 13.4589 22.7185 13.5047 22.9744C13.6284 22.5899 14.0146 22.4304 14.4913 22.4304C15.5292 22.4304 16.7783 23.1795 17.5989 24.2021C16.7355 24.0291 15.8587 23.9224 14.9771 23.883C14.5409 23.8629 14.1054 23.9329 13.7008 24.0881C13.0039 24.373 12.0626 25.3585 12.0626 26.8368C12.066 27.088 12.0912 27.3385 12.138 27.5859C12.9737 25.8114 15.2154 25.0224 16.6636 25.0224C16.8879 25.0226 17.1118 25.0387 17.3334 25.0708C16.5942 25.706 16.4283 26.8197 16.377 27.5659C16.3529 27.9305 16.208 27.9562 15.9395 27.9562C15.9395 28.7024 16.5671 29.8161 16.5671 30.3801C16.5724 30.4662 16.553 30.5521 16.5111 30.6288C16.4692 30.7055 16.4062 30.7701 16.3287 30.8159C16.3287 31.8128 17.3847 32.542 17.3847 33.1743C17.3919 33.3056 17.3491 33.4349 17.264 33.5389C17.3334 33.9491 18.501 34.6355 18.6519 34.9802C18.8389 35.3989 19.0441 35.4701 19.1618 35.4701C19.5751 35.4701 20.2208 35.0172 20.2208 34.6156C20.2121 34.5449 20.1888 34.4766 20.152 34.4145C20.1152 34.3524 20.0658 34.2978 20.0065 34.2538C19.551 33.9348 19.3096 33.2512 19.1165 32.7983C19.0104 32.8046 18.9054 32.7748 18.8207 32.7141C18.7359 32.6535 18.6771 32.5661 18.6549 32.4679C18.5221 31.9951 18.5161 31.1178 18.323 30.5966C18.0213 30.5282 17.8705 30.4171 17.8705 29.8019C17.8705 29.5171 18.0605 28.3492 18.0605 27.9391C18.0121 27.9386 17.9643 27.9285 17.9203 27.9094C17.8763 27.8903 17.837 27.8626 17.8051 27.8282C17.7732 27.7938 17.7494 27.7534 17.7352 27.7097C17.7209 27.6659 17.7167 27.6199 17.7226 27.5745C17.7226 26.851 18.489 26.2785 18.7062 25.3528C20.079 26.307 20.4108 27.2811 20.4108 28.1441C20.4072 28.5805 20.3525 29.0151 20.2479 29.4401C21.2556 28.9616 22.7732 28.2581 22.7732 26.8282C22.7732 25.988 22.3629 25.0566 19.6475 24.692C20.5442 24.3938 21.4877 24.2407 22.4383 24.2391C23.974 24.2391 24.852 24.692 25.0541 25.7145C25.3806 25.2892 25.5739 24.7859 25.6123 24.2619C25.6123 23.1482 24.6227 22.4218 23.3736 22.4218C21.9073 22.4218 20.6069 23.1482 19.2131 24.034C19.8376 22.8092 20.269 22.0829 21.0414 22.0829C21.1626 22.0862 21.2831 22.1025 21.4004 22.1313C21.1078 21.1145 20.0247 20.1375 19.4484 20.1375Z" fill="#002F98"/>
<path d="M59.9672 36.5046C61.174 36.5046 62.1304 37.9857 62.1304 39.709C62.1094 40.693 61.8725 41.6622 61.4348 42.5554C60.997 43.4487 60.3678 44.2465 59.587 44.8987C59.5599 41.8395 55.5894 42.8137 55.5894 40.5891C55.5775 40.3848 55.6098 40.1802 55.6843 39.988C55.7587 39.7958 55.8738 39.6199 56.0225 39.4709C56.1713 39.322 56.3505 39.2032 56.5494 39.1217C56.7482 39.0402 56.9626 38.9978 57.1794 38.9969C57.5097 38.9768 57.8408 39.021 58.1523 39.1269C58.4637 39.2327 58.7487 39.3979 58.9896 39.6121C58.7829 39.4228 58.6186 39.1961 58.5066 38.9456C58.3947 38.695 58.3373 38.4257 58.338 38.1538C58.3319 37.3021 58.9112 36.5046 59.9672 36.5046Z" fill="#002F98"/>
<path d="M42.136 13.2821C41.9459 12.9972 41.2308 12.8235 40.8899 12.8235C40.4571 12.8131 40.033 12.9391 39.6845 13.1815C39.3359 13.4239 39.0828 13.7689 38.965 14.1622C38.8583 13.918 38.801 13.6572 38.796 13.3932C38.796 12.3934 39.5201 11.1714 41.2791 11.1714C42.8148 11.1714 43.4152 11.9405 43.6324 11.9405C43.8497 11.9405 44.1152 11.7098 44.3052 11.7098C44.5677 11.7098 44.5677 12.1 44.5677 12.3706C44.5677 13.2821 44.1363 14.8458 43.0592 15.4126C42.8067 14.926 42.3789 14.5402 41.8523 14.3246C41.7796 14.2981 41.7174 14.251 41.6742 14.1898C41.631 14.1286 41.6089 14.0563 41.611 13.9828C41.6313 13.8344 41.6898 13.693 41.7813 13.5709C41.8728 13.4487 41.9946 13.3496 42.136 13.2821ZM38.5155 14.9341C39.146 15.5038 39.6921 15.7516 40.3649 15.7516C40.6334 15.7516 40.9472 15.6861 41.1162 15.6861C41.2851 15.6861 41.4782 15.7744 41.4782 15.9339C41.4229 16.2808 41.2338 16.5963 40.9472 16.8197C41.2453 16.9323 41.5646 16.9866 41.8855 16.9792C43.2523 16.9792 44.8121 16.1589 44.8121 14.1309C45.0956 14.5698 45.2555 15.0698 45.2767 15.5835C45.2767 18.0587 43.3488 19.0015 41.5748 19.0015C40.9292 18.9921 40.291 18.8704 39.6921 18.6426C39.2395 18.6426 39.2607 19.4971 38.9469 19.48C38.3948 19.3917 37.8909 18.2325 37.8909 17.0048C37.8666 16.2739 38.0769 15.553 38.4943 14.9369L38.5155 14.9341Z" fill="#002F98"/>
<path d="M17.9087 0.50093C17.9087 0.36421 17.1846 0.216097 16.2011 0.216097C14.6352 0.216097 14.8554 1.44658 13.6516 1.44658C12.3995 1.44658 12.7103 0.173373 11.1263 0.173373C10.1639 0.173373 9.27384 0.332878 9.27384 0.540807C9.27384 0.811399 10.4022 0.697465 10.4022 1.44658C10.4022 2.24126 7.98856 2.46913 7.98856 2.94195C7.98856 3.10146 8.18165 3.17267 8.42302 3.17267C8.95101 3.17267 9.79278 2.94195 10.3962 2.94195C10.7311 2.94195 11.0449 3.01032 11.0449 3.30939C11.0449 3.87906 9.74451 4.89876 9.74451 5.35165C9.74451 5.49122 9.86217 5.53394 9.98285 5.53394C10.4686 5.53394 11.2832 4.37752 12.0556 4.37752C13.3318 4.37752 12.487 6.94102 13.184 6.94102C13.8809 6.94102 13.5943 4.42024 14.6262 4.42024C15.4709 4.42024 16.0955 6.16627 16.6717 6.16627C16.7095 6.16575 16.7466 6.15772 16.7809 6.14271C16.8151 6.12771 16.8456 6.10606 16.8703 6.07919C16.8951 6.05231 16.9136 6.02081 16.9246 5.98674C16.9356 5.95267 16.9389 5.91679 16.9342 5.88144C16.9342 5.40292 16.2162 4.42594 16.2162 3.79361C16.2156 3.71295 16.2332 3.6331 16.2677 3.55934C16.3023 3.48558 16.3531 3.41959 16.4167 3.36573C16.4803 3.31188 16.5553 3.27139 16.6367 3.24695C16.7181 3.22251 16.8041 3.21466 16.889 3.22394C17.4411 3.22394 18.1893 3.5458 18.5936 3.5458C18.7384 3.5458 18.8953 3.50308 18.8953 3.34357C18.8953 2.79669 16.7562 2.20424 16.7562 1.50355C16.7562 0.802855 17.9087 0.817096 17.9087 0.50093ZM23.5597 2.81378C23.5597 3.22394 25.0683 4.10693 25.7713 4.10693C26.1786 4.10693 26.2993 3.58568 26.2993 3.0388C26.2993 2.3609 25.9975 2.33526 25.364 2.33526C24.5674 2.33526 23.5597 2.54034 23.5597 2.81378ZM26.0609 7.29991C26.0609 5.9441 22.1568 3.46605 22.1146 2.40077C22.1206 2.29258 22.1703 2.19068 22.2533 2.11594C22.9231 1.45228 25.6989 0.976604 25.6989 0.406937C25.6989 0.122103 25.1226 0.122103 24.8329 0.122103C22.5973 0.122103 19.3268 0.896849 19.3268 1.64027C19.3268 2.38368 22.2594 4.30346 22.2594 5.23487C22.2594 5.47982 22.0934 5.57097 21.8249 5.57097C21.0103 5.57097 19.2302 4.64241 18.3885 4.64241C18.0053 4.64241 17.8635 4.89307 17.8635 5.25481C17.8635 6.34572 19.2302 8.41361 19.2302 9.02316C19.2302 9.08867 19.2061 9.18266 19.1095 9.18266C18.6781 9.18266 16.6355 6.90399 15.9114 6.90399C15.6459 6.90399 15.6097 7.24864 15.6097 7.75849V8.52754C15.6097 9.05449 15.5856 9.38204 15.308 9.38204C14.6835 9.38204 14.4029 7.72716 13.7995 7.72716C13.1961 7.72716 13.0512 10.678 12.4538 10.678C11.7569 10.678 12.3573 7.42524 11.6845 7.42524C10.9423 7.42524 10.0945 9.58428 9.57253 9.58428C9.37944 9.58428 9.33418 9.40483 9.33418 9.24533C9.33418 8.58451 9.74149 7.53632 9.74149 6.88405C9.74149 6.56789 9.64494 6.3856 9.35832 6.3856C8.61008 6.3856 6.97784 7.52493 6.34123 7.52493C6.24167 7.52493 6.124 7.47651 6.124 7.38536C6.124 6.84133 8.74284 5.10669 8.74284 4.34334C8.74284 3.57998 5.12233 4.09553 5.12233 3.23249C5.12233 2.50616 7.69892 1.7542 7.69892 1.00509C7.69892 0.34997 4.64563 0.0537415 3.475 0.0537415C2.05395 0.0537415 1.2846 0.2104 1.2846 0.594926C1.2846 1.18738 4.50986 1.36967 4.50986 1.88807C4.50986 2.40647 1.16995 3.73095 1.16995 4.50569C1.16995 5.1836 5.88263 4.54842 5.88263 5.25481C5.88263 6.02386 1.76431 9.36211 1.76431 10.473C1.76431 10.7236 1.96043 10.8375 2.22593 10.8375C3.475 10.8375 6.71837 8.58736 7.61143 8.58736C7.91314 8.58736 7.94632 8.9548 7.94632 9.26811C7.94632 9.86057 7.73513 10.7692 7.73513 11.4272C7.73513 11.9484 7.87391 12.313 8.35664 12.313C9.26177 12.313 10.0613 10.8888 10.6647 10.8888C11.4371 10.8888 10.9664 15.0901 12.131 15.0901C13.1176 15.0901 13.5279 10.5499 14.1495 10.5499C14.771 10.5499 15.2839 11.8629 15.8601 11.8629C16.5812 11.8629 16.2463 9.58428 17.0157 9.58428C17.8575 9.58428 20.259 12.3073 21.3422 12.3073C21.6801 12.3073 21.7978 12.0595 21.7978 11.7376C21.7978 10.5356 20.0207 7.81261 20.0207 6.94672C20.0207 6.7217 20.0931 6.66188 20.3556 6.66188C21.2969 6.66188 24.0395 7.88382 25.3368 7.88382C25.7954 7.83255 26.0609 7.60753 26.0609 7.29991ZM4.12066 5.99253C4.12066 6.44826 2.28929 7.96927 1.64061 7.96927C1.40226 7.96927 1.3389 7.69868 1.3389 7.44518C1.3389 6.98944 1.56217 6.35711 1.81862 6.15488C2.12033 5.87005 2.8565 5.74472 3.40863 5.74472C3.71637 5.74472 4.12066 5.81308 4.12066 5.99253ZM21.7947 8.33101C21.7947 9.12569 24.8118 13.008 25.379 13.008C25.8588 13.008 26.2208 12.2133 26.2208 11.5325C26.2223 11.3569 26.1722 11.1844 26.076 11.0341C25.6445 10.4644 22.5882 8.18574 21.9154 8.18574C21.896 8.18558 21.8767 8.18937 21.8589 8.19685C21.8412 8.20433 21.8253 8.21533 21.8124 8.22911C21.7995 8.24289 21.7899 8.25912 21.7843 8.2767C21.7786 8.29428 21.7771 8.3128 21.7797 8.33101H21.7947Z" fill="#002F98"/>
<path d="M60.4008 1.45307C60.4008 1.56573 60.4362 1.67587 60.5025 1.76955C60.5688 1.86324 60.663 1.93625 60.7733 1.97937C60.8836 2.02249 61.0049 2.03377 61.1219 2.01179C61.239 1.98981 61.3465 1.93555 61.4309 1.85588C61.5153 1.77621 61.5728 1.67471 61.596 1.5642C61.6193 1.4537 61.6074 1.33916 61.5617 1.23506C61.516 1.13097 61.4387 1.042 61.3395 0.979404C61.2402 0.916808 61.1236 0.883398 61.0042 0.883398C60.8442 0.883398 60.6907 0.943416 60.5775 1.05025C60.4644 1.15708 60.4008 1.30198 60.4008 1.45307ZM56.4786 6.47183C56.4786 4.85967 52.3935 4.44667 52.3935 4.08493C52.3935 3.80009 54.6774 3.29309 55.851 3.26745C54.0408 1.09132 51.4793 1.31634 51.4793 0.931819C51.4793 0.703952 53.4042 0.248218 55.1812 0.248218C56.6717 0.248218 58.0686 0.564383 58.0686 1.62966C58.0686 2.22496 57.5647 2.83736 57.5647 3.74598C57.5647 4.25013 57.8272 4.68023 58.5212 4.68023C59.2694 4.68023 59.4414 3.92542 59.4414 3.13074C59.4414 2.47562 59.3177 1.9914 59.3177 1.6553C59.3059 1.44341 59.3415 1.23156 59.4221 1.03351C59.5028 0.835458 59.6267 0.655642 59.7857 0.505744C59.9448 0.355846 60.1355 0.239221 60.3454 0.163447C60.5553 0.087673 60.7798 0.0544455 61.0042 0.0659243C61.8188 0.0659243 62.0089 0.404877 63.2127 0.404877C62.9634 0.547444 62.7532 0.743457 62.5991 0.977033C62.445 1.21061 62.3513 1.47518 62.3257 1.74929C62.3257 2.70064 62.9714 3.36145 62.9714 5.31256C62.9714 8.89862 59.4142 10.1718 55.0606 10.1718C53.8137 10.1658 52.5691 10.0706 51.3375 9.88699C51.1414 9.86705 51.0961 9.81863 51.0961 9.7047C51.0961 9.41986 52.8008 9.25181 52.8008 7.79916C52.7642 7.35744 52.7007 6.91807 52.6107 6.48323C52.6099 6.45932 52.6142 6.4355 52.6234 6.41322C52.6326 6.39095 52.6466 6.37067 52.6643 6.35362C52.6821 6.33657 52.7034 6.32311 52.7268 6.31406C52.7503 6.305 52.7754 6.30054 52.8008 6.30093C53.1628 6.30093 53.8869 7.61971 55.2295 7.61971C55.3947 7.63447 55.5614 7.6152 55.7179 7.56322C55.8745 7.51124 56.0172 7.4278 56.1363 7.31865C56.2553 7.20951 56.3478 7.07727 56.4075 6.93106C56.4671 6.78486 56.4924 6.62817 56.4816 6.47183H56.4786ZM60.5396 4.16753C60.5396 6.187 58.9798 7.73365 56.1618 8.1552C56.4635 8.17799 56.7652 8.17799 57.0518 8.17799C60.3435 8.17799 61.5503 6.77376 61.5503 5.58885C61.5639 5.28124 61.4733 4.97755 61.2915 4.72194C61.1097 4.46632 60.8463 4.27211 60.5396 4.16753Z" fill="#002F98"/>
<path d="M58.888 33.4451C59.2712 32.3057 59.7539 31.5139 60.5444 30.2863C59.7539 29.9018 57.6631 29.0843 57.6631 27.7427C57.6631 26.179 59.7268 24.9542 60.1613 24.9542C60.3483 24.9542 60.3996 25.108 60.3996 25.4071C60.3996 26.2245 59.9893 27.5405 59.9893 28.2554C59.9893 28.8906 60.4237 29.5058 60.8069 29.5058C61.1901 29.5058 62.3456 28.1415 62.3456 26.8028C62.3686 26.0273 62.0789 25.2725 61.5351 24.691C60.9913 24.1094 60.2339 23.7443 59.416 23.6696C58.7704 23.6696 57.6058 24.6751 54.824 24.6751C49.6527 24.6751 48.4882 19.8329 48.4882 17.7251C48.4882 17.634 48.5063 17.6083 48.5334 17.6083C49.197 18.0355 49.9914 18.2437 50.7932 18.2008C51.638 18.2008 52.4073 17.9985 53.6353 17.9985C56.5136 17.9985 57.7959 19.8785 59.5729 22.2881C60.653 22.9205 63.2266 23.943 63.2266 26.8284C63.2266 29.372 60.3604 30.779 59.6664 33.5049C60.7707 33.3881 61.4224 31.5282 62.5538 31.5282C63.1301 31.5282 63.3956 31.9611 63.3956 32.6419C63.3573 33.293 63.1824 33.9305 62.881 34.5172C62.5795 35.104 62.1576 35.6284 61.6396 36.0599C61.6615 35.9481 61.6696 35.8344 61.6638 35.7209C61.6638 35.0886 61.3983 34.1771 60.6289 34.1771C59.4221 34.1771 59.0449 35.4047 58.3691 36.4244C57.6752 34.1116 56.7338 32.0181 55.0503 30.7477C53.3668 29.4774 50.41 30.1581 50.41 27.7968C50.41 27.1617 50.8415 26.2559 50.8415 25.5182C50.8555 25.283 50.7877 25.0499 50.6484 24.8545C52.9595 25.6748 52.1418 27.1332 53.5629 28.6257C54.4469 29.5827 56.9028 30.4914 58.3269 34.4164C58.3533 34.2132 58.3674 34.0087 58.3691 33.804C58.3691 30.4429 53.6625 27.1503 53.2401 25.7859C55.9735 26.0707 56.4593 26.7202 57.7657 30.1239C58.0221 30.8303 58.888 32.5792 58.888 33.4451ZM58.2605 22.4306C58.2605 21.9577 56.9873 21.9122 56.8666 20.5706C56.8425 20.3655 56.77 20.0009 56.5015 20.0009C56.0701 20.0009 56.408 21.2485 55.9253 21.2485C54.824 21.2485 54.459 19.2034 54.0517 19.2034C53.9551 19.2034 53.8435 19.2718 53.8435 19.5452C53.8435 19.8186 53.8887 19.9525 53.8887 20.2487C53.8887 20.545 53.8133 20.7472 53.5297 20.7472C52.878 20.7472 52.3017 19.323 51.7436 19.323C51.6869 19.3174 51.6301 19.3331 51.5855 19.3666C51.5409 19.4002 51.5121 19.449 51.5052 19.5025C51.5052 19.7731 51.985 20.2772 51.985 20.525C51.985 21.0691 50.4191 20.7757 50.4191 21.2314C50.4191 21.4308 50.6363 21.5162 50.929 21.5162C51.4328 21.5162 52.2263 21.3083 52.6366 21.3083C52.878 21.3083 53.2401 21.3567 53.2401 21.6501C53.2401 21.9435 52.3711 22.3793 52.3711 22.6727C52.3711 22.8094 52.519 22.8749 52.6366 22.8749C53.2853 22.8749 54.4469 21.8096 55.2555 21.8096C55.3973 21.8096 55.7563 21.8808 55.7563 22.0945C55.7563 22.3793 54.9417 22.9119 54.9417 23.342C54.9417 23.4531 55.0141 23.5927 55.1589 23.5927C55.5904 23.5927 56.1666 22.5274 56.9873 22.5274C57.289 22.5274 57.7566 22.6385 57.998 22.6385C58.1881 22.6129 58.2605 22.5018 58.2605 22.4306Z" fill="#002F98"/>
<path d="M40.3448 8.82985C40.734 8.82985 40.8064 9.71568 40.8758 10.2369C40.9271 10.5218 40.9723 10.536 41.096 10.536C41.3977 10.536 41.8412 9.49066 42.146 9.49066C42.6076 9.49066 43.8355 10.6927 45.8781 10.6927C48.7836 10.6927 51.5321 8.76149 51.5321 5.35772C51.5321 2.06504 49.0762 0.136719 45.688 0.136719C44.0739 0.136719 42.8942 0.885833 42.2697 0.885833C41.8895 0.90862 41.3072 0 41.0206 0C40.9029 0 40.7823 0.222169 40.7823 0.61524C40.7823 0.863045 40.7823 1.65488 40.4805 1.65488C39.9013 1.65488 37.6656 0.0939944 37.6656 0.657965C37.6656 1.17921 39.156 2.76573 39.156 3.17874C39.156 3.59175 37.6867 3.97343 37.6867 4.24972C37.6867 4.74533 39.2526 4.83648 39.2526 5.46881C39.2526 6.10114 37.6173 6.60814 37.6173 7.08097C37.6173 7.46834 39.2526 7.2006 39.2526 7.67627C39.2526 8.15194 38.0458 9.74132 38.0458 10.1942C38.0458 10.3053 38.0669 10.3053 38.1664 10.3053C38.6401 10.3053 40.025 8.82985 40.3448 8.82985ZM41.0447 5.10992C41.0447 4.85926 40.1034 4.38359 40.1034 4.1073C40.1034 4.06458 40.1517 4.04179 40.2271 4.04179C40.4926 4.04179 40.9482 4.13294 41.3072 4.13294C41.6663 4.13294 41.6693 2.86258 41.9106 2.86258C42.0796 2.86258 42.3662 4.06458 42.6347 4.06458C42.9364 4.06458 43.5218 3.72278 43.7661 3.72278C43.8114 3.72278 43.8627 3.74556 43.8627 3.79114C43.8627 3.9478 43.2593 4.56588 43.2593 4.74533C43.2593 4.92478 44.6049 5.19822 44.6049 5.37766C44.6049 5.60553 43.2351 5.58274 43.2351 5.78782C43.2351 5.9929 43.739 6.58536 43.739 6.79044C43.74 6.79953 43.7388 6.80872 43.7355 6.81731C43.7322 6.8259 43.7268 6.83366 43.7198 6.83998C43.7128 6.84631 43.7044 6.85104 43.6952 6.85381C43.6859 6.85657 43.6762 6.85731 43.6666 6.85595C43.4735 6.85595 42.7313 6.53978 42.5141 6.53978C42.2455 6.53978 41.8201 7.46834 41.6089 7.46834C41.5335 7.46834 41.4913 7.38004 41.4913 7.26326L41.44 6.35749C41.44 6.26634 41.3947 6.17235 41.274 6.17235C40.9723 6.17235 40.4292 6.15526 40.2573 6.15526C40.1396 6.15526 40.0913 6.12962 40.0913 6.08405C40.0823 5.90176 41.0447 5.26658 41.0447 5.10992ZM45.7333 9.4223C44.0498 9.4223 42.9455 8.62477 42.9455 8.2203C42.9418 8.17654 42.9476 8.13252 42.9627 8.09101C42.9779 8.04949 43.0019 8.01136 43.0333 7.97901C43.0647 7.94666 43.1029 7.92078 43.1454 7.903C43.188 7.88521 43.2339 7.8759 43.2804 7.87565C43.8084 7.87565 44.9639 8.64755 45.3531 8.64755C45.4467 8.64755 45.5191 8.60768 45.5191 8.46526C45.5191 8.06079 45.1118 7.38004 45.1118 7.04109C45.1118 6.95279 45.1812 6.88728 45.326 6.88728C45.9747 6.88728 46.9371 7.13793 47.4379 7.13793C47.4655 7.14179 47.4935 7.13981 47.5202 7.13212C47.5468 7.12444 47.5712 7.11125 47.5917 7.09351C47.6123 7.07577 47.6283 7.05394 47.6388 7.02959C47.6492 7.00525 47.6538 6.97901 47.6522 6.95279C47.6522 6.45433 46.0863 5.4745 46.0863 5.18113C46.0863 4.88775 48.0323 4.50037 48.0323 4.07028C48.0323 3.64018 45.3893 3.93071 45.3893 3.50061C45.3893 3.18444 45.8932 2.64611 45.8932 2.38976C45.8932 2.27582 45.7997 2.23025 45.6277 2.23025C45.4557 2.23025 44.2579 2.66035 43.7782 2.66035C43.5368 2.66035 43.2472 2.61477 43.2472 2.29861C43.2472 1.77451 44.1855 1.20769 45.6609 1.20769C48.0383 1.20769 49.4564 2.75434 49.4564 5.34063C49.4594 8.60768 47.0337 9.4223 45.7333 9.4223Z" fill="#002F98"/>
<path d="M29.4639 48.7009C29.4614 48.9434 29.3685 49.1774 29.2014 49.3617C28.9359 48.9088 28.1876 48.6781 27.8527 48.6781C25.3787 48.6781 26.314 52.0619 23.6711 52.0619C22.5638 52.0619 22.4642 51.9224 22.0569 51.9224C21.891 51.9224 21.7944 51.9964 21.7944 52.1303C21.7944 52.7199 22.6845 54.1725 25.1585 54.1725C27.6325 54.1725 30.022 52.7484 30.022 50.971C30.0171 50.6505 29.9421 50.3344 29.8018 50.0424C29.8704 49.9685 29.9555 49.9098 30.0509 49.8704C30.1464 49.831 30.2498 49.812 30.3539 49.8146C30.7401 49.8146 30.9573 50.2247 31.3194 50.2247C31.4086 50.2267 31.4972 50.2115 31.58 50.1801C31.6628 50.1487 31.7379 50.1017 31.8008 50.0421C31.8638 49.9824 31.9132 49.9112 31.9461 49.833C31.979 49.7547 31.9947 49.6709 31.9922 49.5867C31.9913 49.4498 31.9475 49.3163 31.8665 49.2027C31.7854 49.0892 31.6707 49.0009 31.5366 48.9487C31.6385 48.8778 31.7218 48.7856 31.7798 48.6794C31.8379 48.5732 31.8693 48.4558 31.8715 48.3363C31.8752 48.2392 31.8579 48.1424 31.8208 48.0517C31.7837 47.9611 31.7275 47.8785 31.6555 47.809C31.5836 47.7395 31.4974 47.6845 31.4023 47.6473C31.3072 47.6102 31.2051 47.5917 31.1021 47.5929C31.0021 47.5911 30.9029 47.6098 30.8112 47.6477C30.7196 47.6855 30.6377 47.7417 30.5711 47.8122C30.5289 47.4077 30.2875 47.0204 29.8289 47.0204C29.7419 47.0188 29.6555 47.0346 29.5754 47.0667C29.4953 47.0989 29.4232 47.1466 29.364 47.2068C29.3047 47.2671 29.2596 47.3384 29.2316 47.4162C29.2036 47.494 29.1933 47.5766 29.2014 47.6584C29.1863 48.0315 29.4639 48.3164 29.4639 48.7009Z" fill="#002F98"/>
<path d="M22.9803 49.5667C22.2562 49.5667 21.17 48.8347 21.17 48.4274C21.1763 48.2821 21.2433 48.145 21.3564 48.0462C21.4695 47.9475 21.6195 47.8951 21.7735 47.9005C22.3769 47.9005 23.457 48.6068 23.457 49.1993C23.46 49.3616 23.3393 49.5667 22.9803 49.5667ZM16.2703 44.4796C18.1952 44.9296 19.1516 45.9038 19.3477 47.0659C19.5408 48.1767 19.7822 49.0882 20.2528 49.5411C20.9927 50.2679 22.001 50.6974 23.0678 50.7402C23.9307 50.7402 24.6276 50.4725 24.6276 49.7234C24.6276 48.9088 23.4479 47.0659 21.7191 47.0659C21.5502 47.0659 21.336 47.0915 21.0946 47.0915C20.836 47.1 20.5815 47.0279 20.3705 46.8864C19.9873 46.5674 19.8667 44.8641 19.1456 43.8444C18.3521 42.7051 17.4862 42.3889 16.3065 42.3889C15.4677 42.3889 14.5294 42.8219 14.5294 43.4542C14.5143 43.8444 14.7286 44.115 16.2703 44.4796Z" fill="#002F98"/>
<path d="M28.3485 41.7054C28.3485 40.6885 26.1099 40.6657 26.1099 39.1219C26.1099 38.7317 26.3723 38.0794 26.9003 37.3731C27.1206 38.5523 27.6244 39.1647 28.7106 39.552C30.8467 40.2983 31.1242 41.4348 31.1242 42.6396C31.1242 44.6819 29.6157 47.2255 25.7146 47.2255C22.5859 47.2255 20.3472 44.5907 20.3472 42.369C20.3472 41.7538 20.5192 41.0702 20.9235 41.0702C21.3278 41.0702 21.4092 41.355 21.6959 41.6199C22.779 42.6396 23.9557 42.9131 25.6663 42.9131C27.2141 42.9045 28.3485 42.3349 28.3485 41.7054ZM28.4421 43.3403C27.6184 43.6992 27.2895 43.6394 27.2895 44.4369C27.2895 44.7218 27.2141 45.1148 27.2141 45.3199C27.2141 45.5905 27.2624 45.75 27.6003 45.75C28.4632 45.75 29.8359 44.3657 29.8359 43.1865C29.8359 42.8704 29.6459 42.7308 29.4286 42.7308C29.2114 42.7308 29.0183 43.0954 28.4421 43.3403ZM20.7726 31.8786C20.7726 30.4231 24.4263 29.6512 24.4263 27.8596C24.4058 27.4399 24.2906 27.0291 24.0884 26.6548C25.3646 27.3156 26.2999 28.4264 26.2999 29.3351C26.2999 30.8988 24.5681 31.6137 24.5681 32.6021C24.5681 33.7414 26.4206 33.9209 26.4206 35.328C26.4206 36.4872 24.6647 37.8259 24.6647 39.3156C24.6621 39.8852 24.8855 40.435 25.2909 40.8567C25.6963 41.2785 26.2544 41.5416 26.8551 41.5943C26.4543 41.6903 26.0435 41.7438 25.6301 41.7538C23.1984 41.7538 20.6972 39.8711 20.6972 37.618C20.6994 37.0962 20.8133 36.5802 21.0321 36.101C21.2509 35.6218 21.5701 35.1893 21.9704 34.8295C22.6493 35.3735 23.319 35.7353 23.7505 35.7353C24.1367 35.7353 24.3056 35.5558 24.3056 35.2824C24.3056 34.4421 20.7726 33.6702 20.7726 31.8786Z" fill="#002F98"/>
<path d="M6.81846 43.0954C6.8756 43.4792 7.08923 43.8268 7.41385 44.0641C7.73846 44.3014 8.14839 44.4096 8.5563 44.3658C8.83425 44.3452 9.10406 44.2674 9.34678 44.1379C9.4262 44.4934 9.64934 44.8057 9.96879 45.0083C10.2882 45.211 10.6788 45.288 11.0575 45.2231C11.2626 45.2096 11.4626 45.1566 11.6452 45.0675C11.8278 44.9783 11.9892 44.8549 12.1195 44.7047C12.2497 44.5545 12.3461 44.3808 12.4026 44.1942C12.4592 44.0076 12.4747 43.812 12.4483 43.6195C12.4332 43.4381 12.3842 43.2607 12.3035 43.0954C12.3035 43.0954 12.4242 43.0954 12.5087 43.0641C12.913 43.0135 13.2815 42.819 13.539 42.5204C13.7964 42.2218 13.9232 41.8416 13.8935 41.4576C13.8522 41.0721 13.6531 40.7171 13.3387 40.4682C13.0242 40.2192 12.6193 40.0959 12.21 40.1246C11.9184 40.157 11.6418 40.2644 11.4105 40.4351C11.3129 40.0666 11.0734 39.7457 10.7386 39.535C10.4039 39.3244 9.99801 39.239 9.60021 39.2957C9.19641 39.3542 8.83313 39.5602 8.58874 39.8692C8.34435 40.1783 8.23842 40.5657 8.29382 40.9478C8.30635 41.1041 8.34717 41.2573 8.4145 41.4007L8.17615 41.432C7.76837 41.4946 7.4011 41.7013 7.14894 42.0103C6.89677 42.3192 6.77862 42.7072 6.81846 43.0954ZM11.3139 42.201C11.3315 42.3683 11.2965 42.5367 11.2132 42.6852C11.1299 42.8337 11.0021 42.9558 10.8458 43.0361C10.6894 43.1164 10.5114 43.1514 10.3341 43.1367C10.1568 43.122 9.98798 43.0583 9.84882 42.9535C9.70966 42.8487 9.60632 42.7075 9.55172 42.5476C9.49713 42.3876 9.4937 42.216 9.54187 42.0543C9.59004 41.8925 9.68767 41.7477 9.82255 41.638C9.95743 41.5284 10.1236 41.4587 10.3002 41.4377C10.4201 41.4234 10.5418 41.432 10.6582 41.4629C10.7745 41.4938 10.8831 41.5463 10.9776 41.6175C11.0721 41.6886 11.1505 41.7769 11.2083 41.8771C11.2661 41.9774 11.302 42.0875 11.3139 42.201Z" fill="#002F98"/>
</svg>
